<?xml version="1.0" encoding="utf-8"?>
<!-- Generator: Adobe Illustrator 24.3.0, SVG Export Plug-In . SVG Version: 6.00 Build 0)  -->
<svg version="1.1" id="Layer_1" xmlns="http://www.w3.org/2000/svg" xmlns:xlink="http://www.w3.org/1999/xlink" x="0px" y="0px"
	 viewBox="0 0 950.5 887.9" style="enable-background:new 0 0 950.5 887.9;" xml:space="preserve">
<style type="text/css">
	.st0{fill:#FFEB33;}
	.st1{opacity:0.2;clip-path:url(#SVGID_2_);enable-background:new    ;}
	.st2{fill:#001343;}
	.st3{opacity:0.2;clip-path:url(#SVGID_4_);enable-background:new    ;}
	.st4{fill:#CA74FF;}
	.st5{fill:#4ECB71;}
	.st6{fill:#333333;}
	.st7{opacity:0.2;clip-path:url(#SVGID_6_);enable-background:new    ;}
	.st8{fill:#C4C4C4;}
	.st9{fill:#EF493E;}
</style>
<path class="st0" d="M214.5,236.9c0-3.3,2.7-6,6-6h132c3.3,0,6,2.7,6,6v67c0,3.3-2.7,6-6,6h-132c-3.3,0-6-2.7-6-6V236.9z"/>
<g>
	<g>
		<defs>
			<path id="SVGID_1_" d="M214.5,236.9c0-3.3,2.7-6,6-6h132c3.3,0,6,2.7,6,6v67c0,3.3-2.7,6-6,6h-132c-3.3,0-6-2.7-6-6V236.9z"/>
		</defs>
		<clipPath id="SVGID_2_">
			<use xlink:href="#SVGID_1_"  style="overflow:visible;"/>
		</clipPath>
		<path class="st1" d="M228.5,305.9h-8v8h8V305.9z M250.5,305.9h-16v8h16V305.9z M272.5,305.9h-16v8h16V305.9z M294.5,305.9h-16v8
			h16V305.9z M316.5,305.9h-16v8h16V305.9z M338.5,305.9h-16v8h16V305.9z M352.5,305.9h-8v8h8V305.9z M353.6,305.6
			c-0.3,0.2-0.7,0.3-1.1,0.3v8c2,0,3.9-0.6,5.4-1.6L353.6,305.6z M354.5,303.9c0,0.4-0.1,0.8-0.3,1.1l6.7,4.3c1-1.6,1.6-3.4,1.6-5.4
			L354.5,303.9L354.5,303.9z M354.5,295.8v8.1h8v-8.1H354.5z M354.5,273.5v16.2h8v-16.2H354.5z M354.5,251.1v16.2h8v-16.2
			L354.5,251.1L354.5,251.1z M354.5,236.9v8.1h8v-8.1H354.5z M354.2,235.8c0.2,0.3,0.3,0.7,0.3,1.1h8c0-2-0.6-3.9-1.6-5.4
			L354.2,235.8z M352.5,234.9c0.4,0,0.8,0.1,1.1,0.3l4.3-6.7c-1.6-1-3.4-1.6-5.4-1.6L352.5,234.9L352.5,234.9z M344.5,234.9h8v-8h-8
			V234.9z M322.5,234.9h16v-8h-16V234.9z M300.5,234.9h16v-8h-16V234.9z M278.5,234.9h16v-8h-16V234.9z M256.5,234.9h16v-8h-16
			V234.9z M234.5,234.9h16v-8h-16V234.9z M220.5,234.9h8v-8h-8V234.9z M219.4,235.2c0.3-0.2,0.7-0.3,1.1-0.3v-8
			c-2,0-3.9,0.6-5.4,1.6L219.4,235.2z M218.5,236.9c0-0.4,0.1-0.8,0.3-1.1l-6.7-4.3c-1,1.6-1.6,3.4-1.6,5.4H218.5z M218.5,245v-8.1
			h-8v8.1H218.5z M218.5,267.4v-16.2h-8v16.2H218.5z M218.5,289.7v-16.2h-8v16.2H218.5z M218.5,303.9v-8.1h-8v8.1H218.5z M218.8,305
			c-0.2-0.3-0.3-0.7-0.3-1.1h-8c0,2,0.6,3.9,1.6,5.4L218.8,305z M220.5,305.9c-0.4,0-0.8-0.1-1.1-0.3l-4.3,6.7
			c1.6,1,3.4,1.6,5.4,1.6V305.9z M228.5,307.9h-8v4h8V307.9z M250.5,307.9h-16v4h16V307.9z M272.5,307.9h-16v4h16V307.9z
			 M294.5,307.9h-16v4h16V307.9z M316.5,307.9h-16v4h16V307.9z M338.5,307.9h-16v4h16V307.9z M352.5,307.9h-8v4h8V307.9z
			 M354.7,307.3c-0.6,0.4-1.4,0.6-2.2,0.6v4c1.6,0,3.1-0.5,4.3-1.3L354.7,307.3z M356.5,303.9c0,0.8-0.2,1.5-0.6,2.2l3.4,2.2
			c0.8-1.2,1.3-2.7,1.3-4.3L356.5,303.9L356.5,303.9z M356.5,295.8v8.1h4v-8.1H356.5z M356.5,273.5v16.2h4v-16.2H356.5z
			 M356.5,251.1v16.2h4v-16.2L356.5,251.1L356.5,251.1z M356.5,236.9v8.1h4v-8.1H356.5z M355.9,234.8c0.4,0.6,0.6,1.4,0.6,2.2h4
			c0-1.6-0.5-3.1-1.3-4.3L355.9,234.8z M352.5,232.9c0.8,0,1.5,0.2,2.2,0.6l2.2-3.4c-1.2-0.8-2.7-1.3-4.3-1.3L352.5,232.9
			L352.5,232.9z M344.5,232.9h8v-4h-8V232.9z M322.5,232.9h16v-4h-16V232.9z M300.5,232.9h16v-4h-16V232.9z M278.5,232.9h16v-4h-16
			V232.9z M256.5,232.9h16v-4h-16V232.9z M234.5,232.9h16v-4h-16V232.9z M220.5,232.9h8v-4h-8V232.9z M218.3,233.6
			c0.6-0.4,1.4-0.6,2.2-0.6v-4c-1.6,0-3.1,0.5-4.3,1.3L218.3,233.6z M216.5,236.9c0-0.8,0.2-1.5,0.6-2.2l-3.4-2.2
			c-0.8,1.2-1.3,2.7-1.3,4.3H216.5z M216.5,245v-8.1h-4v8.1H216.5z M216.5,267.4v-16.2h-4v16.2H216.5z M216.5,289.7v-16.2h-4v16.2
			H216.5z M216.5,303.9v-8.1h-4v8.1H216.5z M217.1,306.1c-0.4-0.6-0.6-1.4-0.6-2.2h-4c0,1.6,0.5,3.1,1.3,4.3L217.1,306.1z
			 M220.5,307.9c-0.8,0-1.5-0.2-2.2-0.6l-2.2,3.4c1.2,0.8,2.7,1.3,4.3,1.3V307.9z"/>
	</g>
</g>
<path class="st2" d="M308.7,265.3v11.6H307v-11.6H308.7z M301.5,277.1c-0.9,0-1.6-0.2-2.2-0.5s-1.1-0.9-1.4-1.6
	c-0.3-0.7-0.5-1.5-0.5-2.4c0-0.9,0.2-1.7,0.5-2.4c0.3-0.7,0.8-1.2,1.4-1.6c0.6-0.4,1.3-0.6,2.1-0.6c0.5,0,1,0.1,1.4,0.2
	s0.9,0.4,1.2,0.8c0.4,0.4,0.7,0.8,0.9,1.4c0.2,0.5,0.3,1.2,0.3,2v0.6h-6.9v-1.3h5.3c0-0.5-0.1-0.8-0.3-1.2s-0.4-0.6-0.8-0.8
	s-0.7-0.3-1.1-0.3c-0.5,0-0.9,0.1-1.2,0.4c-0.4,0.2-0.6,0.5-0.8,0.9c-0.2,0.4-0.3,0.8-0.3,1.2v1c0,0.6,0.1,1.1,0.3,1.5
	s0.5,0.7,0.9,0.9c0.4,0.2,0.8,0.3,1.3,0.3c0.3,0,0.6,0,0.9-0.1c0.3-0.1,0.5-0.2,0.7-0.4s0.3-0.4,0.4-0.7l1.6,0.3
	c-0.1,0.5-0.4,0.9-0.7,1.2c-0.3,0.4-0.7,0.6-1.2,0.8C302.8,277,302.2,277.1,301.5,277.1z M291.6,275.6c0.5,0,0.9-0.1,1.2-0.4
	s0.6-0.6,0.8-1.1c0.2-0.5,0.3-1,0.3-1.6s-0.1-1.1-0.3-1.6c-0.2-0.5-0.4-0.8-0.8-1.1s-0.8-0.4-1.2-0.4c-0.5,0-0.9,0.1-1.3,0.4
	s-0.6,0.6-0.8,1.1c-0.2,0.5-0.3,1-0.3,1.5c0,0.6,0.1,1.1,0.3,1.6c0.2,0.5,0.4,0.8,0.8,1.1C290.7,275.5,291.1,275.6,291.6,275.6z
	 M291.2,277.1c-0.7,0-1.3-0.2-1.9-0.5c-0.5-0.4-1-0.9-1.3-1.5c-0.3-0.7-0.5-1.5-0.5-2.4s0.2-1.8,0.5-2.4c0.3-0.7,0.8-1.2,1.3-1.5
	c0.5-0.4,1.2-0.5,1.9-0.5c0.5,0,1,0.1,1.3,0.3s0.6,0.4,0.8,0.6c0.2,0.2,0.3,0.5,0.4,0.6h0.1v-4.3h1.7v11.6h-1.7v-1.4h-0.1
	c-0.1,0.2-0.2,0.4-0.4,0.6c-0.2,0.2-0.5,0.5-0.8,0.6S291.7,277.1,291.2,277.1z M282.2,275.7c0.5,0,1-0.1,1.3-0.4s0.6-0.6,0.8-1.1
	c0.2-0.5,0.3-1,0.3-1.5s-0.1-1.1-0.3-1.5c-0.2-0.5-0.4-0.9-0.8-1.1c-0.4-0.3-0.8-0.4-1.3-0.4s-1,0.1-1.3,0.4
	c-0.4,0.3-0.6,0.7-0.8,1.1s-0.2,1-0.2,1.5c0,0.6,0.1,1.1,0.2,1.5s0.4,0.8,0.8,1.1C281.2,275.5,281.6,275.7,282.2,275.7z
	 M282.2,277.1c-0.8,0-1.5-0.2-2.1-0.6c-0.6-0.4-1.1-0.9-1.4-1.6s-0.5-1.5-0.5-2.4c0-0.9,0.2-1.7,0.5-2.4s0.8-1.2,1.4-1.6
	c0.6-0.4,1.3-0.6,2.1-0.6s1.5,0.2,2.1,0.6c0.6,0.4,1.1,0.9,1.4,1.6s0.5,1.5,0.5,2.4c0,0.9-0.2,1.7-0.5,2.4s-0.8,1.2-1.4,1.6
	S283,277.1,282.2,277.1z M264.4,265.3h2.1l3.7,9h0.1l3.7-9h2.1v11.6h-1.7v-8.4h-0.1l-3.4,8.4h-1.4l-3.4-8.4h-0.1v8.4h-1.7
	L264.4,265.3L264.4,265.3z"/>
<path class="st0" d="M326.5,300.9c0-3.3,2.7-6,6-6h132c3.3,0,6,2.7,6,6v67c0,3.3-2.7,6-6,6h-132c-3.3,0-6-2.7-6-6V300.9z"/>
<g>
	<g>
		<defs>
			<path id="SVGID_3_" d="M326.5,300.9c0-3.3,2.7-6,6-6h132c3.3,0,6,2.7,6,6v67c0,3.3-2.7,6-6,6h-132c-3.3,0-6-2.7-6-6V300.9z"/>
		</defs>
		<clipPath id="SVGID_4_">
			<use xlink:href="#SVGID_3_"  style="overflow:visible;"/>
		</clipPath>
		<path class="st3" d="M340.5,369.9h-8v8h8V369.9z M362.5,369.9h-16v8h16V369.9z M384.5,369.9h-16v8h16V369.9z M406.5,369.9h-16v8
			h16V369.9z M428.5,369.9h-16v8h16V369.9z M450.5,369.9h-16v8h16V369.9z M464.5,369.9h-8v8h8V369.9z M465.6,369.6
			c-0.3,0.2-0.7,0.3-1.1,0.3v8c2,0,3.9-0.6,5.4-1.6L465.6,369.6z M466.5,367.9c0,0.4-0.1,0.8-0.3,1.1l6.7,4.3c1-1.6,1.6-3.4,1.6-5.4
			L466.5,367.9L466.5,367.9z M466.5,359.8v8.1h8v-8.1H466.5z M466.5,337.5v16.2h8v-16.2H466.5z M466.5,315.1v16.2h8v-16.2H466.5z
			 M466.5,300.9v8.1h8v-8.1H466.5z M466.2,299.8c0.2,0.3,0.3,0.7,0.3,1.1h8c0-2-0.6-3.9-1.6-5.4L466.2,299.8z M464.5,298.9
			c0.4,0,0.8,0.1,1.1,0.3l4.3-6.7c-1.6-1-3.4-1.6-5.4-1.6L464.5,298.9L464.5,298.9z M456.5,298.9h8v-8h-8V298.9z M434.5,298.9h16v-8
			h-16V298.9z M412.5,298.9h16v-8h-16V298.9z M390.5,298.9h16v-8h-16V298.9z M368.5,298.9h16v-8h-16V298.9z M346.5,298.9h16v-8h-16
			V298.9z M332.5,298.9h8v-8h-8V298.9z M331.4,299.2c0.3-0.2,0.7-0.3,1.1-0.3v-8c-2,0-3.9,0.6-5.4,1.6L331.4,299.2z M330.5,300.9
			c0-0.4,0.1-0.8,0.3-1.1l-6.7-4.3c-1,1.6-1.6,3.4-1.6,5.4L330.5,300.9L330.5,300.9z M330.5,309v-8.1h-8v8.1H330.5z M330.5,331.4
			v-16.2h-8v16.2H330.5z M330.5,353.7v-16.2h-8v16.2H330.5z M330.5,367.9v-8.1h-8v8.1H330.5z M330.8,369c-0.2-0.3-0.3-0.7-0.3-1.1
			h-8c0,2,0.6,3.9,1.6,5.4L330.8,369z M332.5,369.9c-0.4,0-0.8-0.1-1.1-0.3l-4.3,6.7c1.6,1,3.4,1.6,5.4,1.6L332.5,369.9L332.5,369.9
			z M340.5,371.9h-8v4h8V371.9z M362.5,371.9h-16v4h16V371.9z M384.5,371.9h-16v4h16V371.9z M406.5,371.9h-16v4h16V371.9z
			 M428.5,371.9h-16v4h16V371.9z M450.5,371.9h-16v4h16V371.9z M464.5,371.9h-8v4h8V371.9z M466.7,371.3c-0.6,0.4-1.4,0.6-2.2,0.6v4
			c1.6,0,3.1-0.5,4.3-1.3L466.7,371.3z M468.5,367.9c0,0.8-0.2,1.5-0.6,2.2l3.4,2.2c0.8-1.2,1.3-2.7,1.3-4.3L468.5,367.9
			L468.5,367.9z M468.5,359.8v8.1h4v-8.1H468.5z M468.5,337.5v16.2h4v-16.2H468.5z M468.5,315.1v16.2h4v-16.2H468.5z M468.5,300.9
			v8.1h4v-8.1H468.5z M467.9,298.8c0.4,0.6,0.6,1.4,0.6,2.2h4c0-1.6-0.5-3.1-1.3-4.3L467.9,298.8z M464.5,296.9
			c0.8,0,1.5,0.2,2.2,0.6l2.2-3.4c-1.2-0.8-2.7-1.3-4.3-1.3L464.5,296.9L464.5,296.9z M456.5,296.9h8v-4h-8V296.9z M434.5,296.9h16
			v-4h-16V296.9z M412.5,296.9h16v-4h-16V296.9z M390.5,296.9h16v-4h-16V296.9z M368.5,296.9h16v-4h-16V296.9z M346.5,296.9h16v-4
			h-16V296.9z M332.5,296.9h8v-4h-8V296.9z M330.3,297.5c0.6-0.4,1.4-0.6,2.2-0.6v-4c-1.6,0-3.1,0.5-4.3,1.3L330.3,297.5z
			 M328.5,300.9c0-0.8,0.2-1.5,0.6-2.2l-3.4-2.2c-0.8,1.2-1.3,2.7-1.3,4.3L328.5,300.9L328.5,300.9z M328.5,309v-8.1h-4v8.1H328.5z
			 M328.5,331.4v-16.2h-4v16.2H328.5z M328.5,353.7v-16.2h-4v16.2H328.5z M328.5,367.9v-8.1h-4v8.1H328.5z M329.1,370.1
			c-0.4-0.6-0.6-1.4-0.6-2.2h-4c0,1.6,0.5,3.1,1.3,4.3L329.1,370.1z M332.5,371.9c-0.8,0-1.5-0.2-2.2-0.6l-2.2,3.4
			c1.2,0.8,2.7,1.3,4.3,1.3L332.5,371.9L332.5,371.9z"/>
	</g>
</g>
<path class="st2" d="M420.7,329.3v11.6H419v-11.6H420.7z M413.5,341.1c-0.9,0-1.6-0.2-2.2-0.5s-1.1-0.9-1.4-1.6
	c-0.3-0.7-0.5-1.5-0.5-2.4c0-0.9,0.2-1.7,0.5-2.4c0.3-0.7,0.8-1.2,1.4-1.6c0.6-0.4,1.3-0.6,2.1-0.6c0.5,0,1,0.1,1.4,0.2
	s0.9,0.4,1.2,0.8c0.4,0.4,0.7,0.8,0.9,1.4c0.2,0.5,0.3,1.2,0.3,2v0.6h-6.9v-1.3h5.3c0-0.5-0.1-0.8-0.3-1.2s-0.4-0.6-0.8-0.8
	s-0.7-0.3-1.1-0.3c-0.5,0-0.9,0.1-1.2,0.4c-0.4,0.2-0.6,0.5-0.8,0.9c-0.2,0.4-0.3,0.8-0.3,1.2v1c0,0.6,0.1,1.1,0.3,1.5
	s0.5,0.7,0.9,0.9c0.4,0.2,0.8,0.3,1.3,0.3c0.3,0,0.6,0,0.9-0.1c0.3-0.1,0.5-0.2,0.7-0.4s0.3-0.4,0.4-0.7l1.6,0.3
	c-0.1,0.5-0.4,0.9-0.7,1.2c-0.3,0.4-0.7,0.6-1.2,0.8C414.8,341,414.2,341.1,413.5,341.1z M403.6,339.6c0.5,0,0.9-0.1,1.2-0.4
	s0.6-0.6,0.8-1.1c0.2-0.5,0.3-1,0.3-1.6s-0.1-1.1-0.3-1.6c-0.2-0.5-0.4-0.8-0.8-1.1s-0.8-0.4-1.2-0.4c-0.5,0-0.9,0.1-1.3,0.4
	s-0.6,0.6-0.8,1.1c-0.2,0.5-0.3,1-0.3,1.5c0,0.6,0.1,1.1,0.3,1.6c0.2,0.5,0.4,0.8,0.8,1.1C402.7,339.5,403.1,339.6,403.6,339.6z
	 M403.2,341.1c-0.7,0-1.3-0.2-1.9-0.5c-0.5-0.4-1-0.9-1.3-1.5c-0.3-0.7-0.5-1.5-0.5-2.4s0.2-1.8,0.5-2.4c0.3-0.7,0.8-1.2,1.3-1.5
	c0.5-0.4,1.2-0.5,1.9-0.5c0.5,0,1,0.1,1.3,0.3s0.6,0.4,0.8,0.6c0.2,0.2,0.3,0.5,0.4,0.6h0.1v-4.3h1.7v11.6h-1.7v-1.4h-0.1
	c-0.1,0.2-0.2,0.4-0.4,0.6c-0.2,0.2-0.5,0.5-0.8,0.6S403.7,341.1,403.2,341.1z M394.2,339.7c0.5,0,1-0.1,1.3-0.4s0.6-0.6,0.8-1.1
	c0.2-0.5,0.3-1,0.3-1.5s-0.1-1.1-0.3-1.5c-0.2-0.5-0.4-0.9-0.8-1.1c-0.4-0.3-0.8-0.4-1.3-0.4s-1,0.1-1.3,0.4
	c-0.4,0.3-0.6,0.7-0.8,1.1s-0.2,1-0.2,1.5c0,0.6,0.1,1.1,0.2,1.5s0.4,0.8,0.8,1.1C393.2,339.5,393.6,339.7,394.2,339.7z
	 M394.2,341.1c-0.8,0-1.5-0.2-2.1-0.6c-0.6-0.4-1.1-0.9-1.4-1.6s-0.5-1.5-0.5-2.4c0-0.9,0.2-1.7,0.5-2.4s0.8-1.2,1.4-1.6
	c0.6-0.4,1.3-0.6,2.1-0.6s1.5,0.2,2.1,0.6c0.6,0.4,1.1,0.9,1.4,1.6s0.5,1.5,0.5,2.4c0,0.9-0.2,1.7-0.5,2.4s-0.8,1.2-1.4,1.6
	S395,341.1,394.2,341.1z M376.4,329.3h2.1l3.7,9h0.1l3.7-9h2.1v11.6h-1.7v-8.4h-0.1l-3.4,8.4h-1.4l-3.4-8.4h-0.1v8.4h-1.7
	L376.4,329.3L376.4,329.3z"/>
<path class="st4" d="M422.5,572.9c0-3.3,2.7-6,6-6h132c3.3,0,6,2.7,6,6v52c0,3.3-2.7,6-6,6h-132c-3.3,0-6-2.7-6-6V572.9z"/>
<path class="st2" d="M500.2,593.3h2.6l3.5,8.4h0.1l3.5-8.4h2.6v11.6h-2v-8h-0.1l-3.2,8h-1.5l-3.2-8h-0.1v8h-2L500.2,593.3
	L500.2,593.3z M496.3,599.1c0-0.9-0.1-1.6-0.4-2.2c-0.3-0.6-0.6-1.1-1.1-1.4c-0.5-0.3-1-0.5-1.7-0.5s-1.2,0.2-1.7,0.5
	c-0.5,0.3-0.9,0.8-1.1,1.4c-0.3,0.6-0.4,1.3-0.4,2.2s0.1,1.6,0.4,2.2c0.3,0.6,0.7,1.1,1.1,1.4s1,0.5,1.7,0.5s1.2-0.2,1.7-0.5
	c0.5-0.3,0.9-0.8,1.1-1.4C496.1,600.7,496.3,600,496.3,599.1z M498.4,599.1c0,1.2-0.2,2.3-0.7,3.2c-0.5,0.9-1.1,1.6-1.9,2
	c-0.8,0.5-1.7,0.7-2.7,0.7s-1.9-0.2-2.7-0.7c-0.8-0.5-1.4-1.2-1.9-2s-0.7-2-0.7-3.2s0.2-2.3,0.7-3.2c0.5-0.9,1.1-1.6,1.9-2
	c0.8-0.5,1.7-0.7,2.7-0.7s1.9,0.2,2.7,0.7c0.8,0.5,1.4,1.2,1.9,2C498.2,596.8,498.4,597.8,498.4,599.1z M478.7,603.1h1.7
	c0.8,0,1.5-0.2,2-0.4c0.5-0.3,1-0.7,1.2-1.3c0.3-0.6,0.4-1.3,0.4-2.2s-0.1-1.6-0.4-2.2c-0.3-0.6-0.7-1-1.2-1.3
	c-0.5-0.3-1.2-0.4-2-0.4h-1.8L478.7,603.1L478.7,603.1z M480.5,604.9h-3.9v-11.6h4c1.2,0,2.1,0.2,3,0.7c0.8,0.5,1.5,1.1,1.9,2
	s0.7,1.9,0.7,3.1c0,1.2-0.2,2.2-0.7,3.1c-0.5,0.9-1.1,1.5-1.9,2C482.7,604.7,481.7,604.9,480.5,604.9z"/>
<path class="st5" d="M422.5,476.9c0-3.3,2.7-6,6-6h132c3.3,0,6,2.7,6,6v52c0,3.3-2.7,6-6,6h-132c-3.3,0-6-2.7-6-6V476.9z"/>
<path class="st6" d="M503,508.9l-2.5-8.7h2.1l1.5,6.1h0.1l1.6-6.1h2.1l1.6,6.1h0.1l1.5-6.1h2.1l-2.5,8.7h-2.1l-1.6-5.9h-0.1
	l-1.6,5.9H503z M495.8,509.1c-0.9,0-1.6-0.2-2.3-0.5c-0.6-0.4-1.1-0.9-1.5-1.6c-0.3-0.7-0.5-1.5-0.5-2.4c0-0.9,0.2-1.7,0.5-2.4
	c0.3-0.7,0.8-1.2,1.4-1.6c0.6-0.4,1.3-0.6,2.2-0.6c0.5,0,1,0.1,1.5,0.3c0.5,0.2,0.9,0.4,1.3,0.8c0.4,0.4,0.7,0.8,0.9,1.4
	c0.2,0.5,0.3,1.2,0.3,2v0.6h-7.1v-1.4h5.2c0-0.4-0.1-0.7-0.3-1s-0.4-0.5-0.7-0.7c-0.3-0.2-0.6-0.3-1-0.3c-0.4,0-0.8,0.1-1.1,0.3
	c-0.3,0.2-0.6,0.5-0.7,0.8c-0.2,0.3-0.3,0.7-0.3,1.1v1.2c0,0.5,0.1,0.9,0.3,1.3c0.2,0.4,0.5,0.6,0.8,0.8c0.3,0.2,0.7,0.3,1.2,0.3
	c0.3,0,0.6,0,0.8-0.1c0.2-0.1,0.5-0.2,0.6-0.4s0.3-0.4,0.4-0.6l1.9,0.2c-0.1,0.5-0.4,1-0.7,1.3c-0.3,0.4-0.8,0.7-1.3,0.9
	C497.1,509,496.5,509.1,495.8,509.1z M489,499c-0.3,0-0.6-0.1-0.8-0.3c-0.2-0.2-0.4-0.5-0.4-0.8s0.1-0.6,0.4-0.8s0.5-0.3,0.8-0.3
	c0.3,0,0.6,0.1,0.8,0.3s0.4,0.5,0.4,0.8s-0.1,0.6-0.4,0.8S489.3,499,489,499z M487.9,508.9v-8.7h2.1v8.7H487.9z M478.2,497.3l3,9.2
	h0.1l3-9.2h2.3l-4.1,11.6H480l-4.1-11.6H478.2z"/>
<path class="st0" d="M422.5,364.9c0-3.3,2.7-6,6-6h132c3.3,0,6,2.7,6,6v67c0,3.3-2.7,6-6,6h-132c-3.3,0-6-2.7-6-6V364.9z"/>
<g>
	<g>
		<defs>
			<path id="SVGID_5_" d="M422.5,364.9c0-3.3,2.7-6,6-6h132c3.3,0,6,2.7,6,6v67c0,3.3-2.7,6-6,6h-132c-3.3,0-6-2.7-6-6V364.9z"/>
		</defs>
		<clipPath id="SVGID_6_">
			<use xlink:href="#SVGID_5_"  style="overflow:visible;"/>
		</clipPath>
		<path class="st7" d="M428.5,354.9c-5.5,0-10,4.5-10,10h8c0-1.1,0.9-2,2-2V354.9z M560.5,362.9c1.1,0,2,0.9,2,2h8
			c0-5.5-4.5-10-10-10V362.9z M562.5,431.9c0,1.1-0.9,2-2,2v8c5.5,0,10-4.5,10-10H562.5z M428.5,433.9c-1.1,0-2-0.9-2-2h-8
			c0,5.5,4.5,10,10,10V433.9z M426.5,431.9v-67h-8v67H426.5z M560.5,433.9h-132v8h132V433.9z M562.5,364.9v67h8v-67H562.5z
			 M428.5,362.9h132v-8h-132V362.9z"/>
	</g>
</g>
<path class="st2" d="M517.1,393.3v11.6H515v-11.6H517.1z M509.6,405.1c-0.9,0-1.6-0.2-2.3-0.5c-0.6-0.4-1.1-0.9-1.5-1.6
	c-0.3-0.7-0.5-1.5-0.5-2.4c0-0.9,0.2-1.7,0.5-2.4c0.3-0.7,0.8-1.2,1.4-1.6c0.6-0.4,1.3-0.6,2.2-0.6c0.5,0,1,0.1,1.5,0.3
	c0.5,0.2,0.9,0.4,1.3,0.8c0.4,0.4,0.7,0.8,0.9,1.4c0.2,0.5,0.3,1.2,0.3,2v0.6h-7.1v-1.4h5.2c0-0.4-0.1-0.7-0.3-1s-0.4-0.5-0.7-0.7
	c-0.3-0.2-0.6-0.3-1-0.3c-0.4,0-0.8,0.1-1.1,0.3c-0.3,0.2-0.6,0.5-0.7,0.8c-0.2,0.3-0.3,0.7-0.3,1.1v1.2c0,0.5,0.1,0.9,0.3,1.3
	c0.2,0.4,0.5,0.6,0.8,0.8c0.3,0.2,0.7,0.3,1.2,0.3c0.3,0,0.6,0,0.8-0.1c0.2-0.1,0.5-0.2,0.6-0.4s0.3-0.4,0.4-0.6l1.9,0.2
	c-0.1,0.5-0.3,1-0.7,1.3c-0.3,0.4-0.8,0.7-1.3,0.9C510.9,405,510.2,405.1,509.6,405.1z M499.6,403.4c0.4,0,0.8-0.1,1.1-0.4
	c0.3-0.2,0.5-0.6,0.7-1c0.2-0.4,0.2-0.9,0.2-1.5s-0.1-1-0.2-1.5s-0.4-0.7-0.7-1s-0.7-0.4-1.1-0.4c-0.5,0-0.8,0.1-1.1,0.4
	s-0.5,0.6-0.7,1c-0.2,0.4-0.2,0.9-0.2,1.4c0,0.5,0.1,1,0.2,1.5c0.2,0.4,0.4,0.8,0.7,1C498.8,403.3,499.2,403.4,499.6,403.4z
	 M499,405.1c-0.7,0-1.3-0.2-1.8-0.5s-1-0.9-1.3-1.5s-0.5-1.5-0.5-2.4c0-1,0.2-1.8,0.5-2.5c0.3-0.7,0.8-1.2,1.3-1.5
	c0.5-0.3,1.1-0.5,1.8-0.5c0.5,0,0.9,0.1,1.3,0.3c0.3,0.2,0.6,0.4,0.8,0.6s0.3,0.5,0.5,0.7h0.1v-4.4h2.1v11.6h-2v-1.4h-0.1
	c-0.1,0.2-0.3,0.4-0.5,0.7c-0.2,0.2-0.5,0.4-0.8,0.6C500,405,499.5,405.1,499,405.1z M490.1,403.4c0.5,0,0.9-0.1,1.2-0.4
	c0.3-0.3,0.5-0.6,0.7-1c0.2-0.4,0.2-0.9,0.2-1.4s-0.1-1-0.2-1.5c-0.1-0.4-0.4-0.8-0.7-1s-0.7-0.4-1.2-0.4c-0.5,0-0.9,0.1-1.2,0.4
	s-0.5,0.6-0.7,1c-0.1,0.4-0.2,0.9-0.2,1.5c0,0.5,0.1,1,0.2,1.4c0.2,0.4,0.4,0.8,0.7,1C489.2,403.3,489.6,403.4,490.1,403.4z
	 M490.1,405.1c-0.9,0-1.6-0.2-2.2-0.6s-1.1-0.9-1.5-1.6c-0.3-0.7-0.5-1.5-0.5-2.4s0.2-1.7,0.5-2.4s0.8-1.2,1.5-1.6s1.4-0.6,2.2-0.6
	c0.9,0,1.6,0.2,2.2,0.6s1.1,0.9,1.5,1.6c0.3,0.7,0.5,1.5,0.5,2.4s-0.2,1.7-0.5,2.4c-0.3,0.7-0.8,1.2-1.5,1.6
	S490.9,405.1,490.1,405.1z M472,393.3h2.6l3.5,8.4h0.1l3.5-8.4h2.6v11.6h-2v-8h-0.1l-3.2,8h-1.5l-3.2-8H474v8h-2L472,393.3
	L472,393.3z"/>
<path class="st2" d="M574.5,399.9c12.4,0,22.5,10.1,22.5,22.5h3c0-14.1-11.4-25.5-25.5-25.5V399.9z M597,478.9
	c0,12.4-10.1,22.5-22.5,22.5v3c14.1,0,25.5-11.4,25.5-25.5H597z M574.5,501.4h-4v3h4V501.4z M597,422.4v56.5h3v-56.5H597z
	 M570.5,399.9h4v-3h-4V399.9z M569.4,501.9c-0.6,0.6-0.6,1.5,0,2.1l9.5,9.5c0.6,0.6,1.5,0.6,2.1,0c0.6-0.6,0.6-1.5,0-2.1l-8.5-8.5
	l8.5-8.5c0.6-0.6,0.6-1.5,0-2.1c-0.6-0.6-1.5-0.6-2.1,0L569.4,501.9z M570.5,396.9c-0.8,0-1.5,0.7-1.5,1.5s0.7,1.5,1.5,1.5V396.9z"
	/>
<path class="st2" d="M153.5,501.4c-12.4,0-22.5-10.1-22.5-22.5h-3c0,14.1,11.4,25.5,25.5,25.5V501.4z M131,422.4
	c0-12.4,10.1-22.5,22.5-22.5v-3c-14.1,0-25.5,11.4-25.5,25.5H131z M153.5,399.9h269v-3h-269V399.9z M131,478.9v-56.5h-3v56.5H131z
	 M418.5,501.4h-265v3h265V501.4z M423.6,399.5c0.6-0.6,0.6-1.5,0-2.1l-9.5-9.5c-0.6-0.6-1.5-0.6-2.1,0s-0.6,1.5,0,2.1l8.5,8.5
	l-8.5,8.5c-0.6,0.6-0.6,1.5,0,2.1s1.5,0.6,2.1,0L423.6,399.5z M418.5,504.4c0.8,0,1.5-0.7,1.5-1.5s-0.7-1.5-1.5-1.5V504.4z"/>
<path class="st2" d="M398.9,475.5l-1.5,0.3c-0.1-0.2-0.2-0.4-0.3-0.6c-0.1-0.2-0.3-0.3-0.6-0.4c-0.2-0.1-0.5-0.2-0.9-0.2
	c-0.5,0-0.9,0.1-1.2,0.3c-0.3,0.2-0.5,0.5-0.5,0.8c0,0.3,0.1,0.5,0.3,0.7c0.2,0.2,0.6,0.3,1,0.4l1.4,0.3c0.8,0.2,1.4,0.5,1.8,0.9
	c0.4,0.4,0.6,0.9,0.6,1.5c0,0.5-0.1,1-0.5,1.4c-0.3,0.4-0.7,0.7-1.3,1c-0.5,0.2-1.1,0.4-1.9,0.4c-1,0-1.8-0.2-2.4-0.6
	c-0.6-0.4-1-1-1.1-1.8l1.6-0.2c0.1,0.4,0.3,0.8,0.6,1s0.7,0.3,1.2,0.3c0.6,0,1-0.1,1.3-0.4c0.3-0.2,0.5-0.5,0.5-0.9
	c0-0.3-0.1-0.5-0.3-0.7c-0.2-0.2-0.5-0.3-0.9-0.4l-1.5-0.3c-0.8-0.2-1.4-0.5-1.8-0.9c-0.4-0.4-0.6-0.9-0.6-1.5c0-0.5,0.1-1,0.4-1.4
	c0.3-0.4,0.7-0.7,1.2-0.9c0.5-0.2,1.1-0.3,1.7-0.3c0.9,0,1.7,0.2,2.2,0.6C398.4,474.3,398.8,474.8,398.9,475.5z M386.4,482.1v-8.7
	h1.6v1.4h0.1c0.2-0.5,0.4-0.8,0.8-1.1c0.4-0.3,0.9-0.4,1.4-0.4c0.1,0,0.2,0,0.4,0s0.3,0,0.4,0v1.6c-0.1,0-0.2,0-0.4-0.1
	c-0.2,0-0.4,0-0.5,0c-0.4,0-0.8,0.1-1.1,0.3s-0.6,0.4-0.7,0.7c-0.2,0.3-0.3,0.6-0.3,1v5.3L386.4,482.1L386.4,482.1z M381,482.3
	c-0.9,0-1.6-0.2-2.2-0.5s-1.1-0.9-1.4-1.6c-0.3-0.7-0.5-1.5-0.5-2.4c0-0.9,0.2-1.7,0.5-2.4c0.3-0.7,0.8-1.2,1.4-1.6
	c0.6-0.4,1.3-0.6,2.1-0.6c0.5,0,1,0.1,1.4,0.2s0.9,0.4,1.2,0.8c0.4,0.4,0.7,0.8,0.9,1.4c0.2,0.5,0.3,1.2,0.3,2v0.6h-6.9V477h5.3
	c0-0.5-0.1-0.8-0.3-1.2s-0.4-0.6-0.8-0.8s-0.7-0.3-1.1-0.3c-0.5,0-0.9,0.1-1.2,0.4c-0.4,0.2-0.6,0.5-0.8,0.9
	c-0.2,0.4-0.3,0.8-0.3,1.2v1c0,0.6,0.1,1.1,0.3,1.5s0.5,0.7,0.9,0.9c0.4,0.2,0.8,0.3,1.3,0.3c0.3,0,0.6,0,0.9-0.1
	c0.3-0.1,0.5-0.2,0.7-0.4c0.2-0.2,0.3-0.4,0.4-0.7l1.6,0.3c-0.1,0.5-0.4,0.9-0.7,1.2c-0.3,0.4-0.7,0.6-1.2,0.8
	C382.2,482.2,381.6,482.3,381,482.3z M375.4,475.5l-1.5,0.3c-0.1-0.2-0.2-0.4-0.3-0.6c-0.1-0.2-0.3-0.3-0.6-0.4
	c-0.2-0.1-0.5-0.2-0.9-0.2c-0.5,0-0.9,0.1-1.2,0.3c-0.3,0.2-0.5,0.5-0.5,0.8c0,0.3,0.1,0.5,0.3,0.7c0.2,0.2,0.6,0.3,1,0.4l1.4,0.3
	c0.8,0.2,1.4,0.5,1.8,0.9c0.4,0.4,0.6,0.9,0.6,1.5c0,0.5-0.1,1-0.5,1.4c-0.3,0.4-0.7,0.7-1.3,1c-0.5,0.2-1.1,0.4-1.9,0.4
	c-1,0-1.8-0.2-2.4-0.6c-0.6-0.4-1-1-1.1-1.8l1.6-0.2c0.1,0.4,0.3,0.8,0.6,1s0.7,0.3,1.2,0.3c0.6,0,1-0.1,1.3-0.4
	c0.3-0.2,0.5-0.5,0.5-0.9c0-0.3-0.1-0.5-0.3-0.7c-0.2-0.2-0.5-0.3-0.9-0.4l-1.5-0.3c-0.8-0.2-1.4-0.5-1.8-0.9
	c-0.4-0.4-0.6-0.9-0.6-1.5c0-0.5,0.1-1,0.4-1.4c0.3-0.4,0.7-0.7,1.2-0.9c0.5-0.2,1.1-0.3,1.7-0.3c0.9,0,1.7,0.2,2.2,0.6
	C374.8,474.3,375.2,474.8,375.4,475.5z M365,478.5v-5.1h1.7v8.7H365v-1.5H365c-0.2,0.5-0.5,0.9-1,1.2c-0.4,0.3-1,0.5-1.6,0.5
	c-0.6,0-1.1-0.1-1.5-0.4s-0.8-0.6-1-1.1c-0.2-0.5-0.4-1.1-0.4-1.8v-5.5h1.7v5.4c0,0.6,0.2,1.1,0.5,1.4s0.8,0.5,1.3,0.5
	c0.3,0,0.6-0.1,1-0.2s0.6-0.4,0.8-0.7C364.9,479.4,365,479,365,478.5z M353.3,470.5v11.6h-1.7v-11.6H353.3z M349.5,470.5v11.6h-1.7
	v-11.6H349.5z M341.8,480.9c0.5,0,0.9-0.1,1.2-0.3c0.3-0.2,0.6-0.4,0.8-0.7c0.2-0.3,0.3-0.6,0.3-1v-1.1c-0.1,0.1-0.2,0.1-0.4,0.2
	c-0.2,0-0.4,0.1-0.6,0.1c-0.2,0-0.4,0.1-0.6,0.1c-0.2,0-0.4,0-0.5,0.1c-0.3,0-0.6,0.1-0.9,0.2s-0.5,0.2-0.6,0.4
	c-0.2,0.2-0.2,0.4-0.2,0.7c0,0.4,0.2,0.7,0.5,1C340.9,480.8,341.3,480.9,341.8,480.9z M341.4,482.3c-0.5,0-1-0.1-1.5-0.3
	s-0.8-0.5-1.1-0.9c-0.3-0.4-0.4-0.9-0.4-1.5c0-0.5,0.1-0.9,0.3-1.2s0.5-0.6,0.8-0.8c0.3-0.2,0.7-0.3,1.1-0.4
	c0.4-0.1,0.8-0.2,1.2-0.2c0.5-0.1,1-0.1,1.3-0.1c0.3,0,0.6-0.1,0.7-0.2c0.1-0.1,0.2-0.2,0.2-0.4v0c0-0.5-0.1-0.9-0.4-1.1
	s-0.7-0.4-1.2-0.4c-0.6,0-1,0.1-1.4,0.4c-0.3,0.2-0.5,0.5-0.7,0.8l-1.6-0.4c0.2-0.5,0.5-1,0.8-1.3c0.4-0.3,0.8-0.6,1.3-0.7
	c0.5-0.1,1-0.2,1.5-0.2c0.4,0,0.7,0,1.1,0.1c0.4,0.1,0.8,0.2,1.1,0.4c0.3,0.2,0.6,0.5,0.9,0.9c0.2,0.4,0.3,0.9,0.3,1.5v5.8h-1.7
	v-1.2H344c-0.1,0.2-0.3,0.4-0.5,0.6s-0.5,0.4-0.9,0.5C342.3,482.2,341.9,482.3,341.4,482.3z M329,480.9c0.5,0,1-0.1,1.3-0.4
	s0.6-0.6,0.8-1.1c0.2-0.5,0.3-1,0.3-1.5s-0.1-1.1-0.3-1.5c-0.2-0.5-0.4-0.9-0.8-1.1s-0.8-0.4-1.3-0.4s-1,0.1-1.3,0.4
	c-0.4,0.3-0.6,0.7-0.8,1.1s-0.2,1-0.2,1.5c0,0.6,0.1,1.1,0.2,1.5s0.4,0.8,0.8,1.1C328,480.7,328.5,480.9,329,480.9z M329,482.3
	c-0.8,0-1.5-0.2-2.1-0.6c-0.6-0.4-1.1-0.9-1.4-1.6c-0.3-0.7-0.5-1.5-0.5-2.4c0-0.9,0.2-1.7,0.5-2.4s0.8-1.2,1.4-1.6
	c0.6-0.4,1.3-0.6,2.1-0.6s1.5,0.2,2.1,0.6c0.6,0.4,1.1,0.9,1.4,1.6c0.3,0.7,0.5,1.5,0.5,2.4c0,0.9-0.2,1.7-0.5,2.4
	c-0.3,0.7-0.8,1.2-1.4,1.6C330.6,482.1,329.8,482.3,329,482.3z M320.2,471.3h1.7v8.3c0,0.3,0,0.6,0.1,0.7s0.2,0.3,0.4,0.3
	c0.2,0.1,0.3,0.1,0.5,0.1c0.1,0,0.3,0,0.4,0c0.1,0,0.2,0,0.2,0l0.3,1.4c-0.1,0-0.2,0.1-0.4,0.1c-0.2,0-0.4,0.1-0.7,0.1
	c-0.5,0-0.9-0.1-1.2-0.2c-0.4-0.2-0.7-0.4-0.9-0.8c-0.2-0.4-0.4-0.8-0.4-1.3L320.2,471.3L320.2,471.3z M323.7,473.4v1.4H319v-1.4
	H323.7z M309.4,480.8c0.5,0,0.9-0.1,1.2-0.4s0.6-0.6,0.8-1.1c0.2-0.5,0.3-1,0.3-1.6s-0.1-1.1-0.3-1.6c-0.2-0.5-0.4-0.8-0.8-1.1
	s-0.8-0.4-1.2-0.4c-0.5,0-0.9,0.1-1.3,0.4s-0.6,0.6-0.8,1.1c-0.2,0.5-0.3,1-0.3,1.5c0,0.6,0.1,1.1,0.3,1.6c0.2,0.5,0.4,0.8,0.8,1.1
	C308.5,480.7,308.9,480.8,309.4,480.8z M309,482.3c-0.7,0-1.3-0.2-1.9-0.5c-0.5-0.4-1-0.9-1.3-1.5c-0.3-0.7-0.5-1.5-0.5-2.4
	s0.2-1.8,0.5-2.4c0.3-0.7,0.8-1.2,1.3-1.5c0.5-0.4,1.2-0.5,1.9-0.5c0.5,0,1,0.1,1.3,0.3s0.6,0.4,0.8,0.6c0.2,0.2,0.3,0.5,0.4,0.6
	h0.1v-4.3h1.7v11.6h-1.7v-1.4h-0.1c-0.1,0.2-0.2,0.4-0.4,0.6c-0.2,0.2-0.5,0.5-0.8,0.6C310,482.2,309.6,482.3,309,482.3z
	 M300.3,482.3c-0.9,0-1.6-0.2-2.2-0.5s-1.1-0.9-1.4-1.6c-0.3-0.7-0.5-1.5-0.5-2.4c0-0.9,0.2-1.7,0.5-2.4c0.3-0.7,0.8-1.2,1.4-1.6
	c0.6-0.4,1.3-0.6,2.1-0.6c0.5,0,1,0.1,1.4,0.2s0.9,0.4,1.2,0.8c0.4,0.4,0.7,0.8,0.9,1.4c0.2,0.5,0.3,1.2,0.3,2v0.6h-6.9V477h5.3
	c0-0.5-0.1-0.8-0.3-1.2s-0.4-0.6-0.8-0.8s-0.7-0.3-1.1-0.3c-0.5,0-0.9,0.1-1.2,0.4c-0.4,0.2-0.6,0.5-0.8,0.9
	c-0.2,0.4-0.3,0.8-0.3,1.2v1c0,0.6,0.1,1.1,0.3,1.5s0.5,0.7,0.9,0.9c0.4,0.2,0.8,0.3,1.3,0.3c0.3,0,0.6,0,0.9-0.1
	c0.3-0.1,0.5-0.2,0.7-0.4c0.2-0.2,0.3-0.4,0.4-0.7l1.6,0.3c-0.1,0.5-0.4,0.9-0.7,1.2c-0.3,0.4-0.7,0.6-1.2,0.8
	C301.5,482.2,301,482.3,300.3,482.3z M291.5,471.3h1.7v8.3c0,0.3,0,0.6,0.1,0.7s0.2,0.3,0.4,0.3c0.2,0.1,0.3,0.1,0.5,0.1
	c0.1,0,0.3,0,0.4,0c0.1,0,0.2,0,0.2,0l0.3,1.4c-0.1,0-0.2,0.1-0.4,0.1c-0.2,0-0.4,0.1-0.7,0.1c-0.5,0-0.9-0.1-1.2-0.2
	c-0.4-0.2-0.7-0.4-0.9-0.8c-0.2-0.4-0.4-0.8-0.4-1.3L291.5,471.3L291.5,471.3z M294.9,473.4v1.4h-4.8v-1.4H294.9z M284.8,480.9
	c0.5,0,0.9-0.1,1.2-0.3c0.3-0.2,0.6-0.4,0.8-0.7c0.2-0.3,0.3-0.6,0.3-1v-1.1c-0.1,0.1-0.2,0.1-0.4,0.2c-0.2,0-0.4,0.1-0.6,0.1
	c-0.2,0-0.4,0.1-0.6,0.1c-0.2,0-0.4,0-0.5,0.1c-0.3,0-0.6,0.1-0.9,0.2s-0.5,0.2-0.6,0.4c-0.2,0.2-0.2,0.4-0.2,0.7
	c0,0.4,0.2,0.7,0.5,1C284,480.8,284.4,480.9,284.8,480.9z M284.5,482.3c-0.5,0-1-0.1-1.5-0.3s-0.8-0.5-1.1-0.9
	c-0.3-0.4-0.4-0.9-0.4-1.5c0-0.5,0.1-0.9,0.3-1.2s0.5-0.6,0.8-0.8s0.7-0.3,1.1-0.4c0.4-0.1,0.8-0.2,1.2-0.2c0.5-0.1,1-0.1,1.3-0.1
	c0.3,0,0.6-0.1,0.7-0.2c0.1-0.1,0.2-0.2,0.2-0.4v0c0-0.5-0.1-0.9-0.4-1.1s-0.7-0.4-1.2-0.4c-0.6,0-1,0.1-1.4,0.4
	c-0.3,0.2-0.5,0.5-0.7,0.8l-1.6-0.4c0.2-0.5,0.5-1,0.8-1.3c0.4-0.3,0.8-0.6,1.3-0.7c0.5-0.1,1-0.2,1.5-0.2c0.4,0,0.7,0,1.1,0.1
	c0.4,0.1,0.8,0.2,1.1,0.4c0.3,0.2,0.6,0.5,0.9,0.9c0.2,0.4,0.3,0.9,0.3,1.5v5.8h-1.7v-1.2h-0.1c-0.1,0.2-0.3,0.4-0.5,0.6
	s-0.5,0.4-0.9,0.5C285.4,482.2,285,482.3,284.5,482.3z M276.7,482.3c-0.8,0-1.6-0.2-2.2-0.6c-0.6-0.4-1.1-0.9-1.4-1.6
	s-0.5-1.5-0.5-2.3c0-0.9,0.2-1.7,0.5-2.4s0.8-1.2,1.4-1.6c0.6-0.4,1.3-0.6,2.1-0.6c0.7,0,1.2,0.1,1.8,0.4c0.5,0.2,0.9,0.6,1.3,1
	s0.5,1,0.6,1.5h-1.6c-0.1-0.4-0.3-0.8-0.6-1.1s-0.8-0.4-1.3-0.4c-0.5,0-0.9,0.1-1.2,0.4c-0.4,0.2-0.6,0.6-0.8,1.1
	c-0.2,0.5-0.3,1-0.3,1.6c0,0.6,0.1,1.2,0.3,1.6s0.5,0.8,0.8,1.1c0.4,0.2,0.8,0.4,1.3,0.4c0.3,0,0.6-0.1,0.9-0.2
	c0.3-0.1,0.5-0.3,0.7-0.5c0.2-0.2,0.3-0.5,0.4-0.8h1.6c-0.1,0.6-0.2,1.1-0.5,1.5s-0.7,0.8-1.2,1C278,482.1,277.4,482.3,276.7,482.3z
	 M270.1,472c-0.3,0-0.5-0.1-0.8-0.3c-0.2-0.2-0.3-0.4-0.3-0.7s0.1-0.5,0.3-0.7s0.5-0.3,0.8-0.3c0.3,0,0.5,0.1,0.8,0.3
	c0.2,0.2,0.3,0.4,0.3,0.7s-0.1,0.5-0.3,0.7C270.6,471.9,270.4,472,270.1,472z M269.2,482.1v-8.7h1.7v8.7H269.2z M267.1,470.5v11.6
	h-1.7v-11.6H267.1z M257.4,477.7c0,0.6,0.1,1.1,0.3,1.6s0.4,0.8,0.8,1.1c0.3,0.3,0.8,0.4,1.2,0.4c0.5,0,0.9-0.1,1.3-0.4
	s0.6-0.6,0.8-1.1c0.2-0.5,0.3-1,0.3-1.6c0-0.6-0.1-1.1-0.3-1.5s-0.4-0.8-0.8-1.1s-0.8-0.4-1.3-0.4c-0.5,0-0.9,0.1-1.2,0.4
	s-0.6,0.6-0.8,1.1C257.5,476.6,257.4,477.1,257.4,477.7z M255.7,485.4v-12h1.7v1.4h0.1c0.1-0.2,0.2-0.4,0.4-0.6s0.4-0.5,0.8-0.6
	c0.3-0.2,0.8-0.3,1.3-0.3c0.7,0,1.3,0.2,1.9,0.5c0.5,0.4,1,0.9,1.3,1.5c0.3,0.7,0.5,1.5,0.5,2.4s-0.2,1.8-0.5,2.4
	c-0.3,0.7-0.8,1.2-1.3,1.5s-1.2,0.5-1.9,0.5c-0.5,0-1-0.1-1.3-0.3c-0.3-0.2-0.6-0.4-0.8-0.6c-0.2-0.2-0.3-0.5-0.4-0.6h-0.1v4.6
	L255.7,485.4L255.7,485.4z M250.3,482.3c-0.9,0-1.6-0.2-2.2-0.5s-1.1-0.9-1.4-1.6c-0.3-0.7-0.5-1.5-0.5-2.4c0-0.9,0.2-1.7,0.5-2.4
	c0.3-0.7,0.8-1.2,1.4-1.6c0.6-0.4,1.3-0.6,2.1-0.6c0.5,0,1,0.1,1.4,0.2c0.5,0.2,0.9,0.4,1.2,0.8c0.4,0.4,0.7,0.8,0.9,1.4
	c0.2,0.5,0.3,1.2,0.3,2v0.6h-6.9V477h5.3c0-0.5-0.1-0.8-0.3-1.2c-0.2-0.4-0.4-0.6-0.8-0.8s-0.7-0.3-1.1-0.3c-0.5,0-0.9,0.1-1.2,0.4
	c-0.4,0.2-0.6,0.5-0.8,0.9c-0.2,0.4-0.3,0.8-0.3,1.2v1c0,0.6,0.1,1.1,0.3,1.5c0.2,0.4,0.5,0.7,0.9,0.9c0.4,0.2,0.8,0.3,1.3,0.3
	c0.3,0,0.6,0,0.9-0.1c0.3-0.1,0.5-0.2,0.7-0.4c0.2-0.2,0.3-0.4,0.4-0.7l1.6,0.3c-0.1,0.5-0.4,0.9-0.7,1.2c-0.3,0.4-0.7,0.6-1.2,0.8
	C251.5,482.2,250.9,482.3,250.3,482.3z M240.9,482.1v-8.7h1.6v1.4h0.1c0.2-0.5,0.4-0.8,0.8-1.1c0.4-0.3,0.9-0.4,1.4-0.4
	c0.1,0,0.2,0,0.4,0c0.1,0,0.3,0,0.4,0v1.6c-0.1,0-0.2,0-0.4-0.1c-0.2,0-0.4,0-0.5,0c-0.4,0-0.8,0.1-1.1,0.3
	c-0.3,0.2-0.6,0.4-0.7,0.7c-0.2,0.3-0.3,0.6-0.3,1v5.3L240.9,482.1L240.9,482.1z M231.3,482.3c-0.9,0-1.6-0.2-2.2-0.5
	s-1.1-0.9-1.4-1.6c-0.3-0.7-0.5-1.5-0.5-2.4c0-0.9,0.2-1.7,0.5-2.4c0.3-0.7,0.8-1.2,1.4-1.6c0.6-0.4,1.3-0.6,2.1-0.6
	c0.5,0,1,0.1,1.4,0.2c0.5,0.2,0.9,0.4,1.2,0.8c0.4,0.4,0.7,0.8,0.9,1.4c0.2,0.5,0.3,1.2,0.3,2v0.6h-6.9V477h5.3
	c0-0.5-0.1-0.8-0.3-1.2c-0.2-0.4-0.4-0.6-0.8-0.8s-0.7-0.3-1.1-0.3c-0.5,0-0.9,0.1-1.2,0.4c-0.4,0.2-0.6,0.5-0.8,0.9
	c-0.2,0.4-0.3,0.8-0.3,1.2v1c0,0.6,0.1,1.1,0.3,1.5c0.2,0.4,0.5,0.7,0.9,0.9c0.4,0.2,0.8,0.3,1.3,0.3c0.3,0,0.6,0,0.9-0.1
	c0.3-0.1,0.5-0.2,0.7-0.4c0.2-0.2,0.3-0.4,0.4-0.7l1.6,0.3c-0.1,0.5-0.4,0.9-0.7,1.2c-0.3,0.4-0.7,0.6-1.2,0.8
	C232.5,482.2,232,482.3,231.3,482.3z M221.9,482.1v-8.7h1.6v1.4h0.1c0.2-0.5,0.4-0.8,0.8-1.1c0.4-0.3,0.9-0.4,1.4-0.4
	c0.1,0,0.2,0,0.4,0c0.1,0,0.3,0,0.4,0v1.6c-0.1,0-0.2,0-0.4-0.1c-0.2,0-0.4,0-0.5,0c-0.4,0-0.8,0.1-1.1,0.3
	c-0.3,0.2-0.6,0.4-0.7,0.7c-0.2,0.3-0.3,0.6-0.3,1v5.3L221.9,482.1L221.9,482.1z M215.9,480.9c0.5,0,0.9-0.1,1.2-0.3
	c0.3-0.2,0.6-0.4,0.8-0.7c0.2-0.3,0.3-0.6,0.3-1v-1.1c-0.1,0.1-0.2,0.1-0.4,0.2c-0.2,0-0.4,0.1-0.6,0.1c-0.2,0-0.4,0.1-0.6,0.1
	s-0.4,0-0.5,0.1c-0.3,0-0.6,0.1-0.9,0.2c-0.3,0.1-0.5,0.2-0.6,0.4c-0.2,0.2-0.2,0.4-0.2,0.7c0,0.4,0.2,0.7,0.5,1
	C215,480.8,215.4,480.9,215.9,480.9z M215.5,482.3c-0.6,0-1.1-0.1-1.5-0.3s-0.8-0.5-1.1-0.9c-0.3-0.4-0.4-0.9-0.4-1.5
	c0-0.5,0.1-0.9,0.3-1.2s0.4-0.6,0.8-0.8s0.7-0.3,1.1-0.4c0.4-0.1,0.8-0.2,1.2-0.2c0.5-0.1,0.9-0.1,1.3-0.1c0.3,0,0.6-0.1,0.7-0.2
	c0.1-0.1,0.2-0.2,0.2-0.4v0c0-0.5-0.1-0.9-0.4-1.1s-0.7-0.4-1.2-0.4c-0.6,0-1,0.1-1.4,0.4s-0.6,0.5-0.7,0.8l-1.6-0.4
	c0.2-0.5,0.5-1,0.8-1.3c0.4-0.3,0.8-0.6,1.3-0.7c0.5-0.1,1-0.2,1.5-0.2c0.4,0,0.7,0,1.1,0.1s0.8,0.2,1.1,0.4
	c0.3,0.2,0.6,0.5,0.9,0.9c0.2,0.4,0.3,0.9,0.3,1.5v5.8h-1.7v-1.2h-0.1c-0.1,0.2-0.3,0.4-0.5,0.6s-0.5,0.4-0.9,0.5
	C216.4,482.2,216,482.3,215.5,482.3z M206.8,470.5v11.6h-1.7v-11.6H206.8z M199.7,482.3c-0.9,0-1.6-0.2-2.2-0.5s-1.1-0.9-1.4-1.6
	c-0.3-0.7-0.5-1.5-0.5-2.4c0-0.9,0.2-1.7,0.5-2.4c0.3-0.7,0.8-1.2,1.4-1.6c0.6-0.4,1.3-0.6,2.1-0.6c0.5,0,1,0.1,1.4,0.2
	c0.5,0.2,0.9,0.4,1.2,0.8c0.4,0.4,0.7,0.8,0.9,1.4c0.2,0.5,0.3,1.2,0.3,2v0.6h-6.9V477h5.3c0-0.5-0.1-0.8-0.3-1.2
	c-0.2-0.4-0.4-0.6-0.8-0.8s-0.7-0.3-1.1-0.3c-0.5,0-0.9,0.1-1.2,0.4c-0.4,0.2-0.6,0.5-0.8,0.9c-0.2,0.4-0.3,0.8-0.3,1.2v1
	c0,0.6,0.1,1.1,0.3,1.5c0.2,0.4,0.5,0.7,0.9,0.9c0.4,0.2,0.8,0.3,1.3,0.3c0.3,0,0.6,0,0.9-0.1c0.3-0.1,0.5-0.2,0.7-0.4
	s0.3-0.4,0.4-0.7l1.6,0.3c-0.1,0.5-0.4,0.9-0.7,1.2c-0.3,0.4-0.7,0.6-1.2,0.8C200.9,482.2,200.3,482.3,199.7,482.3z M189.7,480.8
	c0.5,0,0.9-0.1,1.2-0.4c0.3-0.3,0.6-0.6,0.8-1.1c0.2-0.5,0.3-1,0.3-1.6s-0.1-1.1-0.3-1.6c-0.2-0.5-0.4-0.8-0.8-1.1
	c-0.3-0.2-0.8-0.4-1.2-0.4c-0.5,0-0.9,0.1-1.3,0.4s-0.6,0.6-0.8,1.1s-0.3,1-0.3,1.5c0,0.6,0.1,1.1,0.3,1.6s0.4,0.8,0.8,1.1
	C188.8,480.7,189.2,480.8,189.7,480.8z M189.3,482.3c-0.7,0-1.3-0.2-1.9-0.5c-0.6-0.4-1-0.9-1.3-1.5c-0.3-0.7-0.5-1.5-0.5-2.4
	s0.2-1.8,0.5-2.4c0.3-0.7,0.8-1.2,1.3-1.5c0.6-0.4,1.2-0.5,1.9-0.5c0.5,0,1,0.1,1.3,0.3s0.6,0.4,0.8,0.6c0.2,0.2,0.3,0.5,0.4,0.6
	h0.1v-4.3h1.7v11.6H192v-1.4h-0.1c-0.1,0.2-0.2,0.4-0.4,0.6c-0.2,0.2-0.4,0.5-0.8,0.6S189.9,482.3,189.3,482.3z M180.3,480.9
	c0.5,0,1-0.1,1.3-0.4s0.6-0.6,0.8-1.1c0.2-0.5,0.3-1,0.3-1.5s-0.1-1.1-0.3-1.5c-0.2-0.5-0.4-0.9-0.8-1.1s-0.8-0.4-1.3-0.4
	c-0.5,0-1,0.1-1.3,0.4c-0.4,0.3-0.6,0.7-0.8,1.1s-0.2,1-0.2,1.5c0,0.6,0.1,1.1,0.2,1.5s0.4,0.8,0.8,1.1S179.8,480.9,180.3,480.9z
	 M180.3,482.3c-0.8,0-1.5-0.2-2.1-0.6s-1.1-0.9-1.4-1.6s-0.5-1.5-0.5-2.4c0-0.9,0.2-1.7,0.5-2.4s0.8-1.2,1.4-1.6s1.3-0.6,2.1-0.6
	c0.8,0,1.5,0.2,2.1,0.6s1.1,0.9,1.4,1.6s0.5,1.5,0.5,2.4c0,0.9-0.2,1.7-0.5,2.4c-0.3,0.7-0.8,1.2-1.4,1.6S181.1,482.3,180.3,482.3z
	 M162.6,482.1v-8.7h1.6v1.4h0.1c0.2-0.5,0.5-0.9,0.9-1.1c0.4-0.3,0.9-0.4,1.5-0.4c0.6,0,1.1,0.1,1.5,0.4s0.7,0.6,0.9,1.1h0.1
	c0.2-0.5,0.5-0.8,1-1.1c0.4-0.3,1-0.4,1.6-0.4c0.8,0,1.4,0.2,1.9,0.7c0.5,0.5,0.8,1.2,0.8,2.2v5.9h-1.7v-5.7c0-0.6-0.2-1-0.5-1.3
	c-0.3-0.3-0.7-0.4-1.1-0.4c-0.6,0-1,0.2-1.3,0.5s-0.5,0.8-0.5,1.3v5.6h-1.7v-5.8c0-0.5-0.1-0.9-0.4-1.1s-0.7-0.4-1.1-0.4
	c-0.3,0-0.6,0.1-0.9,0.3s-0.5,0.4-0.6,0.7c-0.2,0.3-0.2,0.6-0.2,1v5.4L162.6,482.1L162.6,482.1z M401.4,456.8c0.5,0,0.9-0.1,1.2-0.4
	s0.6-0.6,0.8-1.1c0.2-0.5,0.3-1,0.3-1.6s-0.1-1.1-0.3-1.6c-0.2-0.5-0.4-0.8-0.8-1.1s-0.8-0.4-1.2-0.4c-0.5,0-0.9,0.1-1.3,0.4
	s-0.6,0.6-0.8,1.1c-0.2,0.5-0.3,1-0.3,1.5c0,0.6,0.1,1.1,0.3,1.6c0.2,0.5,0.4,0.8,0.8,1.1C400.5,456.7,400.9,456.8,401.4,456.8z
	 M401,458.3c-0.7,0-1.3-0.2-1.9-0.5c-0.5-0.4-1-0.9-1.3-1.5c-0.3-0.7-0.5-1.5-0.5-2.4s0.2-1.8,0.5-2.4c0.3-0.7,0.8-1.2,1.3-1.5
	c0.5-0.4,1.2-0.5,1.9-0.5c0.5,0,1,0.1,1.3,0.3s0.6,0.4,0.8,0.6c0.2,0.2,0.3,0.5,0.4,0.6h0.1v-4.3h1.7v11.6h-1.7v-1.4h-0.1
	c-0.1,0.2-0.2,0.4-0.4,0.6c-0.2,0.2-0.5,0.5-0.8,0.6C402,458.2,401.6,458.3,401,458.3z M392.3,458.3c-0.9,0-1.6-0.2-2.2-0.5
	s-1.1-0.9-1.4-1.6c-0.3-0.7-0.5-1.5-0.5-2.4c0-0.9,0.2-1.7,0.5-2.4c0.3-0.7,0.8-1.2,1.4-1.6c0.6-0.4,1.3-0.6,2.1-0.6
	c0.5,0,1,0.1,1.4,0.2s0.9,0.4,1.2,0.8c0.4,0.4,0.7,0.8,0.9,1.4c0.2,0.5,0.3,1.2,0.3,2v0.6h-6.9V453h5.3c0-0.5-0.1-0.8-0.3-1.2
	s-0.4-0.6-0.8-0.8s-0.7-0.3-1.1-0.3c-0.5,0-0.9,0.1-1.2,0.4c-0.4,0.2-0.6,0.5-0.8,0.9c-0.2,0.4-0.3,0.8-0.3,1.2v1
	c0,0.6,0.1,1.1,0.3,1.5s0.5,0.7,0.9,0.9c0.4,0.2,0.8,0.3,1.3,0.3c0.3,0,0.6,0,0.9-0.1c0.3-0.1,0.5-0.2,0.7-0.4
	c0.2-0.2,0.3-0.4,0.4-0.7l1.6,0.3c-0.1,0.5-0.4,0.9-0.7,1.2c-0.3,0.4-0.7,0.6-1.2,0.8C393.5,458.2,393,458.3,392.3,458.3z
	 M382.9,458.1v-8.7h1.6v1.4h0.1c0.2-0.5,0.4-0.8,0.8-1.1c0.4-0.3,0.9-0.4,1.4-0.4c0.1,0,0.2,0,0.4,0s0.3,0,0.4,0v1.6
	c-0.1,0-0.2,0-0.4-0.1c-0.2,0-0.4,0-0.5,0c-0.4,0-0.8,0.1-1.1,0.3s-0.6,0.4-0.7,0.7c-0.2,0.3-0.3,0.6-0.3,1v5.3L382.9,458.1
	L382.9,458.1z M376.9,456.9c0.5,0,0.9-0.1,1.2-0.3c0.3-0.2,0.6-0.4,0.8-0.7c0.2-0.3,0.3-0.6,0.3-1v-1.1c-0.1,0.1-0.2,0.1-0.4,0.2
	c-0.2,0-0.4,0.1-0.6,0.1c-0.2,0-0.4,0.1-0.6,0.1c-0.2,0-0.4,0-0.5,0.1c-0.3,0-0.6,0.1-0.9,0.2s-0.5,0.2-0.6,0.4
	c-0.2,0.2-0.2,0.4-0.2,0.7c0,0.4,0.2,0.7,0.5,1C376,456.8,376.4,456.9,376.9,456.9z M376.5,458.3c-0.5,0-1-0.1-1.5-0.3
	s-0.8-0.5-1.1-0.9c-0.3-0.4-0.4-0.9-0.4-1.5c0-0.5,0.1-0.9,0.3-1.2s0.5-0.6,0.8-0.8c0.3-0.2,0.7-0.3,1.1-0.4
	c0.4-0.1,0.8-0.2,1.2-0.2c0.5-0.1,1-0.1,1.3-0.1c0.3,0,0.6-0.1,0.7-0.2c0.1-0.1,0.2-0.2,0.2-0.4v0c0-0.5-0.1-0.9-0.4-1.1
	s-0.7-0.4-1.2-0.4c-0.6,0-1,0.1-1.4,0.4c-0.3,0.2-0.5,0.5-0.7,0.8l-1.6-0.4c0.2-0.5,0.5-1,0.8-1.3c0.4-0.3,0.8-0.6,1.3-0.7
	c0.5-0.1,1-0.2,1.5-0.2c0.4,0,0.7,0,1.1,0.1c0.4,0.1,0.8,0.2,1.1,0.4c0.3,0.2,0.6,0.5,0.9,0.9c0.2,0.4,0.3,0.9,0.3,1.5v5.8h-1.7
	v-1.2h-0.1c-0.1,0.2-0.3,0.4-0.5,0.6s-0.5,0.4-0.9,0.5C377.4,458.2,377,458.3,376.5,458.3z M366.2,452.9v5.2h-1.7v-11.6h1.7v4.3h0.1
	c0.2-0.5,0.5-0.8,0.9-1.1s1-0.4,1.6-0.4c0.6,0,1.1,0.1,1.6,0.4s0.8,0.6,1,1.1c0.2,0.5,0.4,1.1,0.4,1.8v5.5h-1.7v-5.4
	c0-0.6-0.2-1.1-0.5-1.5c-0.3-0.4-0.8-0.5-1.4-0.5c-0.4,0-0.8,0.1-1.1,0.3c-0.3,0.2-0.6,0.4-0.7,0.8
	C366.3,452.1,366.2,452.5,366.2,452.9z M362.7,451.5l-1.5,0.3c-0.1-0.2-0.2-0.4-0.3-0.6c-0.1-0.2-0.3-0.3-0.6-0.4
	c-0.2-0.1-0.5-0.2-0.9-0.2c-0.5,0-0.9,0.1-1.2,0.3c-0.3,0.2-0.5,0.5-0.5,0.8c0,0.3,0.1,0.5,0.3,0.7c0.2,0.2,0.6,0.3,1,0.4l1.4,0.3
	c0.8,0.2,1.4,0.5,1.8,0.9c0.4,0.4,0.6,0.9,0.6,1.5c0,0.5-0.1,1-0.5,1.4c-0.3,0.4-0.7,0.7-1.3,1c-0.5,0.2-1.1,0.4-1.9,0.4
	c-1,0-1.8-0.2-2.4-0.6c-0.6-0.4-1-1-1.1-1.8l1.6-0.2c0.1,0.4,0.3,0.8,0.6,1s0.7,0.3,1.2,0.3c0.6,0,1-0.1,1.3-0.4
	c0.3-0.2,0.5-0.5,0.5-0.9c0-0.3-0.1-0.5-0.3-0.7c-0.2-0.2-0.5-0.3-0.9-0.4l-1.5-0.3c-0.8-0.2-1.4-0.5-1.8-0.9
	c-0.4-0.4-0.6-0.9-0.6-1.5c0-0.5,0.1-1,0.4-1.4c0.3-0.4,0.7-0.7,1.2-0.9c0.5-0.2,1.1-0.3,1.7-0.3c0.9,0,1.7,0.2,2.2,0.6
	C362.1,450.3,362.5,450.8,362.7,451.5z M346.6,458.3c-0.9,0-1.6-0.2-2.2-0.5s-1.1-0.9-1.4-1.6c-0.3-0.7-0.5-1.5-0.5-2.4
	c0-0.9,0.2-1.7,0.5-2.4c0.3-0.7,0.8-1.2,1.4-1.6c0.6-0.4,1.3-0.6,2.1-0.6c0.5,0,1,0.1,1.4,0.2s0.9,0.4,1.2,0.8
	c0.4,0.4,0.7,0.8,0.9,1.4c0.2,0.5,0.3,1.2,0.3,2v0.6h-6.9V453h5.3c0-0.5-0.1-0.8-0.3-1.2s-0.4-0.6-0.8-0.8s-0.7-0.3-1.1-0.3
	c-0.5,0-0.9,0.1-1.2,0.4c-0.4,0.2-0.6,0.5-0.8,0.9c-0.2,0.4-0.3,0.8-0.3,1.2v1c0,0.6,0.1,1.1,0.3,1.5s0.5,0.7,0.9,0.9
	c0.4,0.2,0.8,0.3,1.3,0.3c0.3,0,0.6,0,0.9-0.1c0.3-0.1,0.5-0.2,0.7-0.4c0.2-0.2,0.3-0.4,0.4-0.7l1.6,0.3c-0.1,0.5-0.4,0.9-0.7,1.2
	c-0.3,0.4-0.7,0.6-1.2,0.8C347.8,458.2,347.2,458.3,346.6,458.3z M335.1,452.9v5.2h-1.7v-11.6h1.7v4.3h0.1c0.2-0.5,0.5-0.8,0.9-1.1
	s1-0.4,1.6-0.4c0.6,0,1.1,0.1,1.6,0.4s0.8,0.6,1,1.1c0.2,0.5,0.4,1.1,0.4,1.8v5.5h-1.7v-5.4c0-0.6-0.2-1.1-0.5-1.5
	c-0.3-0.4-0.8-0.5-1.4-0.5c-0.4,0-0.8,0.1-1.1,0.3c-0.3,0.2-0.6,0.4-0.7,0.8C335.2,452.1,335.1,452.5,335.1,452.9z M328,447.3h1.7
	v8.3c0,0.3,0,0.6,0.1,0.7s0.2,0.3,0.4,0.3c0.2,0.1,0.3,0.1,0.5,0.1c0.1,0,0.3,0,0.4,0c0.1,0,0.2,0,0.2,0l0.3,1.4
	c-0.1,0-0.2,0.1-0.4,0.1c-0.2,0-0.4,0.1-0.7,0.1c-0.5,0-0.9-0.1-1.2-0.2c-0.4-0.2-0.7-0.4-0.9-0.8c-0.2-0.4-0.4-0.8-0.4-1.3
	L328,447.3L328,447.3z M331.5,449.4v1.4h-4.8v-1.4H331.5z M317.6,456.9c0.5,0,1-0.1,1.3-0.4s0.6-0.6,0.8-1.1c0.2-0.5,0.3-1,0.3-1.5
	s-0.1-1.1-0.3-1.5c-0.2-0.5-0.4-0.9-0.8-1.1s-0.8-0.4-1.3-0.4s-1,0.1-1.3,0.4c-0.4,0.3-0.6,0.7-0.8,1.1s-0.2,1-0.2,1.5
	c0,0.6,0.1,1.1,0.2,1.5s0.4,0.8,0.8,1.1C316.6,456.7,317.1,456.9,317.6,456.9z M317.6,458.3c-0.8,0-1.5-0.2-2.1-0.6
	c-0.6-0.4-1.1-0.9-1.4-1.6c-0.3-0.7-0.5-1.5-0.5-2.4c0-0.9,0.2-1.7,0.5-2.4s0.8-1.2,1.4-1.6c0.6-0.4,1.3-0.6,2.1-0.6
	s1.5,0.2,2.1,0.6c0.6,0.4,1.1,0.9,1.4,1.6c0.3,0.7,0.5,1.5,0.5,2.4c0,0.9-0.2,1.7-0.5,2.4c-0.3,0.7-0.8,1.2-1.4,1.6
	S318.4,458.3,317.6,458.3z M308.8,447.3h1.7v8.3c0,0.3,0,0.6,0.1,0.7s0.2,0.3,0.4,0.3c0.2,0.1,0.3,0.1,0.5,0.1c0.1,0,0.3,0,0.4,0
	c0.1,0,0.2,0,0.2,0l0.3,1.4c-0.1,0-0.2,0.1-0.4,0.1c-0.2,0-0.4,0.1-0.7,0.1c-0.5,0-0.9-0.1-1.2-0.2c-0.4-0.2-0.7-0.4-0.9-0.8
	c-0.2-0.4-0.4-0.8-0.4-1.3L308.8,447.3L308.8,447.3z M312.3,449.4v1.4h-4.8v-1.4H312.3z M293,458.1l-2.6-8.7h1.8l1.7,6.4h0.1
	l1.7-6.4h1.8l1.7,6.4h0.1l1.7-6.4h1.8l-2.6,8.7h-1.7l-1.8-6.3h-0.1l-1.8,6.3H293z M285.7,458.3c-0.9,0-1.6-0.2-2.2-0.5
	s-1.1-0.9-1.4-1.6c-0.3-0.7-0.5-1.5-0.5-2.4c0-0.9,0.2-1.7,0.5-2.4c0.3-0.7,0.8-1.2,1.4-1.6c0.6-0.4,1.3-0.6,2.1-0.6
	c0.5,0,1,0.1,1.4,0.2s0.9,0.4,1.2,0.8c0.4,0.4,0.7,0.8,0.9,1.4c0.2,0.5,0.3,1.2,0.3,2v0.6h-6.9V453h5.3c0-0.5-0.1-0.8-0.3-1.2
	s-0.4-0.6-0.8-0.8s-0.7-0.3-1.1-0.3c-0.5,0-0.9,0.1-1.2,0.4c-0.4,0.2-0.6,0.5-0.8,0.9c-0.2,0.4-0.3,0.8-0.3,1.2v1
	c0,0.6,0.1,1.1,0.3,1.5s0.5,0.7,0.9,0.9c0.4,0.2,0.8,0.3,1.3,0.3c0.3,0,0.6,0,0.9-0.1c0.3-0.1,0.5-0.2,0.7-0.4
	c0.2-0.2,0.3-0.4,0.4-0.7l1.6,0.3c-0.1,0.5-0.4,0.9-0.7,1.2c-0.3,0.4-0.7,0.6-1.2,0.8C286.9,458.2,286.4,458.3,285.7,458.3z
	 M279,448c-0.3,0-0.5-0.1-0.8-0.3c-0.2-0.2-0.3-0.4-0.3-0.7s0.1-0.5,0.3-0.7s0.5-0.3,0.8-0.3c0.3,0,0.5,0.1,0.8,0.3
	c0.2,0.2,0.3,0.4,0.3,0.7s-0.1,0.5-0.3,0.7C279.5,447.9,279.3,448,279,448z M278.1,458.1v-8.7h1.7v8.7H278.1z M276.7,449.4l-3.2,8.7
	h-1.8l-3.2-8.7h1.8l2.2,6.7h0.1l2.2-6.7H276.7z M259.2,456.9c0.5,0,0.9-0.1,1.2-0.3c0.3-0.2,0.6-0.4,0.8-0.7c0.2-0.3,0.3-0.6,0.3-1
	v-1.1c-0.1,0.1-0.2,0.1-0.4,0.2c-0.2,0-0.4,0.1-0.6,0.1c-0.2,0-0.4,0.1-0.6,0.1c-0.2,0-0.4,0-0.5,0.1c-0.3,0-0.6,0.1-0.9,0.2
	s-0.5,0.2-0.6,0.4c-0.2,0.2-0.2,0.4-0.2,0.7c0,0.4,0.2,0.7,0.5,1C258.3,456.8,258.7,456.9,259.2,456.9z M258.8,458.3
	c-0.5,0-1-0.1-1.5-0.3s-0.8-0.5-1.1-0.9c-0.3-0.4-0.4-0.9-0.4-1.5c0-0.5,0.1-0.9,0.3-1.2c0.2-0.3,0.5-0.6,0.8-0.8
	c0.3-0.2,0.7-0.3,1.1-0.4c0.4-0.1,0.8-0.2,1.2-0.2c0.5-0.1,1-0.1,1.3-0.1c0.3,0,0.6-0.1,0.7-0.2c0.1-0.1,0.2-0.2,0.2-0.4v0
	c0-0.5-0.1-0.9-0.4-1.1s-0.7-0.4-1.2-0.4c-0.6,0-1,0.1-1.4,0.4c-0.3,0.2-0.5,0.5-0.7,0.8l-1.6-0.4c0.2-0.5,0.5-1,0.8-1.3
	c0.4-0.3,0.8-0.6,1.3-0.7c0.5-0.1,1-0.2,1.5-0.2c0.4,0,0.7,0,1.1,0.1c0.4,0.1,0.8,0.2,1.1,0.4c0.3,0.2,0.6,0.5,0.9,0.9
	c0.2,0.4,0.3,0.9,0.3,1.5v5.8h-1.7v-1.2h-0.1c-0.1,0.2-0.3,0.4-0.5,0.6s-0.5,0.4-0.9,0.5C259.7,458.2,259.3,458.3,258.8,458.3z
	 M238.2,458.1v-8.7h1.6v1.4h0.1c0.2-0.5,0.5-0.9,0.9-1.1c0.4-0.3,0.9-0.4,1.5-0.4c0.6,0,1.1,0.1,1.5,0.4s0.7,0.6,0.9,1.1h0.1
	c0.2-0.5,0.5-0.8,1-1.1c0.4-0.3,1-0.4,1.6-0.4c0.8,0,1.4,0.2,1.9,0.7c0.5,0.5,0.8,1.2,0.8,2.2v5.9h-1.7v-5.7c0-0.6-0.2-1-0.5-1.3
	c-0.3-0.3-0.7-0.4-1.1-0.4c-0.6,0-1,0.2-1.3,0.5s-0.5,0.8-0.5,1.3v5.6h-1.7v-5.8c0-0.5-0.1-0.9-0.4-1.1c-0.3-0.3-0.7-0.4-1.1-0.4
	c-0.3,0-0.6,0.1-0.9,0.3s-0.5,0.4-0.6,0.7c-0.2,0.3-0.2,0.6-0.2,1v5.4L238.2,458.1L238.2,458.1z M232.5,456.9c0.5,0,1-0.1,1.3-0.4
	s0.6-0.6,0.8-1.1c0.2-0.5,0.3-1,0.3-1.5s-0.1-1.1-0.3-1.5c-0.2-0.5-0.4-0.9-0.8-1.1s-0.8-0.4-1.3-0.4c-0.5,0-1,0.1-1.3,0.4
	c-0.4,0.3-0.6,0.7-0.8,1.1s-0.2,1-0.2,1.5c0,0.6,0.1,1.1,0.2,1.5s0.4,0.8,0.8,1.1C231.5,456.7,231.9,456.9,232.5,456.9z
	 M232.4,458.3c-0.8,0-1.5-0.2-2.1-0.6s-1.1-0.9-1.4-1.6s-0.5-1.5-0.5-2.4c0-0.9,0.2-1.7,0.5-2.4s0.8-1.2,1.4-1.6s1.3-0.6,2.1-0.6
	c0.8,0,1.5,0.2,2.1,0.6s1.1,0.9,1.4,1.6s0.5,1.5,0.5,2.4c0,0.9-0.2,1.7-0.5,2.4c-0.3,0.7-0.8,1.2-1.4,1.6S233.3,458.3,232.4,458.3z
	 M223.1,458.1v-8.7h1.6v1.4h0.1c0.2-0.5,0.4-0.8,0.8-1.1c0.4-0.3,0.9-0.4,1.4-0.4c0.1,0,0.2,0,0.4,0c0.1,0,0.3,0,0.4,0v1.6
	c-0.1,0-0.2,0-0.4-0.1c-0.2,0-0.4,0-0.5,0c-0.4,0-0.8,0.1-1.1,0.3c-0.3,0.2-0.6,0.4-0.7,0.7c-0.2,0.3-0.3,0.6-0.3,1v5.3L223.1,458.1
	L223.1,458.1z M218,458.1v-9.7c0-0.5,0.1-1,0.4-1.4s0.6-0.6,0.9-0.8c0.4-0.2,0.8-0.3,1.3-0.3c0.3,0,0.6,0,0.9,0.1
	c0.2,0,0.4,0.1,0.5,0.1l-0.4,1.4c-0.1,0-0.2,0-0.3-0.1c-0.1,0-0.3,0-0.4,0c-0.4,0-0.7,0.1-0.9,0.3c-0.2,0.2-0.3,0.5-0.3,0.9v9.5
	L218,458.1L218,458.1z M221.6,449.4v1.4h-4.9v-1.4H221.6z M211.5,451.5l-1.5,0.3c-0.1-0.2-0.2-0.4-0.3-0.6s-0.3-0.3-0.6-0.4
	c-0.2-0.1-0.5-0.2-0.9-0.2c-0.5,0-0.9,0.1-1.2,0.3c-0.3,0.2-0.5,0.5-0.5,0.8c0,0.3,0.1,0.5,0.3,0.7c0.2,0.2,0.6,0.3,1.1,0.4l1.4,0.3
	c0.8,0.2,1.4,0.5,1.8,0.9c0.4,0.4,0.6,0.9,0.6,1.5c0,0.5-0.1,1-0.4,1.4s-0.7,0.7-1.3,1c-0.5,0.2-1.1,0.4-1.9,0.4
	c-1,0-1.8-0.2-2.4-0.6c-0.6-0.4-1-1-1.1-1.8l1.6-0.2c0.1,0.4,0.3,0.8,0.6,1s0.7,0.3,1.2,0.3c0.6,0,1-0.1,1.3-0.4
	c0.3-0.2,0.5-0.5,0.5-0.9c0-0.3-0.1-0.5-0.3-0.7c-0.2-0.2-0.5-0.3-0.9-0.4l-1.5-0.3c-0.8-0.2-1.4-0.5-1.8-0.9s-0.6-0.9-0.6-1.5
	c0-0.5,0.1-1,0.4-1.4c0.3-0.4,0.7-0.7,1.2-0.9c0.5-0.2,1.1-0.3,1.7-0.3c0.9,0,1.7,0.2,2.2,0.6C210.9,450.3,211.3,450.8,211.5,451.5z
	 M199.9,447.3h1.7v8.3c0,0.3,0.1,0.6,0.1,0.7c0.1,0.2,0.2,0.3,0.4,0.3c0.2,0.1,0.3,0.1,0.5,0.1c0.1,0,0.3,0,0.4,0s0.2,0,0.2,0
	l0.3,1.4c-0.1,0-0.2,0.1-0.4,0.1c-0.2,0-0.4,0.1-0.7,0.1c-0.4,0-0.9-0.1-1.2-0.2s-0.7-0.4-0.9-0.8s-0.4-0.8-0.4-1.3L199.9,447.3
	L199.9,447.3z M203.4,449.4v1.4h-4.8v-1.4H203.4z M191.6,452.9v5.2h-1.7v-8.7h1.6v1.4h0.1c0.2-0.5,0.5-0.8,0.9-1.1
	c0.4-0.3,1-0.4,1.6-0.4c0.6,0,1.1,0.1,1.6,0.4c0.4,0.2,0.8,0.6,1,1.1c0.2,0.5,0.4,1.1,0.4,1.8v5.5h-1.7v-5.4c0-0.6-0.2-1.1-0.5-1.5
	c-0.3-0.4-0.8-0.5-1.4-0.5c-0.4,0-0.7,0.1-1.1,0.3c-0.3,0.2-0.5,0.4-0.7,0.8C191.7,452.1,191.6,452.5,191.6,452.9z M184.5,458.3
	c-0.9,0-1.6-0.2-2.2-0.5s-1.1-0.9-1.4-1.6c-0.3-0.7-0.5-1.5-0.5-2.4c0-0.9,0.2-1.7,0.5-2.4c0.3-0.7,0.8-1.2,1.4-1.6
	c0.6-0.4,1.3-0.6,2.1-0.6c0.5,0,1,0.1,1.4,0.2c0.5,0.2,0.9,0.4,1.2,0.8c0.4,0.4,0.7,0.8,0.9,1.4c0.2,0.5,0.3,1.2,0.3,2v0.6h-6.9V453
	h5.3c0-0.5-0.1-0.8-0.3-1.2c-0.2-0.4-0.4-0.6-0.8-0.8s-0.7-0.3-1.1-0.3c-0.5,0-0.9,0.1-1.2,0.4c-0.4,0.2-0.6,0.5-0.8,0.9
	c-0.2,0.4-0.3,0.8-0.3,1.2v1c0,0.6,0.1,1.1,0.3,1.5c0.2,0.4,0.5,0.7,0.9,0.9c0.4,0.2,0.8,0.3,1.3,0.3c0.3,0,0.6,0,0.9-0.1
	c0.3-0.1,0.5-0.2,0.7-0.4c0.2-0.2,0.3-0.4,0.4-0.7l1.6,0.3c-0.1,0.5-0.4,0.9-0.7,1.2c-0.3,0.4-0.7,0.6-1.2,0.8
	C185.7,458.2,185.1,458.3,184.5,458.3z M179.6,449.4l-3.2,8.7h-1.8l-3.2-8.7h1.8l2.2,6.7h0.1l2.2-6.7H179.6z M162.8,458.1v-11.6h7.3
	v1.5h-5.5v3.5h5.2v1.5h-5.2v3.6h5.6v1.5H162.8z"/>
<path class="st2" d="M712.2,159.7c0,0.6,0.1,1.1,0.3,1.6s0.4,0.8,0.8,1.1c0.3,0.3,0.8,0.4,1.2,0.4c0.5,0,0.9-0.1,1.3-0.4
	c0.3-0.3,0.6-0.6,0.8-1.1c0.2-0.5,0.3-1,0.3-1.6s-0.1-1.1-0.3-1.6s-0.4-0.8-0.8-1.1c-0.3-0.3-0.8-0.4-1.3-0.4
	c-0.5,0-0.9,0.1-1.2,0.4s-0.6,0.6-0.8,1.1S712.2,159.1,712.2,159.7z M710.6,164.1v-11.6h1.7v4.3h0.1c0.1-0.2,0.2-0.4,0.4-0.6
	s0.4-0.4,0.8-0.6c0.3-0.2,0.8-0.3,1.3-0.3c0.7,0,1.3,0.2,1.9,0.5c0.5,0.4,1,0.9,1.3,1.5c0.3,0.7,0.5,1.5,0.5,2.4s-0.2,1.8-0.5,2.4
	c-0.3,0.7-0.8,1.2-1.3,1.6s-1.2,0.5-1.9,0.5c-0.5,0-1-0.1-1.3-0.3c-0.3-0.2-0.6-0.4-0.8-0.6s-0.3-0.4-0.4-0.6h-0.1v1.4L710.6,164.1
	L710.6,164.1z M706.6,160.5v-5.1h1.7v8.7h-1.7v-1.5h-0.1c-0.2,0.5-0.5,0.9-1,1.2c-0.4,0.3-1,0.5-1.6,0.5c-0.6,0-1.1-0.1-1.5-0.4
	s-0.8-0.6-1-1.1s-0.4-1.1-0.4-1.8v-5.6h1.7v5.4c0,0.6,0.2,1.1,0.5,1.4c0.3,0.4,0.8,0.5,1.3,0.5c0.3,0,0.6-0.1,1-0.2s0.6-0.4,0.8-0.7
	C706.5,161.4,706.6,161,706.6,160.5z M699.2,157.5l-1.5,0.3c-0.1-0.2-0.2-0.4-0.3-0.6s-0.3-0.3-0.6-0.4s-0.5-0.2-0.9-0.2
	c-0.5,0-0.9,0.1-1.2,0.3s-0.5,0.5-0.5,0.8c0,0.3,0.1,0.5,0.3,0.7c0.2,0.2,0.6,0.3,1,0.4l1.4,0.3c0.8,0.2,1.4,0.5,1.8,0.9
	s0.6,0.9,0.6,1.5c0,0.5-0.2,1-0.5,1.4c-0.3,0.4-0.7,0.7-1.3,0.9c-0.5,0.2-1.2,0.4-1.9,0.4c-1,0-1.8-0.2-2.4-0.6
	c-0.6-0.4-1-1-1.1-1.8l1.6-0.2c0.1,0.4,0.3,0.8,0.6,1s0.7,0.3,1.2,0.3c0.6,0,1-0.1,1.3-0.4c0.3-0.2,0.5-0.5,0.5-0.9
	c0-0.3-0.1-0.5-0.3-0.7c-0.2-0.2-0.5-0.3-0.9-0.4l-1.5-0.3c-0.8-0.2-1.4-0.5-1.8-0.9s-0.6-0.9-0.6-1.5c0-0.5,0.1-1,0.4-1.4
	c0.3-0.4,0.7-0.7,1.2-0.9c0.5-0.2,1.1-0.3,1.7-0.3c0.9,0,1.7,0.2,2.2,0.6C698.7,156.3,699,156.8,699.2,157.5z M691.4,151.9
	l-3.8,13.9h-1.5l3.8-13.9L691.4,151.9L691.4,151.9z M679,159.7c0,0.6,0.1,1.1,0.3,1.6s0.4,0.8,0.8,1.1c0.3,0.3,0.8,0.4,1.2,0.4
	c0.5,0,0.9-0.1,1.3-0.4c0.3-0.3,0.6-0.6,0.8-1.1c0.2-0.5,0.3-1,0.3-1.6s-0.1-1.1-0.3-1.6s-0.4-0.8-0.8-1.1c-0.3-0.3-0.8-0.4-1.3-0.4
	c-0.5,0-0.9,0.1-1.2,0.4s-0.6,0.6-0.8,1.1S679,159.1,679,159.7z M677.3,164.1v-11.6h1.7v4.3h0.1c0.1-0.2,0.2-0.4,0.4-0.6
	s0.4-0.4,0.8-0.6c0.3-0.2,0.8-0.3,1.3-0.3c0.7,0,1.3,0.2,1.9,0.5c0.5,0.4,1,0.9,1.3,1.5c0.3,0.7,0.5,1.5,0.5,2.4s-0.2,1.8-0.5,2.4
	c-0.3,0.7-0.8,1.2-1.3,1.6s-1.2,0.5-1.9,0.5c-0.5,0-1-0.1-1.3-0.3c-0.3-0.2-0.6-0.4-0.8-0.6s-0.3-0.4-0.4-0.6H679v1.4L677.3,164.1
	L677.3,164.1z M673.3,160.5v-5.1h1.7v8.7h-1.7v-1.5h-0.1c-0.2,0.5-0.5,0.9-1,1.2c-0.4,0.3-1,0.5-1.6,0.5c-0.6,0-1.1-0.1-1.5-0.4
	s-0.8-0.6-1-1.1s-0.4-1.1-0.4-1.8v-5.6h1.7v5.4c0,0.6,0.2,1.1,0.5,1.4c0.3,0.4,0.8,0.5,1.3,0.5c0.3,0,0.6-0.1,1-0.2s0.6-0.4,0.8-0.7
	C673.2,161.4,673.3,161,673.3,160.5z M659.8,159.7c0,0.6,0.1,1.1,0.3,1.6s0.4,0.8,0.8,1.1c0.3,0.3,0.8,0.4,1.2,0.4
	c0.5,0,0.9-0.1,1.3-0.4c0.3-0.3,0.6-0.6,0.8-1.1c0.2-0.5,0.3-1,0.3-1.6s-0.1-1.1-0.3-1.6s-0.4-0.8-0.8-1.1c-0.3-0.3-0.8-0.4-1.3-0.4
	c-0.5,0-0.9,0.1-1.2,0.4s-0.6,0.6-0.8,1.1S659.8,159.1,659.8,159.7z M658.1,167.4v-12h1.7v1.4h0.1c0.1-0.2,0.2-0.4,0.4-0.6
	s0.4-0.4,0.8-0.6c0.3-0.2,0.8-0.3,1.3-0.3c0.7,0,1.3,0.2,1.9,0.5c0.5,0.4,1,0.9,1.3,1.5c0.3,0.7,0.5,1.5,0.5,2.4s-0.2,1.8-0.5,2.4
	c-0.3,0.7-0.8,1.2-1.3,1.6s-1.2,0.5-1.9,0.5c-0.5,0-1-0.1-1.3-0.3c-0.3-0.2-0.6-0.4-0.8-0.6s-0.3-0.4-0.4-0.6h-0.1v4.6L658.1,167.4
	L658.1,167.4z M648.9,153.3h1.7v8.3c0,0.3,0,0.6,0.2,0.7c0.1,0.2,0.2,0.3,0.4,0.3c0.2,0.1,0.3,0.1,0.5,0.1c0.1,0,0.3,0,0.4,0
	s0.2,0,0.2-0.1l0.3,1.4c-0.1,0-0.2,0.1-0.4,0.1c-0.2,0-0.4,0.1-0.7,0.1c-0.5,0-0.9-0.1-1.2-0.2s-0.7-0.4-0.9-0.8s-0.4-0.8-0.4-1.3
	L648.9,153.3L648.9,153.3z M652.3,155.4v1.4h-4.8v-1.4H652.3z M644.5,160.5v-5.1h1.7v8.7h-1.7v-1.5h-0.1c-0.2,0.5-0.5,0.9-1,1.2
	c-0.4,0.3-1,0.5-1.6,0.5c-0.6,0-1.1-0.1-1.5-0.4s-0.8-0.6-1-1.1s-0.4-1.1-0.4-1.8v-5.6h1.7v5.4c0,0.6,0.2,1.1,0.5,1.4
	s0.8,0.5,1.3,0.5c0.3,0,0.6-0.1,1-0.2s0.6-0.4,0.8-0.7C644.4,161.4,644.5,161,644.5,160.5z M633.2,162.9c0.5,0,1-0.1,1.3-0.4
	c0.3-0.3,0.6-0.6,0.8-1.1c0.2-0.5,0.3-1,0.3-1.5s-0.1-1.1-0.3-1.5c-0.2-0.5-0.4-0.9-0.8-1.1c-0.3-0.3-0.8-0.4-1.3-0.4
	s-1,0.1-1.3,0.4c-0.3,0.3-0.6,0.7-0.8,1.1c-0.2,0.5-0.2,1-0.2,1.5c0,0.6,0.1,1.1,0.2,1.5c0.2,0.5,0.4,0.8,0.8,1.1
	C632.2,162.7,632.6,162.9,633.2,162.9z M633.1,164.3c-0.8,0-1.5-0.2-2.1-0.6s-1.1-0.9-1.4-1.6c-0.3-0.7-0.5-1.5-0.5-2.4
	c0-0.9,0.2-1.7,0.5-2.4c0.3-0.7,0.8-1.2,1.4-1.6s1.3-0.6,2.1-0.6s1.5,0.2,2.1,0.6c0.6,0.4,1.1,0.9,1.4,1.6c0.3,0.7,0.5,1.5,0.5,2.4
	c0,0.9-0.2,1.7-0.5,2.4s-0.8,1.2-1.4,1.6C634.7,164.1,634,164.3,633.1,164.3z M621.7,158.9v5.2H620v-11.6h1.7v4.3h0.1
	c0.2-0.5,0.5-0.8,0.9-1.1s1-0.4,1.7-0.4c0.6,0,1.1,0.1,1.6,0.4s0.8,0.6,1,1.1c0.2,0.5,0.4,1.1,0.4,1.8v5.6h-1.7v-5.4
	c0-0.6-0.2-1.1-0.5-1.5c-0.3-0.4-0.8-0.5-1.4-0.5c-0.4,0-0.8,0.1-1.1,0.3c-0.3,0.2-0.6,0.4-0.7,0.8
	C621.8,158.1,621.7,158.5,621.7,158.9z M614.6,153.3h1.7v8.3c0,0.3,0,0.6,0.2,0.7c0.1,0.2,0.2,0.3,0.4,0.3c0.2,0.1,0.3,0.1,0.5,0.1
	c0.1,0,0.3,0,0.4,0s0.2,0,0.2-0.1l0.3,1.4c-0.1,0-0.2,0.1-0.4,0.1c-0.2,0-0.4,0.1-0.7,0.1c-0.5,0-0.9-0.1-1.2-0.2s-0.7-0.4-0.9-0.8
	s-0.4-0.8-0.4-1.3L614.6,153.3L614.6,153.3z M618.1,155.4v1.4h-4.8v-1.4H618.1z M611.1,154c-0.3,0-0.5-0.1-0.8-0.3s-0.3-0.4-0.3-0.7
	s0.1-0.5,0.3-0.7s0.5-0.3,0.8-0.3s0.5,0.1,0.8,0.3s0.3,0.4,0.3,0.7s-0.1,0.5-0.3,0.7C611.7,153.9,611.4,154,611.1,154z M610.2,164.1
	v-8.7h1.7v8.7H610.2z M599.1,164.1l-2.6-8.7h1.8l1.7,6.4h0.1l1.7-6.4h1.8l1.7,6.4h0.1l1.7-6.4h1.8l-2.6,8.7h-1.7l-1.8-6.3h-0.1
	l-1.8,6.3H599.1z M585.5,158.9v5.2h-1.7v-8.7h1.6v1.4h0.1c0.2-0.5,0.5-0.8,0.9-1.1c0.4-0.3,1-0.4,1.6-0.4c0.6,0,1.1,0.1,1.6,0.4
	c0.5,0.2,0.8,0.6,1,1.1s0.4,1.1,0.4,1.8v5.6h-1.7v-5.4c0-0.6-0.2-1.1-0.5-1.5c-0.3-0.4-0.8-0.5-1.4-0.5c-0.4,0-0.7,0.1-1,0.3
	c-0.3,0.2-0.5,0.4-0.7,0.8C585.6,158.1,585.5,158.5,585.5,158.9z M578,162.9c0.5,0,1-0.1,1.3-0.4c0.3-0.3,0.6-0.6,0.8-1.1
	c0.2-0.5,0.3-1,0.3-1.5s-0.1-1.1-0.3-1.5c-0.2-0.5-0.4-0.9-0.8-1.1c-0.3-0.3-0.8-0.4-1.3-0.4s-1,0.1-1.3,0.4
	c-0.3,0.3-0.6,0.7-0.8,1.1c-0.2,0.5-0.2,1-0.2,1.5c0,0.6,0.1,1.1,0.2,1.5c0.2,0.5,0.4,0.8,0.8,1.1S577.5,162.9,578,162.9z
	 M578,164.3c-0.8,0-1.5-0.2-2.1-0.6s-1.1-0.9-1.4-1.6c-0.3-0.7-0.5-1.5-0.5-2.4c0-0.9,0.2-1.7,0.5-2.4c0.3-0.7,0.8-1.2,1.4-1.6
	s1.3-0.6,2.1-0.6s1.5,0.2,2.1,0.6c0.6,0.4,1.1,0.9,1.4,1.6c0.3,0.7,0.5,1.5,0.5,2.4c0,0.9-0.2,1.7-0.5,2.4s-0.8,1.2-1.4,1.6
	C579.5,164.1,578.8,164.3,578,164.3z M571.4,154c-0.3,0-0.5-0.1-0.8-0.3s-0.3-0.4-0.3-0.7s0.1-0.5,0.3-0.7s0.5-0.3,0.8-0.3
	s0.5,0.1,0.8,0.3s0.3,0.4,0.3,0.7s-0.1,0.5-0.3,0.7C571.9,153.9,571.7,154,571.4,154z M570.5,164.1v-8.7h1.7v8.7H570.5z
	 M565.3,153.3h1.7v8.3c0,0.3,0,0.6,0.2,0.7c0.1,0.2,0.2,0.3,0.4,0.3c0.2,0.1,0.3,0.1,0.5,0.1c0.1,0,0.3,0,0.4,0s0.2,0,0.2-0.1
	l0.3,1.4c-0.1,0-0.2,0.1-0.4,0.1c-0.2,0-0.4,0.1-0.7,0.1c-0.5,0-0.9-0.1-1.2-0.2s-0.7-0.4-0.9-0.8s-0.4-0.8-0.4-1.3L565.3,153.3
	L565.3,153.3z M568.8,155.4v1.4H564v-1.4H568.8z M558.7,162.9c0.5,0,0.9-0.1,1.2-0.3c0.3-0.2,0.6-0.4,0.8-0.7s0.3-0.6,0.3-1v-1.1
	c-0.1,0.1-0.2,0.1-0.3,0.2s-0.4,0.1-0.6,0.1c-0.2,0-0.4,0.1-0.6,0.1s-0.4,0.1-0.5,0.1c-0.3,0-0.6,0.1-0.9,0.2s-0.5,0.2-0.7,0.4
	c-0.2,0.2-0.2,0.4-0.2,0.7c0,0.4,0.2,0.7,0.5,0.9C557.8,162.8,558.2,162.9,558.7,162.9z M558.3,164.3c-0.5,0-1-0.1-1.5-0.3
	c-0.5-0.2-0.8-0.5-1.1-0.9s-0.4-0.9-0.4-1.4c0-0.5,0.1-0.9,0.3-1.2s0.5-0.6,0.8-0.8c0.3-0.2,0.7-0.3,1.1-0.4s0.8-0.2,1.2-0.2
	c0.5-0.1,1-0.1,1.3-0.1c0.3,0,0.6-0.1,0.7-0.2s0.2-0.2,0.2-0.4v0c0-0.5-0.1-0.9-0.4-1.1c-0.3-0.3-0.7-0.4-1.2-0.4
	c-0.6,0-1,0.1-1.3,0.4c-0.3,0.2-0.5,0.5-0.7,0.8l-1.6-0.4c0.2-0.5,0.5-1,0.8-1.3c0.4-0.3,0.8-0.6,1.3-0.7c0.5-0.1,1-0.2,1.5-0.2
	c0.3,0,0.7,0,1.1,0.1s0.8,0.2,1.1,0.4c0.3,0.2,0.6,0.5,0.8,0.9c0.2,0.4,0.3,0.9,0.3,1.6v5.8H561v-1.2h-0.1c-0.1,0.2-0.3,0.4-0.5,0.6
	c-0.2,0.2-0.5,0.4-0.8,0.5C559.2,164.2,558.8,164.3,558.3,164.3z M550.6,153.3h1.7v8.3c0,0.3,0,0.6,0.2,0.7c0.1,0.2,0.2,0.3,0.4,0.3
	c0.2,0.1,0.3,0.1,0.5,0.1c0.1,0,0.3,0,0.4,0s0.2,0,0.2-0.1l0.3,1.4c-0.1,0-0.2,0.1-0.4,0.1c-0.2,0-0.4,0.1-0.7,0.1
	c-0.5,0-0.9-0.1-1.2-0.2s-0.7-0.4-0.9-0.8s-0.4-0.8-0.4-1.3L550.6,153.3L550.6,153.3z M554.1,155.4v1.4h-4.8v-1.4H554.1z
	 M546.2,160.5v-5.1h1.7v8.7h-1.7v-1.5h-0.1c-0.2,0.5-0.5,0.9-1,1.2c-0.4,0.3-1,0.5-1.6,0.5c-0.6,0-1.1-0.1-1.5-0.4s-0.8-0.6-1-1.1
	s-0.4-1.1-0.4-1.8v-5.6h1.7v5.4c0,0.6,0.2,1.1,0.5,1.4c0.3,0.4,0.8,0.5,1.3,0.5c0.3,0,0.6-0.1,1-0.2s0.6-0.4,0.8-0.7
	C546.1,161.4,546.2,161,546.2,160.5z M532.6,159.7c0,0.6,0.1,1.1,0.3,1.6s0.4,0.8,0.8,1.1c0.3,0.3,0.8,0.4,1.2,0.4
	c0.5,0,0.9-0.1,1.3-0.4c0.3-0.3,0.6-0.6,0.8-1.1c0.2-0.5,0.3-1,0.3-1.6s-0.1-1.1-0.3-1.6s-0.4-0.8-0.8-1.1c-0.3-0.3-0.8-0.4-1.3-0.4
	c-0.5,0-0.9,0.1-1.2,0.4s-0.6,0.6-0.8,1.1S532.6,159.1,532.6,159.7z M531,167.4v-12h1.7v1.4h0.1c0.1-0.2,0.2-0.4,0.4-0.6
	s0.4-0.4,0.8-0.6c0.3-0.2,0.8-0.3,1.3-0.3c0.7,0,1.3,0.2,1.9,0.5c0.5,0.4,1,0.9,1.3,1.5c0.3,0.7,0.5,1.5,0.5,2.4s-0.2,1.8-0.5,2.4
	c-0.3,0.7-0.8,1.2-1.3,1.6s-1.2,0.5-1.9,0.5c-0.5,0-1-0.1-1.3-0.3c-0.3-0.2-0.6-0.4-0.8-0.6s-0.3-0.4-0.4-0.6h-0.1v4.6L531,167.4
	L531,167.4z M517,164.1v-8.7h1.6v1.4h0.1c0.2-0.5,0.5-0.9,0.9-1.1c0.4-0.3,0.9-0.4,1.5-0.4c0.6,0,1.1,0.1,1.5,0.4
	c0.4,0.3,0.7,0.6,0.9,1.1h0.1c0.2-0.5,0.5-0.8,1-1.1c0.5-0.3,1-0.4,1.6-0.4c0.8,0,1.4,0.2,1.9,0.7c0.5,0.5,0.8,1.2,0.8,2.2v5.9h-1.7
	v-5.7c0-0.6-0.2-1-0.5-1.3c-0.3-0.3-0.7-0.4-1.2-0.4c-0.5,0-1,0.2-1.3,0.5s-0.5,0.8-0.5,1.3v5.6h-1.7v-5.8c0-0.5-0.2-0.9-0.4-1.1
	c-0.3-0.3-0.7-0.4-1.2-0.4c-0.3,0-0.6,0.1-0.9,0.3s-0.5,0.4-0.7,0.7c-0.2,0.3-0.2,0.6-0.2,1v5.4L517,164.1L517,164.1z M511.2,162.9
	c0.5,0,1-0.1,1.3-0.4s0.6-0.6,0.8-1.1c0.2-0.5,0.3-1,0.3-1.5s-0.1-1.1-0.3-1.5c-0.2-0.5-0.4-0.9-0.8-1.1c-0.3-0.3-0.8-0.4-1.3-0.4
	s-1,0.1-1.3,0.4c-0.4,0.3-0.6,0.7-0.8,1.1s-0.2,1-0.2,1.5c0,0.6,0.1,1.1,0.2,1.5c0.2,0.5,0.4,0.8,0.8,1.1S510.7,162.9,511.2,162.9z
	 M511.2,164.3c-0.8,0-1.5-0.2-2.1-0.6s-1.1-0.9-1.4-1.6c-0.3-0.7-0.5-1.5-0.5-2.4c0-0.9,0.2-1.7,0.5-2.4c0.3-0.7,0.8-1.2,1.4-1.6
	s1.3-0.6,2.1-0.6c0.8,0,1.5,0.2,2.1,0.6c0.6,0.4,1.1,0.9,1.4,1.6s0.5,1.5,0.5,2.4c0,0.9-0.2,1.7-0.5,2.4s-0.8,1.2-1.4,1.6
	C512.8,164.1,512,164.3,511.2,164.3z M502.3,164.3c-0.8,0-1.6-0.2-2.2-0.6c-0.6-0.4-1.1-0.9-1.4-1.6c-0.3-0.7-0.5-1.4-0.5-2.3
	c0-0.9,0.2-1.7,0.5-2.4c0.3-0.7,0.8-1.2,1.4-1.6c0.6-0.4,1.3-0.6,2.1-0.6c0.7,0,1.2,0.1,1.8,0.4c0.5,0.2,0.9,0.6,1.3,1
	s0.5,0.9,0.6,1.5h-1.6c-0.1-0.4-0.3-0.8-0.6-1.1s-0.8-0.4-1.3-0.4c-0.5,0-0.9,0.1-1.2,0.4c-0.4,0.2-0.6,0.6-0.8,1.1
	c-0.2,0.4-0.3,1-0.3,1.6c0,0.6,0.1,1.2,0.3,1.6c0.2,0.5,0.5,0.8,0.8,1.1c0.4,0.2,0.8,0.4,1.3,0.4c0.3,0,0.6-0.1,0.9-0.2
	c0.3-0.1,0.5-0.3,0.7-0.5c0.2-0.2,0.3-0.5,0.4-0.8h1.6c-0.1,0.6-0.2,1.1-0.5,1.5s-0.7,0.8-1.2,1.1
	C503.6,164.1,503,164.3,502.3,164.3z M718.3,133.5l-1.5,0.3c-0.1-0.2-0.2-0.4-0.3-0.6s-0.3-0.3-0.6-0.4c-0.2-0.1-0.5-0.2-0.9-0.2
	c-0.5,0-0.9,0.1-1.2,0.3s-0.5,0.5-0.5,0.8c0,0.3,0.1,0.5,0.3,0.7c0.2,0.2,0.6,0.3,1,0.4l1.4,0.3c0.8,0.2,1.4,0.5,1.8,0.9
	s0.6,0.9,0.6,1.5c0,0.5-0.2,1-0.5,1.4c-0.3,0.4-0.7,0.7-1.3,0.9c-0.5,0.2-1.2,0.4-1.9,0.4c-1,0-1.8-0.2-2.4-0.6
	c-0.6-0.4-1-1-1.1-1.8l1.6-0.2c0.1,0.4,0.3,0.8,0.6,1s0.7,0.3,1.2,0.3c0.6,0,1-0.1,1.3-0.4c0.3-0.2,0.5-0.5,0.5-0.9
	c0-0.3-0.1-0.5-0.3-0.7c-0.2-0.2-0.5-0.3-0.9-0.4l-1.5-0.3c-0.8-0.2-1.4-0.5-1.8-0.9s-0.6-0.9-0.6-1.5c0-0.5,0.1-1,0.4-1.4
	c0.3-0.4,0.7-0.7,1.2-0.9c0.5-0.2,1.1-0.3,1.7-0.3c0.9,0,1.7,0.2,2.2,0.6C717.7,132.3,718.1,132.8,718.3,133.5z M706.3,140.3
	c-0.9,0-1.6-0.2-2.2-0.6c-0.6-0.4-1.1-0.9-1.4-1.6c-0.3-0.7-0.5-1.5-0.5-2.4c0-0.9,0.2-1.7,0.5-2.4c0.3-0.7,0.8-1.2,1.4-1.6
	c0.6-0.4,1.3-0.6,2.1-0.6c0.5,0,1,0.1,1.4,0.2s0.9,0.4,1.2,0.8s0.7,0.8,0.9,1.4c0.2,0.6,0.3,1.2,0.3,2v0.6h-6.9V135h5.3
	c0-0.4-0.1-0.8-0.3-1.2s-0.4-0.6-0.8-0.8c-0.3-0.2-0.7-0.3-1.2-0.3c-0.5,0-0.9,0.1-1.2,0.4c-0.3,0.2-0.6,0.5-0.8,0.9
	c-0.2,0.4-0.3,0.8-0.3,1.2v1c0,0.6,0.1,1.1,0.3,1.5s0.5,0.7,0.9,0.9c0.4,0.2,0.8,0.3,1.3,0.3c0.3,0,0.6-0.1,0.9-0.1
	c0.3-0.1,0.5-0.2,0.7-0.4s0.3-0.4,0.4-0.7l1.6,0.3c-0.1,0.5-0.4,0.9-0.7,1.2s-0.7,0.6-1.2,0.8C707.5,140.2,706.9,140.3,706.3,140.3z
	 M697.3,140.3c-0.8,0-1.6-0.2-2.2-0.6c-0.6-0.4-1.1-0.9-1.4-1.6s-0.5-1.4-0.5-2.3c0-0.9,0.2-1.7,0.5-2.4c0.3-0.7,0.8-1.2,1.4-1.6
	c0.6-0.4,1.3-0.6,2.1-0.6c0.7,0,1.2,0.1,1.8,0.4c0.5,0.2,0.9,0.6,1.3,1s0.5,0.9,0.6,1.5h-1.7c-0.1-0.4-0.3-0.8-0.6-1.1
	s-0.8-0.4-1.3-0.4c-0.5,0-0.9,0.1-1.2,0.4c-0.3,0.2-0.6,0.6-0.8,1.1c-0.2,0.4-0.3,1-0.3,1.6c0,0.6,0.1,1.2,0.3,1.6
	c0.2,0.5,0.5,0.8,0.8,1.1c0.4,0.2,0.8,0.4,1.3,0.4c0.3,0,0.6-0.1,0.9-0.2s0.5-0.3,0.7-0.5c0.2-0.2,0.3-0.5,0.4-0.8h1.7
	c-0.1,0.6-0.2,1.1-0.5,1.5s-0.7,0.8-1.2,1.1C698.6,140.1,698,140.3,697.3,140.3z M685.9,134.9v5.2h-1.7v-8.7h1.6v1.4h0.1
	c0.2-0.5,0.5-0.8,0.9-1.1c0.4-0.3,1-0.4,1.6-0.4c0.6,0,1.1,0.1,1.6,0.4c0.5,0.2,0.8,0.6,1,1.1s0.4,1.1,0.4,1.8v5.6h-1.7v-5.4
	c0-0.6-0.2-1.1-0.5-1.5c-0.3-0.4-0.8-0.5-1.4-0.5c-0.4,0-0.7,0.1-1,0.3c-0.3,0.2-0.5,0.4-0.7,0.8C686,134.1,685.9,134.5,685.9,134.9
	z M678.2,138.9c0.5,0,0.9-0.1,1.2-0.3c0.3-0.2,0.6-0.4,0.8-0.7s0.3-0.6,0.3-1v-1.1c-0.1,0.1-0.2,0.1-0.3,0.2s-0.4,0.1-0.6,0.1
	c-0.2,0-0.4,0.1-0.6,0.1s-0.4,0.1-0.5,0.1c-0.3,0-0.6,0.1-0.9,0.2s-0.5,0.2-0.7,0.4c-0.2,0.2-0.2,0.4-0.2,0.7c0,0.4,0.2,0.7,0.5,0.9
	C677.3,138.8,677.7,138.9,678.2,138.9z M677.8,140.3c-0.5,0-1-0.1-1.5-0.3c-0.5-0.2-0.8-0.5-1.1-0.9s-0.4-0.9-0.4-1.4
	c0-0.5,0.1-0.9,0.3-1.2s0.5-0.6,0.8-0.8c0.3-0.2,0.7-0.3,1.1-0.4s0.8-0.2,1.2-0.2c0.5-0.1,1-0.1,1.3-0.1c0.3,0,0.6-0.1,0.7-0.2
	s0.2-0.2,0.2-0.4v0c0-0.5-0.1-0.9-0.4-1.1c-0.3-0.3-0.7-0.4-1.2-0.4c-0.6,0-1,0.1-1.3,0.4c-0.3,0.2-0.5,0.5-0.7,0.8l-1.6-0.4
	c0.2-0.5,0.5-1,0.8-1.3c0.4-0.3,0.8-0.6,1.3-0.7c0.5-0.1,1-0.2,1.5-0.2c0.3,0,0.7,0,1.1,0.1s0.8,0.2,1.1,0.4
	c0.3,0.2,0.6,0.5,0.8,0.9c0.2,0.4,0.3,0.9,0.3,1.6v5.8h-1.7v-1.2h-0.1c-0.1,0.2-0.3,0.4-0.5,0.6c-0.2,0.2-0.5,0.4-0.8,0.5
	C678.7,140.2,678.3,140.3,677.8,140.3z M674.1,131.4l-3.2,8.7h-1.8l-3.2-8.7h1.8l2.2,6.7h0.1l2.2-6.7H674.1z M660.5,138.8
	c0.5,0,0.9-0.1,1.2-0.4c0.3-0.3,0.6-0.6,0.8-1.1c0.2-0.5,0.3-1,0.3-1.6s-0.1-1.1-0.3-1.6s-0.4-0.8-0.8-1.1s-0.8-0.4-1.2-0.4
	c-0.5,0-0.9,0.1-1.3,0.4c-0.3,0.3-0.6,0.6-0.8,1.1c-0.2,0.5-0.3,1-0.3,1.6c0,0.6,0.1,1.1,0.3,1.6c0.2,0.5,0.4,0.8,0.8,1.1
	C659.5,138.7,659.9,138.8,660.5,138.8z M660.1,140.3c-0.7,0-1.3-0.2-1.9-0.5c-0.5-0.4-1-0.9-1.3-1.6c-0.3-0.7-0.5-1.5-0.5-2.4
	s0.2-1.8,0.5-2.4c0.3-0.7,0.8-1.2,1.3-1.5c0.5-0.4,1.2-0.5,1.9-0.5c0.5,0,1,0.1,1.3,0.3c0.3,0.2,0.6,0.4,0.8,0.6
	c0.2,0.2,0.3,0.4,0.4,0.6h0.1v-4.3h1.7v11.6h-1.7v-1.4h-0.1c-0.1,0.2-0.2,0.4-0.4,0.6s-0.5,0.4-0.8,0.6
	C661,140.2,660.6,140.3,660.1,140.3z M650.8,138.9c0.5,0,0.9-0.1,1.2-0.3c0.3-0.2,0.6-0.4,0.8-0.7s0.3-0.6,0.3-1v-1.1
	c-0.1,0.1-0.2,0.1-0.3,0.2s-0.4,0.1-0.6,0.1c-0.2,0-0.4,0.1-0.6,0.1s-0.4,0.1-0.5,0.1c-0.3,0-0.6,0.1-0.9,0.2s-0.5,0.2-0.7,0.4
	c-0.2,0.2-0.2,0.4-0.2,0.7c0,0.4,0.2,0.7,0.5,0.9C649.9,138.8,650.3,138.9,650.8,138.9z M650.4,140.3c-0.5,0-1-0.1-1.5-0.3
	c-0.5-0.2-0.8-0.5-1.1-0.9s-0.4-0.9-0.4-1.4c0-0.5,0.1-0.9,0.3-1.2s0.5-0.6,0.8-0.8c0.3-0.2,0.7-0.3,1.1-0.4s0.8-0.2,1.2-0.2
	c0.5-0.1,1-0.1,1.3-0.1c0.3,0,0.6-0.1,0.7-0.2s0.2-0.2,0.2-0.4v0c0-0.5-0.1-0.9-0.4-1.1c-0.3-0.3-0.7-0.4-1.2-0.4
	c-0.6,0-1,0.1-1.3,0.4c-0.3,0.2-0.5,0.5-0.7,0.8l-1.6-0.4c0.2-0.5,0.5-1,0.8-1.3c0.4-0.3,0.8-0.6,1.3-0.7c0.5-0.1,1-0.2,1.5-0.2
	c0.3,0,0.7,0,1.1,0.1s0.8,0.2,1.1,0.4c0.3,0.2,0.6,0.5,0.8,0.9c0.2,0.4,0.3,0.9,0.3,1.6v5.8h-1.7v-1.2H653c-0.1,0.2-0.3,0.4-0.5,0.6
	c-0.2,0.2-0.5,0.4-0.8,0.5C651.3,140.2,650.9,140.3,650.4,140.3z M641.7,128.5v11.6H640v-11.6H641.7z M634,138.9
	c0.5,0,0.9-0.1,1.2-0.3c0.3-0.2,0.6-0.4,0.8-0.7s0.3-0.6,0.3-1v-1.1c-0.1,0.1-0.2,0.1-0.3,0.2s-0.4,0.1-0.6,0.1
	c-0.2,0-0.4,0.1-0.6,0.1s-0.4,0.1-0.5,0.1c-0.3,0-0.6,0.1-0.9,0.2s-0.5,0.2-0.7,0.4c-0.2,0.2-0.2,0.4-0.2,0.7c0,0.4,0.2,0.7,0.5,0.9
	C633.1,138.8,633.5,138.9,634,138.9z M633.6,140.3c-0.5,0-1-0.1-1.5-0.3c-0.5-0.2-0.8-0.5-1.1-0.9s-0.4-0.9-0.4-1.4
	c0-0.5,0.1-0.9,0.3-1.2s0.5-0.6,0.8-0.8s0.7-0.3,1.1-0.4s0.8-0.2,1.2-0.2c0.5-0.1,1-0.1,1.3-0.1c0.3,0,0.6-0.1,0.7-0.2
	s0.2-0.2,0.2-0.4v0c0-0.5-0.1-0.9-0.4-1.1c-0.3-0.3-0.7-0.4-1.2-0.4c-0.6,0-1,0.1-1.3,0.4c-0.3,0.2-0.5,0.5-0.7,0.8l-1.6-0.4
	c0.2-0.5,0.5-1,0.8-1.3c0.4-0.3,0.8-0.6,1.3-0.7c0.5-0.1,1-0.2,1.5-0.2c0.3,0,0.7,0,1.1,0.1s0.8,0.2,1.1,0.4
	c0.3,0.2,0.6,0.5,0.8,0.9c0.2,0.4,0.3,0.9,0.3,1.6v5.8h-1.7v-1.2h-0.1c-0.1,0.2-0.3,0.4-0.5,0.6c-0.2,0.2-0.5,0.4-0.8,0.5
	C634.5,140.2,634.1,140.3,633.6,140.3z M623.4,134.9v5.2h-1.7v-8.7h1.6v1.4h0.1c0.2-0.5,0.5-0.8,0.9-1.1c0.4-0.3,1-0.4,1.6-0.4
	c0.6,0,1.1,0.1,1.6,0.4c0.5,0.2,0.8,0.6,1,1.1s0.4,1.1,0.4,1.8v5.6h-1.7v-5.4c0-0.6-0.2-1.1-0.5-1.5c-0.3-0.4-0.8-0.5-1.4-0.5
	c-0.4,0-0.7,0.1-1,0.3c-0.3,0.2-0.5,0.4-0.7,0.8C623.5,134.1,623.4,134.5,623.4,134.9z M615.6,138.6c0.5,0,0.9-0.1,1.2-0.3
	c0.3-0.2,0.6-0.6,0.8-1c0.2-0.4,0.3-0.9,0.3-1.6c0-0.6-0.1-1.1-0.3-1.6s-0.4-0.8-0.8-1.1s-0.8-0.4-1.2-0.4c-0.5,0-0.9,0.1-1.3,0.4
	c-0.3,0.3-0.6,0.6-0.8,1.1c-0.2,0.4-0.3,0.9-0.3,1.5c0,0.6,0.1,1.1,0.3,1.5c0.2,0.4,0.4,0.8,0.8,1
	C614.7,138.4,615.1,138.6,615.6,138.6z M615.7,143.6c-0.7,0-1.3-0.1-1.8-0.3c-0.5-0.2-0.9-0.4-1.2-0.7c-0.3-0.3-0.5-0.6-0.7-1
	l1.5-0.6c0.1,0.2,0.2,0.3,0.4,0.5s0.4,0.4,0.7,0.5c0.3,0.1,0.7,0.2,1.2,0.2c0.6,0,1.2-0.2,1.6-0.5s0.6-0.8,0.6-1.5v-1.7h-0.1
	c-0.1,0.2-0.2,0.4-0.4,0.6s-0.5,0.4-0.8,0.6s-0.8,0.2-1.3,0.2c-0.7,0-1.3-0.2-1.9-0.5c-0.5-0.3-1-0.8-1.3-1.4
	c-0.3-0.6-0.5-1.4-0.5-2.4s0.2-1.7,0.5-2.4c0.3-0.7,0.8-1.2,1.3-1.5c0.5-0.4,1.2-0.5,1.9-0.5c0.5,0,1,0.1,1.3,0.3
	c0.3,0.2,0.6,0.4,0.8,0.6c0.2,0.2,0.3,0.4,0.4,0.6h0.1v-1.4h1.7v8.9c0,0.8-0.2,1.4-0.5,1.9c-0.3,0.5-0.8,0.8-1.4,1.1
	C617,143.4,616.4,143.6,615.7,143.6z M609,130c-0.3,0-0.5-0.1-0.8-0.3s-0.3-0.4-0.3-0.7s0.1-0.5,0.3-0.7s0.5-0.3,0.8-0.3
	c0.3,0,0.5,0.1,0.8,0.3s0.3,0.4,0.3,0.7s-0.1,0.5-0.3,0.7C609.6,129.9,609.3,130,609,130z M608.2,140.1v-8.7h1.7v8.7H608.2z
	 M606.3,133.5l-1.5,0.3c-0.1-0.2-0.2-0.4-0.3-0.6s-0.3-0.3-0.6-0.4c-0.2-0.1-0.5-0.2-0.9-0.2c-0.5,0-0.9,0.1-1.2,0.3
	s-0.5,0.5-0.5,0.8c0,0.3,0.1,0.5,0.3,0.7c0.2,0.2,0.6,0.3,1,0.4l1.4,0.3c0.8,0.2,1.4,0.5,1.8,0.9s0.6,0.9,0.6,1.5
	c0,0.5-0.2,1-0.5,1.4c-0.3,0.4-0.7,0.7-1.3,0.9c-0.5,0.2-1.2,0.4-1.9,0.4c-1,0-1.8-0.2-2.4-0.6c-0.6-0.4-1-1-1.1-1.8l1.6-0.2
	c0.1,0.4,0.3,0.8,0.6,1s0.7,0.3,1.2,0.3c0.6,0,1-0.1,1.3-0.4c0.3-0.2,0.5-0.5,0.5-0.9c0-0.3-0.1-0.5-0.3-0.7
	c-0.2-0.2-0.5-0.3-0.9-0.4l-1.5-0.3c-0.8-0.2-1.4-0.5-1.8-0.9s-0.6-0.9-0.6-1.5c0-0.5,0.1-1,0.4-1.4c0.3-0.4,0.7-0.7,1.2-0.9
	c0.5-0.2,1.1-0.3,1.7-0.3c0.9,0,1.7,0.2,2.2,0.6C605.8,132.3,606.1,132.8,606.3,133.5z M592.5,140.1l-3.1-4.1l1.2-1.2l4,5.3H592.5z
	 M587,140.1v-11.6h1.7v11.6H587z M588.5,137.1l0-2.1h0.3l3.5-3.7h2l-4,4.2h-0.3L588.5,137.1z M581.8,140.3c-0.8,0-1.6-0.2-2.2-0.6
	c-0.6-0.4-1.1-0.9-1.4-1.6c-0.3-0.7-0.5-1.4-0.5-2.3c0-0.9,0.2-1.7,0.5-2.4c0.3-0.7,0.8-1.2,1.4-1.6c0.6-0.4,1.3-0.6,2.1-0.6
	c0.7,0,1.2,0.1,1.8,0.4c0.5,0.2,0.9,0.6,1.3,1s0.5,0.9,0.6,1.5h-1.7c-0.1-0.4-0.3-0.8-0.6-1.1s-0.8-0.4-1.3-0.4
	c-0.5,0-0.9,0.1-1.2,0.4c-0.3,0.2-0.6,0.6-0.8,1.1c-0.2,0.4-0.3,1-0.3,1.6c0,0.6,0.1,1.2,0.3,1.6c0.2,0.5,0.5,0.8,0.8,1.1
	c0.4,0.2,0.8,0.4,1.3,0.4c0.3,0,0.6-0.1,0.9-0.2s0.5-0.3,0.7-0.5c0.2-0.2,0.3-0.5,0.4-0.8h1.7c-0.1,0.6-0.2,1.1-0.5,1.5
	s-0.7,0.8-1.2,1.1C583,140.1,582.5,140.3,581.8,140.3z M572.3,138.9c0.5,0,1-0.1,1.3-0.4c0.3-0.3,0.6-0.6,0.8-1.1
	c0.2-0.5,0.3-1,0.3-1.5s-0.1-1.1-0.3-1.5c-0.2-0.5-0.4-0.9-0.8-1.1c-0.3-0.3-0.8-0.4-1.3-0.4s-1,0.1-1.3,0.4
	c-0.3,0.3-0.6,0.7-0.8,1.1c-0.2,0.5-0.2,1-0.2,1.5c0,0.6,0.1,1.1,0.2,1.5c0.2,0.5,0.4,0.8,0.8,1.1
	C571.3,138.7,571.8,138.9,572.3,138.9z M572.3,140.3c-0.8,0-1.5-0.2-2.1-0.6s-1.1-0.9-1.4-1.6c-0.3-0.7-0.5-1.5-0.5-2.4
	c0-0.9,0.2-1.7,0.5-2.4c0.3-0.7,0.8-1.2,1.4-1.6s1.3-0.6,2.1-0.6s1.5,0.2,2.1,0.6c0.6,0.4,1.1,0.9,1.4,1.6c0.3,0.7,0.5,1.5,0.5,2.4
	c0,0.9-0.2,1.7-0.5,2.4s-0.8,1.2-1.4,1.6C573.8,140.1,573.1,140.3,572.3,140.3z M566.5,128.5v11.6h-1.7v-11.6H566.5z M559.6,140.3
	c-0.8,0-1.6-0.2-2.2-0.6c-0.6-0.4-1.1-0.9-1.4-1.6s-0.5-1.4-0.5-2.3c0-0.9,0.2-1.7,0.5-2.4c0.3-0.7,0.8-1.2,1.4-1.6s1.3-0.6,2.1-0.6
	c0.7,0,1.2,0.1,1.8,0.4c0.5,0.2,0.9,0.6,1.3,1s0.5,0.9,0.6,1.5h-1.7c-0.1-0.4-0.3-0.8-0.6-1.1c-0.3-0.3-0.8-0.4-1.3-0.4
	c-0.5,0-0.9,0.1-1.2,0.4c-0.3,0.2-0.6,0.6-0.8,1.1c-0.2,0.4-0.3,1-0.3,1.6c0,0.6,0.1,1.2,0.3,1.6c0.2,0.5,0.5,0.8,0.8,1.1
	c0.4,0.2,0.8,0.4,1.3,0.4c0.3,0,0.6-0.1,0.9-0.2s0.5-0.3,0.7-0.5c0.2-0.2,0.3-0.5,0.4-0.8h1.7c-0.1,0.6-0.2,1.1-0.5,1.5
	s-0.7,0.8-1.2,1.1C560.9,140.1,560.3,140.3,559.6,140.3z M545.7,138.8c0.5,0,0.9-0.1,1.2-0.4c0.3-0.3,0.6-0.6,0.8-1.1
	c0.2-0.5,0.3-1,0.3-1.6s-0.1-1.1-0.3-1.6s-0.4-0.8-0.8-1.1s-0.8-0.4-1.2-0.4c-0.5,0-0.9,0.1-1.3,0.4c-0.3,0.3-0.6,0.6-0.8,1.1
	c-0.2,0.5-0.3,1-0.3,1.6c0,0.6,0.1,1.1,0.3,1.6c0.2,0.5,0.4,0.8,0.8,1.1C544.7,138.7,545.2,138.8,545.7,138.8z M545.3,140.3
	c-0.7,0-1.3-0.2-1.9-0.5c-0.5-0.4-1-0.9-1.3-1.6c-0.3-0.7-0.5-1.5-0.5-2.4s0.2-1.8,0.5-2.4c0.3-0.7,0.8-1.2,1.3-1.5
	c0.5-0.4,1.2-0.5,1.9-0.5c0.5,0,1,0.1,1.3,0.3c0.3,0.2,0.6,0.4,0.8,0.6c0.2,0.2,0.3,0.4,0.4,0.6h0.1v-4.3h1.7v11.6h-1.7v-1.4h-0.1
	c-0.1,0.2-0.2,0.4-0.4,0.6s-0.5,0.4-0.8,0.6S545.8,140.3,545.3,140.3z M536.6,140.3c-0.9,0-1.6-0.2-2.2-0.6
	c-0.6-0.4-1.1-0.9-1.4-1.6c-0.3-0.7-0.5-1.5-0.5-2.4c0-0.9,0.2-1.7,0.5-2.4c0.3-0.7,0.8-1.2,1.4-1.6c0.6-0.4,1.3-0.6,2.1-0.6
	c0.5,0,1,0.1,1.4,0.2s0.9,0.4,1.2,0.8c0.4,0.4,0.7,0.8,0.9,1.4c0.2,0.6,0.3,1.2,0.3,2v0.6h-6.9V135h5.3c0-0.4-0.1-0.8-0.3-1.2
	s-0.4-0.6-0.8-0.8c-0.3-0.2-0.7-0.3-1.2-0.3c-0.5,0-0.9,0.1-1.2,0.4c-0.3,0.2-0.6,0.5-0.8,0.9c-0.2,0.4-0.3,0.8-0.3,1.2v1
	c0,0.6,0.1,1.1,0.3,1.5s0.5,0.7,0.9,0.9c0.4,0.2,0.8,0.3,1.3,0.3c0.3,0,0.6-0.1,0.9-0.1c0.3-0.1,0.5-0.2,0.7-0.4s0.3-0.4,0.4-0.7
	l1.6,0.3c-0.1,0.5-0.4,0.9-0.7,1.2s-0.7,0.6-1.2,0.8C537.8,140.2,537.2,140.3,536.6,140.3z M527.2,140.1v-8.7h1.6v1.4h0.1
	c0.2-0.5,0.4-0.8,0.8-1.1c0.4-0.3,0.9-0.4,1.4-0.4c0.1,0,0.2,0,0.4,0s0.3,0,0.3,0v1.6c-0.1,0-0.2,0-0.4-0.1c-0.2,0-0.3,0-0.5,0
	c-0.4,0-0.8,0.1-1.1,0.3s-0.6,0.4-0.7,0.7s-0.3,0.6-0.3,1v5.3L527.2,140.1L527.2,140.1z M521.1,138.9c0.5,0,0.9-0.1,1.2-0.3
	c0.3-0.2,0.6-0.4,0.8-0.7s0.3-0.6,0.3-1v-1.1c-0.1,0.1-0.2,0.1-0.3,0.2s-0.4,0.1-0.6,0.1c-0.2,0-0.4,0.1-0.6,0.1s-0.4,0.1-0.5,0.1
	c-0.3,0-0.6,0.1-0.9,0.2s-0.5,0.2-0.7,0.4c-0.2,0.2-0.2,0.4-0.2,0.7c0,0.4,0.2,0.7,0.5,0.9C520.2,138.8,520.6,138.9,521.1,138.9z
	 M520.8,140.3c-0.5,0-1-0.1-1.5-0.3c-0.5-0.2-0.8-0.5-1.1-0.9s-0.4-0.9-0.4-1.4c0-0.5,0.1-0.9,0.3-1.2s0.5-0.6,0.8-0.8
	s0.7-0.3,1.1-0.4s0.8-0.2,1.2-0.2c0.5-0.1,1-0.1,1.3-0.1c0.3,0,0.6-0.1,0.7-0.2s0.2-0.2,0.2-0.4v0c0-0.5-0.1-0.9-0.4-1.1
	c-0.3-0.3-0.7-0.4-1.2-0.4c-0.6,0-1,0.1-1.3,0.4c-0.3,0.2-0.5,0.5-0.7,0.8l-1.6-0.4c0.2-0.5,0.5-1,0.8-1.3c0.4-0.3,0.8-0.6,1.3-0.7
	c0.5-0.1,1-0.2,1.5-0.2c0.3,0,0.7,0,1.1,0.1s0.8,0.2,1.1,0.4c0.3,0.2,0.6,0.5,0.8,0.9c0.2,0.4,0.3,0.9,0.3,1.6v5.8h-1.7v-1.2h-0.1
	c-0.1,0.2-0.3,0.4-0.5,0.6c-0.2,0.2-0.5,0.4-0.8,0.5C521.7,140.2,521.2,140.3,520.8,140.3z M510.5,134.9v5.2h-1.7v-11.6h1.7v4.3h0.1
	c0.2-0.5,0.5-0.8,0.9-1.1s1-0.4,1.6-0.4c0.6,0,1.1,0.1,1.6,0.4s0.8,0.6,1,1.1c0.2,0.5,0.4,1.1,0.4,1.8v5.6h-1.7v-5.4
	c0-0.6-0.2-1.1-0.5-1.5c-0.3-0.4-0.8-0.5-1.4-0.5c-0.4,0-0.8,0.1-1.1,0.3c-0.3,0.2-0.6,0.4-0.7,0.8
	C510.5,134.1,510.5,134.5,510.5,134.9z M505.1,131.5c-0.1-0.5-0.3-0.9-0.8-1.2s-1-0.4-1.7-0.4c-0.5,0-0.9,0.1-1.2,0.2
	c-0.4,0.1-0.6,0.4-0.8,0.6s-0.3,0.6-0.3,0.9c0,0.3,0.1,0.5,0.2,0.7s0.3,0.4,0.5,0.5c0.2,0.1,0.5,0.2,0.7,0.3
	c0.2,0.1,0.5,0.2,0.7,0.2l1.1,0.3c0.4,0.1,0.8,0.2,1.1,0.4c0.4,0.2,0.8,0.4,1.1,0.6s0.6,0.6,0.8,0.9c0.2,0.4,0.3,0.8,0.3,1.4
	c0,0.7-0.2,1.2-0.5,1.8c-0.3,0.5-0.8,0.9-1.5,1.2s-1.4,0.4-2.3,0.4c-0.9,0-1.6-0.1-2.3-0.4c-0.6-0.3-1.1-0.7-1.5-1.2
	s-0.6-1.1-0.6-1.8h1.8c0,0.4,0.2,0.8,0.4,1.1s0.5,0.5,0.9,0.6c0.4,0.1,0.8,0.2,1.2,0.2c0.5,0,0.9-0.1,1.3-0.2
	c0.4-0.2,0.7-0.4,0.9-0.7s0.3-0.6,0.3-1c0-0.3-0.1-0.6-0.3-0.9c-0.2-0.2-0.5-0.4-0.8-0.6c-0.3-0.1-0.7-0.3-1.1-0.4l-1.4-0.4
	c-0.9-0.2-1.7-0.6-2.2-1.1c-0.5-0.5-0.8-1.1-0.8-1.9c0-0.7,0.2-1.3,0.5-1.8c0.4-0.5,0.9-0.9,1.5-1.2c0.6-0.3,1.3-0.4,2.1-0.4
	c0.8,0,1.5,0.1,2.1,0.4c0.6,0.3,1.1,0.7,1.4,1.1s0.5,1,0.5,1.7L505.1,131.5L505.1,131.5z"/>
<path class="st2" d="M750.7,468.4c-0.2,0-0.5,0-0.7-0.1s-0.4-0.1-0.5-0.1l0.4-1.4c0.3,0.1,0.6,0.1,0.8,0.1s0.5-0.1,0.6-0.3
	c0.2-0.2,0.4-0.5,0.5-0.8l0.2-0.6l-3.2-8.8h1.8l2.2,6.8h0.1l2.2-6.8h1.8l-3.6,9.9c-0.2,0.5-0.4,0.8-0.6,1.1
	c-0.3,0.3-0.6,0.6-0.9,0.7S751.2,468.4,750.7,468.4z M747.6,453.5v11.6h-1.7v-11.6H747.6z M743.8,453.5v11.6H742v-11.6H743.8z
	 M736,463.9c0.5,0,0.9-0.1,1.2-0.3c0.3-0.2,0.6-0.4,0.8-0.7c0.2-0.3,0.3-0.6,0.3-1v-1.1c-0.1,0.1-0.2,0.1-0.3,0.2
	c-0.2,0-0.4,0.1-0.6,0.1c-0.2,0-0.4,0.1-0.6,0.1s-0.4,0-0.5,0.1c-0.3,0-0.6,0.1-0.9,0.2s-0.5,0.2-0.7,0.4c-0.2,0.2-0.2,0.4-0.2,0.7
	c0,0.4,0.2,0.7,0.5,1C735.2,463.8,735.5,463.9,736,463.9z M735.7,465.3c-0.5,0-1-0.1-1.5-0.3s-0.8-0.5-1.1-0.9
	c-0.3-0.4-0.4-0.9-0.4-1.5c0-0.5,0.1-0.9,0.3-1.2s0.5-0.6,0.8-0.8s0.7-0.3,1.1-0.4c0.4-0.1,0.8-0.2,1.2-0.2c0.5-0.1,1-0.1,1.3-0.1
	c0.3,0,0.6-0.1,0.7-0.2c0.2-0.1,0.2-0.2,0.2-0.4v0c0-0.5-0.1-0.9-0.4-1.1c-0.3-0.3-0.7-0.4-1.2-0.4c-0.6,0-1,0.1-1.3,0.4
	c-0.3,0.2-0.5,0.5-0.7,0.8l-1.6-0.4c0.2-0.5,0.5-1,0.8-1.3c0.4-0.3,0.8-0.6,1.3-0.7c0.5-0.1,1-0.2,1.5-0.2c0.3,0,0.7,0,1.1,0.1
	s0.8,0.2,1.1,0.4c0.3,0.2,0.6,0.5,0.8,0.9c0.2,0.4,0.3,0.9,0.3,1.5v5.8h-1.7v-1.2h-0.1c-0.1,0.2-0.3,0.4-0.5,0.6s-0.5,0.4-0.8,0.5
	C736.5,465.2,736.1,465.3,735.7,465.3z M727.9,465.3c-0.8,0-1.6-0.2-2.2-0.6c-0.6-0.4-1.1-0.9-1.4-1.6s-0.5-1.5-0.5-2.3
	c0-0.9,0.2-1.7,0.5-2.4s0.8-1.2,1.4-1.6c0.6-0.4,1.3-0.6,2.1-0.6c0.7,0,1.2,0.1,1.8,0.4c0.5,0.2,0.9,0.6,1.3,1s0.5,1,0.6,1.5h-1.7
	c-0.1-0.4-0.3-0.8-0.6-1.1s-0.8-0.4-1.3-0.4c-0.5,0-0.9,0.1-1.2,0.4c-0.3,0.2-0.6,0.6-0.8,1.1c-0.2,0.5-0.3,1-0.3,1.6
	c0,0.6,0.1,1.2,0.3,1.6s0.5,0.8,0.8,1.1c0.4,0.2,0.8,0.4,1.3,0.4c0.3,0,0.6-0.1,0.9-0.2s0.5-0.3,0.7-0.5c0.2-0.2,0.3-0.5,0.4-0.8
	h1.7c-0.1,0.6-0.2,1.1-0.5,1.5s-0.7,0.8-1.2,1C729.2,465.1,728.6,465.3,727.9,465.3z M718.4,463.9c0.5,0,1-0.1,1.3-0.4
	c0.3-0.3,0.6-0.6,0.8-1.1c0.2-0.5,0.3-1,0.3-1.5s-0.1-1.1-0.3-1.5c-0.2-0.5-0.4-0.9-0.8-1.1s-0.8-0.4-1.3-0.4s-1,0.1-1.3,0.4
	c-0.3,0.3-0.6,0.7-0.8,1.1c-0.2,0.5-0.2,1-0.2,1.5c0,0.6,0.1,1.1,0.2,1.5s0.4,0.8,0.8,1.1C717.5,463.7,717.9,463.9,718.4,463.9z
	 M718.4,465.3c-0.8,0-1.5-0.2-2.1-0.6c-0.6-0.4-1.1-0.9-1.4-1.6c-0.3-0.7-0.5-1.5-0.5-2.4c0-0.9,0.2-1.7,0.5-2.4s0.8-1.2,1.4-1.6
	c0.6-0.4,1.3-0.6,2.1-0.6s1.5,0.2,2.1,0.6s1.1,0.9,1.4,1.6c0.3,0.7,0.5,1.5,0.5,2.4c0,0.9-0.2,1.7-0.5,2.4c-0.3,0.7-0.8,1.2-1.4,1.6
	S719.2,465.3,718.4,465.3z M712.6,453.5v11.6h-1.7v-11.6H712.6z M701.7,454.3h1.7v8.3c0,0.3,0,0.6,0.2,0.7c0.1,0.2,0.2,0.3,0.4,0.3
	c0.2,0.1,0.3,0.1,0.5,0.1c0.1,0,0.3,0,0.4,0s0.2,0,0.2,0l0.3,1.4c-0.1,0-0.2,0.1-0.4,0.1c-0.2,0-0.4,0.1-0.7,0.1
	c-0.5,0-0.9-0.1-1.2-0.2s-0.7-0.4-0.9-0.8s-0.4-0.8-0.4-1.3L701.7,454.3L701.7,454.3z M705.2,456.4v1.4h-4.8v-1.4H705.2z
	 M693.4,459.9v5.2h-1.7v-8.7h1.6v1.4h0.1c0.2-0.5,0.5-0.8,0.9-1.1c0.4-0.3,1-0.4,1.6-0.4c0.6,0,1.1,0.1,1.6,0.4
	c0.5,0.2,0.8,0.6,1,1.1c0.2,0.5,0.4,1.1,0.4,1.8v5.5h-1.7v-5.4c0-0.6-0.2-1.1-0.5-1.5c-0.3-0.4-0.8-0.5-1.4-0.5
	c-0.4,0-0.7,0.1-1,0.3c-0.3,0.2-0.5,0.4-0.7,0.8C693.5,459.1,693.4,459.5,693.4,459.9z M686.3,465.3c-0.9,0-1.6-0.2-2.2-0.5
	s-1.1-0.9-1.4-1.6c-0.3-0.7-0.5-1.5-0.5-2.4c0-0.9,0.2-1.7,0.5-2.4c0.3-0.7,0.8-1.2,1.4-1.6c0.6-0.4,1.3-0.6,2.1-0.6
	c0.5,0,1,0.1,1.4,0.2s0.9,0.4,1.2,0.8c0.4,0.4,0.7,0.8,0.9,1.4c0.2,0.5,0.3,1.2,0.3,2v0.6h-6.9V460h5.3c0-0.5-0.1-0.8-0.3-1.2
	s-0.4-0.6-0.8-0.8s-0.7-0.3-1.2-0.3c-0.5,0-0.9,0.1-1.2,0.4c-0.3,0.2-0.6,0.5-0.8,0.9c-0.2,0.4-0.3,0.8-0.3,1.2v1
	c0,0.6,0.1,1.1,0.3,1.5s0.5,0.7,0.9,0.9c0.4,0.2,0.8,0.3,1.3,0.3c0.3,0,0.6,0,0.9-0.1c0.3-0.1,0.5-0.2,0.7-0.4
	c0.2-0.2,0.3-0.4,0.4-0.7l1.6,0.3c-0.1,0.5-0.4,0.9-0.7,1.2c-0.3,0.4-0.7,0.6-1.2,0.8C687.5,465.2,686.9,465.3,686.3,465.3z
	 M680.6,458.5l-1.5,0.3c-0.1-0.2-0.2-0.4-0.3-0.6s-0.3-0.3-0.6-0.4c-0.2-0.1-0.5-0.2-0.9-0.2c-0.5,0-0.9,0.1-1.2,0.3
	c-0.3,0.2-0.5,0.5-0.5,0.8c0,0.3,0.1,0.5,0.3,0.7c0.2,0.2,0.6,0.3,1,0.4l1.4,0.3c0.8,0.2,1.4,0.5,1.8,0.9c0.4,0.4,0.6,0.9,0.6,1.5
	c0,0.5-0.2,1-0.5,1.4s-0.7,0.7-1.3,1c-0.5,0.2-1.2,0.4-1.9,0.4c-1,0-1.8-0.2-2.4-0.6c-0.6-0.4-1-1-1.1-1.8l1.6-0.2
	c0.1,0.4,0.3,0.8,0.6,1s0.7,0.3,1.2,0.3c0.6,0,1-0.1,1.3-0.4c0.3-0.2,0.5-0.5,0.5-0.9c0-0.3-0.1-0.5-0.3-0.7
	c-0.2-0.2-0.5-0.3-0.9-0.4l-1.5-0.3c-0.8-0.2-1.4-0.5-1.8-0.9s-0.6-0.9-0.6-1.5c0-0.5,0.1-1,0.4-1.4c0.3-0.4,0.7-0.7,1.2-0.9
	c0.5-0.2,1.1-0.3,1.7-0.3c0.9,0,1.7,0.2,2.2,0.6C680.1,457.3,680.5,457.8,680.6,458.5z M662.2,468.4c-0.2,0-0.5,0-0.7-0.1
	s-0.4-0.1-0.5-0.1l0.4-1.4c0.3,0.1,0.6,0.1,0.8,0.1s0.5-0.1,0.6-0.3c0.2-0.2,0.4-0.5,0.5-0.8l0.2-0.6l-3.2-8.8h1.8l2.2,6.8h0.1
	l2.2-6.8h1.8l-3.6,9.9c-0.2,0.5-0.4,0.8-0.6,1.1c-0.3,0.3-0.6,0.6-0.9,0.7C663.1,468.3,662.7,468.4,662.2,468.4z M659,453.5v11.6
	h-1.7v-11.6H659z M649.7,459.9v5.2H648v-8.7h1.6v1.4h0.1c0.2-0.5,0.5-0.8,0.9-1.1c0.4-0.3,1-0.4,1.6-0.4c0.6,0,1.1,0.1,1.6,0.4
	c0.5,0.2,0.8,0.6,1,1.1c0.2,0.5,0.4,1.1,0.4,1.8v5.5h-1.7v-5.4c0-0.6-0.2-1.1-0.5-1.5c-0.3-0.4-0.8-0.5-1.4-0.5
	c-0.4,0-0.7,0.1-1,0.3c-0.3,0.2-0.5,0.4-0.7,0.8C649.8,459.1,649.7,459.5,649.7,459.9z M642.2,463.9c0.5,0,1-0.1,1.3-0.4
	c0.3-0.3,0.6-0.6,0.8-1.1c0.2-0.5,0.3-1,0.3-1.5s-0.1-1.1-0.3-1.5c-0.2-0.5-0.4-0.9-0.8-1.1c-0.3-0.3-0.8-0.4-1.3-0.4
	s-1,0.1-1.3,0.4c-0.3,0.3-0.6,0.7-0.8,1.1c-0.2,0.5-0.2,1-0.2,1.5c0,0.6,0.1,1.1,0.2,1.5s0.4,0.8,0.8,1.1
	C641.2,463.7,641.7,463.9,642.2,463.9z M642.2,465.3c-0.8,0-1.5-0.2-2.1-0.6s-1.1-0.9-1.4-1.6c-0.3-0.7-0.5-1.5-0.5-2.4
	c0-0.9,0.2-1.7,0.5-2.4s0.8-1.2,1.4-1.6s1.3-0.6,2.1-0.6s1.5,0.2,2.1,0.6c0.6,0.4,1.1,0.9,1.4,1.6c0.3,0.7,0.5,1.5,0.5,2.4
	c0,0.9-0.2,1.7-0.5,2.4c-0.3,0.7-0.8,1.2-1.4,1.6S643,465.3,642.2,465.3z M629,465.3c-0.9,0-1.6-0.2-2.2-0.5s-1.1-0.9-1.4-1.6
	c-0.3-0.7-0.5-1.5-0.5-2.4c0-0.9,0.2-1.7,0.5-2.4c0.3-0.7,0.8-1.2,1.4-1.6c0.6-0.4,1.3-0.6,2.1-0.6c0.5,0,1,0.1,1.4,0.2
	s0.9,0.4,1.2,0.8c0.4,0.4,0.7,0.8,0.9,1.4c0.2,0.5,0.3,1.2,0.3,2v0.6h-6.9V460h5.3c0-0.5-0.1-0.8-0.3-1.2s-0.4-0.6-0.8-0.8
	s-0.7-0.3-1.2-0.3c-0.5,0-0.9,0.1-1.2,0.4c-0.3,0.2-0.6,0.5-0.8,0.9c-0.2,0.4-0.3,0.8-0.3,1.2v1c0,0.6,0.1,1.1,0.3,1.5
	s0.5,0.7,0.9,0.9c0.4,0.2,0.8,0.3,1.3,0.3c0.3,0,0.6,0,0.9-0.1c0.3-0.1,0.5-0.2,0.7-0.4s0.3-0.4,0.4-0.7l1.6,0.3
	c-0.1,0.5-0.4,0.9-0.7,1.2c-0.3,0.4-0.7,0.6-1.2,0.8C630.2,465.2,629.6,465.3,629,465.3z M619.6,465.1v-8.7h1.6v1.4h0.1
	c0.2-0.5,0.4-0.8,0.8-1.1c0.4-0.3,0.9-0.4,1.4-0.4c0.1,0,0.2,0,0.4,0s0.3,0,0.3,0v1.6c-0.1,0-0.2,0-0.4-0.1c-0.2,0-0.3,0-0.5,0
	c-0.4,0-0.8,0.1-1.1,0.3s-0.6,0.4-0.7,0.7c-0.2,0.3-0.3,0.6-0.3,1v5.3L619.6,465.1L619.6,465.1z M613.5,463.9c0.5,0,0.9-0.1,1.2-0.3
	c0.3-0.2,0.6-0.4,0.8-0.7c0.2-0.3,0.3-0.6,0.3-1v-1.1c-0.1,0.1-0.2,0.1-0.3,0.2c-0.2,0-0.4,0.1-0.6,0.1c-0.2,0-0.4,0.1-0.6,0.1
	s-0.4,0-0.5,0.1c-0.3,0-0.6,0.1-0.9,0.2s-0.5,0.2-0.7,0.4c-0.2,0.2-0.2,0.4-0.2,0.7c0,0.4,0.2,0.7,0.5,1
	C612.7,463.8,613.1,463.9,613.5,463.9z M613.2,465.3c-0.5,0-1-0.1-1.5-0.3s-0.8-0.5-1.1-0.9c-0.3-0.4-0.4-0.9-0.4-1.5
	c0-0.5,0.1-0.9,0.3-1.2s0.5-0.6,0.8-0.8s0.7-0.3,1.1-0.4c0.4-0.1,0.8-0.2,1.2-0.2c0.5-0.1,1-0.1,1.3-0.1c0.3,0,0.6-0.1,0.7-0.2
	c0.2-0.1,0.2-0.2,0.2-0.4v0c0-0.5-0.1-0.9-0.4-1.1c-0.3-0.3-0.7-0.4-1.2-0.4c-0.6,0-1,0.1-1.3,0.4c-0.3,0.2-0.5,0.5-0.7,0.8
	l-1.6-0.4c0.2-0.5,0.5-1,0.8-1.3c0.4-0.3,0.8-0.6,1.3-0.7c0.5-0.1,1-0.2,1.5-0.2c0.3,0,0.7,0,1.1,0.1s0.8,0.2,1.1,0.4
	c0.3,0.2,0.6,0.5,0.8,0.9c0.2,0.4,0.3,0.9,0.3,1.5v5.8h-1.7v-1.2h-0.1c-0.1,0.2-0.3,0.4-0.5,0.6s-0.5,0.4-0.8,0.5
	C614.1,465.2,613.7,465.3,613.2,465.3z M797.6,441.1l-2.6-8.7h1.8l1.7,6.4h0.1l1.7-6.4h1.8l1.7,6.4h0.1l1.7-6.4h1.8l-2.6,8.7H803
	l-1.8-6.3h-0.1l-1.8,6.3H797.6z M790.3,441.3c-0.9,0-1.6-0.2-2.2-0.5s-1.1-0.9-1.4-1.6c-0.3-0.7-0.5-1.5-0.5-2.4
	c0-0.9,0.2-1.7,0.5-2.4c0.3-0.7,0.8-1.2,1.4-1.6c0.6-0.4,1.3-0.6,2.1-0.6c0.5,0,1,0.1,1.4,0.2s0.9,0.4,1.2,0.8
	c0.4,0.4,0.7,0.8,0.9,1.4c0.2,0.5,0.3,1.2,0.3,2v0.6h-6.9V436h5.3c0-0.5-0.1-0.8-0.3-1.2s-0.4-0.6-0.8-0.8s-0.7-0.3-1.2-0.3
	c-0.5,0-0.9,0.1-1.2,0.4c-0.3,0.2-0.6,0.5-0.8,0.9c-0.2,0.4-0.3,0.8-0.3,1.2v1c0,0.6,0.1,1.1,0.3,1.5s0.5,0.7,0.9,0.9
	c0.4,0.2,0.8,0.3,1.3,0.3c0.3,0,0.6,0,0.9-0.1c0.3-0.1,0.5-0.2,0.7-0.4s0.3-0.4,0.4-0.7l1.6,0.3c-0.1,0.5-0.4,0.9-0.7,1.2
	c-0.3,0.4-0.7,0.6-1.2,0.8C791.5,441.2,790.9,441.3,790.3,441.3z M783.6,431c-0.3,0-0.5-0.1-0.8-0.3c-0.2-0.2-0.3-0.4-0.3-0.7
	s0.1-0.5,0.3-0.7s0.5-0.3,0.8-0.3s0.5,0.1,0.8,0.3c0.2,0.2,0.3,0.4,0.3,0.7s-0.1,0.5-0.3,0.7C784.1,430.9,783.9,431,783.6,431z
	 M782.7,441.1v-8.7h1.7v8.7H782.7z M781.3,432.4l-3.2,8.7h-1.8l-3.2-8.7h1.8l2.2,6.7h0.1l2.2-6.7H781.3z M764,439.9
	c0.5,0,1-0.1,1.3-0.4c0.3-0.3,0.6-0.6,0.8-1.1c0.2-0.5,0.3-1,0.3-1.5s-0.1-1.1-0.3-1.5c-0.2-0.5-0.4-0.9-0.8-1.1s-0.8-0.4-1.3-0.4
	s-1,0.1-1.3,0.4c-0.3,0.3-0.6,0.7-0.8,1.1c-0.2,0.5-0.2,1-0.2,1.5c0,0.6,0.1,1.1,0.2,1.5s0.4,0.8,0.8,1.1S763.5,439.9,764,439.9z
	 M764,441.3c-0.8,0-1.5-0.2-2.1-0.6c-0.6-0.4-1.1-0.9-1.4-1.6c-0.3-0.7-0.5-1.5-0.5-2.4c0-0.9,0.2-1.7,0.5-2.4s0.8-1.2,1.4-1.6
	c0.6-0.4,1.3-0.6,2.1-0.6s1.5,0.2,2.1,0.6s1.1,0.9,1.4,1.6c0.3,0.7,0.5,1.5,0.5,2.4c0,0.9-0.2,1.7-0.5,2.4c-0.3,0.7-0.8,1.2-1.4,1.6
	S764.8,441.3,764,441.3z M755.2,430.3h1.7v8.3c0,0.3,0,0.6,0.2,0.7c0.1,0.2,0.2,0.3,0.4,0.3c0.2,0.1,0.3,0.1,0.5,0.1
	c0.1,0,0.3,0,0.4,0s0.2,0,0.2,0l0.3,1.4c-0.1,0-0.2,0.1-0.4,0.1c-0.2,0-0.4,0.1-0.7,0.1c-0.5,0-0.9-0.1-1.2-0.2
	c-0.4-0.2-0.7-0.4-0.9-0.8c-0.2-0.4-0.4-0.8-0.4-1.3L755.2,430.3L755.2,430.3z M758.7,432.4v1.4h-4.8v-1.4H758.7z M748.5,429.5v11.6
	h-1.7v-11.6H748.5z M741.3,441.3c-0.9,0-1.6-0.2-2.2-0.5s-1.1-0.9-1.4-1.6c-0.3-0.7-0.5-1.5-0.5-2.4c0-0.9,0.2-1.7,0.5-2.4
	c0.3-0.7,0.8-1.2,1.4-1.6c0.6-0.4,1.3-0.6,2.1-0.6c0.5,0,1,0.1,1.4,0.2s0.9,0.4,1.2,0.8c0.4,0.4,0.7,0.8,0.9,1.4
	c0.2,0.5,0.3,1.2,0.3,2v0.6h-6.9V436h5.3c0-0.5-0.1-0.8-0.3-1.2s-0.4-0.6-0.8-0.8s-0.7-0.3-1.2-0.3c-0.5,0-0.9,0.1-1.2,0.4
	c-0.3,0.2-0.6,0.5-0.8,0.9c-0.2,0.4-0.3,0.8-0.3,1.2v1c0,0.6,0.1,1.1,0.3,1.5s0.5,0.7,0.9,0.9c0.4,0.2,0.8,0.3,1.3,0.3
	c0.3,0,0.6,0,0.9-0.1c0.3-0.1,0.5-0.2,0.7-0.4s0.3-0.4,0.4-0.7l1.6,0.3c-0.1,0.5-0.4,0.9-0.7,1.2c-0.3,0.4-0.7,0.6-1.2,0.8
	C742.5,441.2,741.9,441.3,741.3,441.3z M731.3,439.8c0.5,0,0.9-0.1,1.2-0.4c0.3-0.3,0.6-0.6,0.8-1.1c0.2-0.5,0.3-1,0.3-1.6
	s-0.1-1.1-0.3-1.6c-0.2-0.5-0.4-0.8-0.8-1.1s-0.8-0.4-1.2-0.4c-0.5,0-0.9,0.1-1.3,0.4s-0.6,0.6-0.8,1.1c-0.2,0.5-0.3,1-0.3,1.5
	c0,0.6,0.1,1.1,0.3,1.6s0.4,0.8,0.8,1.1C730.4,439.7,730.8,439.8,731.3,439.8z M731,441.3c-0.7,0-1.3-0.2-1.9-0.5
	c-0.5-0.4-1-0.9-1.3-1.5c-0.3-0.7-0.5-1.5-0.5-2.4s0.2-1.8,0.5-2.4c0.3-0.7,0.8-1.2,1.3-1.5c0.5-0.4,1.2-0.5,1.9-0.5
	c0.5,0,1,0.1,1.3,0.3s0.6,0.4,0.8,0.6c0.2,0.2,0.3,0.5,0.4,0.6h0.1v-4.3h1.7v11.6h-1.7v-1.4h-0.1c-0.1,0.2-0.2,0.4-0.4,0.6
	c-0.2,0.2-0.5,0.5-0.8,0.6C731.9,441.2,731.5,441.3,731,441.3z M721.9,439.9c0.5,0,1-0.1,1.3-0.4c0.3-0.3,0.6-0.6,0.8-1.1
	c0.2-0.5,0.3-1,0.3-1.5s-0.1-1.1-0.3-1.5c-0.2-0.5-0.4-0.9-0.8-1.1c-0.3-0.3-0.8-0.4-1.3-0.4s-1,0.1-1.3,0.4
	c-0.3,0.3-0.6,0.7-0.8,1.1c-0.2,0.5-0.2,1-0.2,1.5c0,0.6,0.1,1.1,0.2,1.5s0.4,0.8,0.8,1.1S721.4,439.9,721.9,439.9z M721.9,441.3
	c-0.8,0-1.5-0.2-2.1-0.6s-1.1-0.9-1.4-1.6c-0.3-0.7-0.5-1.5-0.5-2.4c0-0.9,0.2-1.7,0.5-2.4s0.8-1.2,1.4-1.6s1.3-0.6,2.1-0.6
	s1.5,0.2,2.1,0.6c0.6,0.4,1.1,0.9,1.4,1.6c0.3,0.7,0.5,1.5,0.5,2.4c0,0.9-0.2,1.7-0.5,2.4c-0.3,0.7-0.8,1.2-1.4,1.6
	S722.7,441.3,721.9,441.3z M704.3,441.1v-8.7h1.6v1.4h0.1c0.2-0.5,0.5-0.9,0.9-1.1c0.4-0.3,0.9-0.4,1.5-0.4c0.6,0,1.1,0.1,1.5,0.4
	c0.4,0.3,0.7,0.6,0.9,1.1h0.1c0.2-0.5,0.5-0.8,1-1.1c0.5-0.3,1-0.4,1.6-0.4c0.8,0,1.4,0.2,1.9,0.7c0.5,0.5,0.8,1.2,0.8,2.2v5.9h-1.7
	v-5.7c0-0.6-0.2-1-0.5-1.3c-0.3-0.3-0.7-0.4-1.2-0.4c-0.5,0-1,0.2-1.3,0.5s-0.5,0.8-0.5,1.3v5.6h-1.7v-5.8c0-0.5-0.2-0.9-0.4-1.1
	s-0.7-0.4-1.2-0.4c-0.3,0-0.6,0.1-0.9,0.3s-0.5,0.4-0.7,0.7c-0.2,0.3-0.2,0.6-0.2,1v5.4L704.3,441.1L704.3,441.1z M686.2,441.1v-8.7
	h1.6v1.4h0.1c0.2-0.5,0.5-0.9,0.9-1.1c0.4-0.3,0.9-0.4,1.5-0.4c0.6,0,1.1,0.1,1.5,0.4c0.4,0.3,0.7,0.6,0.9,1.1h0.1
	c0.2-0.5,0.5-0.8,1-1.1c0.5-0.3,1-0.4,1.6-0.4c0.8,0,1.4,0.2,1.9,0.7c0.5,0.5,0.8,1.2,0.8,2.2v5.9h-1.7v-5.7c0-0.6-0.2-1-0.5-1.3
	c-0.3-0.3-0.7-0.4-1.2-0.4c-0.5,0-1,0.2-1.3,0.5s-0.5,0.8-0.5,1.3v5.6h-1.7v-5.8c0-0.5-0.2-0.9-0.4-1.1c-0.3-0.3-0.7-0.4-1.2-0.4
	c-0.3,0-0.6,0.1-0.9,0.3s-0.5,0.4-0.7,0.7c-0.2,0.3-0.2,0.6-0.2,1v5.4L686.2,441.1L686.2,441.1z M680.5,439.9c0.5,0,1-0.1,1.3-0.4
	c0.3-0.3,0.6-0.6,0.8-1.1c0.2-0.5,0.3-1,0.3-1.5s-0.1-1.1-0.3-1.5c-0.2-0.5-0.4-0.9-0.8-1.1c-0.3-0.3-0.8-0.4-1.3-0.4
	s-1,0.1-1.3,0.4c-0.3,0.3-0.6,0.7-0.8,1.1c-0.2,0.5-0.2,1-0.2,1.5c0,0.6,0.1,1.1,0.2,1.5s0.4,0.8,0.8,1.1
	C679.5,439.7,679.9,439.9,680.5,439.9z M680.5,441.3c-0.8,0-1.5-0.2-2.1-0.6s-1.1-0.9-1.4-1.6c-0.3-0.7-0.5-1.5-0.5-2.4
	c0-0.9,0.2-1.7,0.5-2.4s0.8-1.2,1.4-1.6s1.3-0.6,2.1-0.6s1.5,0.2,2.1,0.6c0.6,0.4,1.1,0.9,1.4,1.6c0.3,0.7,0.5,1.5,0.5,2.4
	c0,0.9-0.2,1.7-0.5,2.4c-0.3,0.7-0.8,1.2-1.4,1.6C682,441.1,681.3,441.3,680.5,441.3z M671.1,441.1v-8.7h1.6v1.4h0.1
	c0.2-0.5,0.4-0.8,0.8-1.1c0.4-0.3,0.9-0.4,1.4-0.4c0.1,0,0.2,0,0.4,0s0.3,0,0.3,0v1.6c-0.1,0-0.2,0-0.4-0.1c-0.2,0-0.3,0-0.5,0
	c-0.4,0-0.8,0.1-1.1,0.3s-0.6,0.4-0.7,0.7c-0.2,0.3-0.3,0.6-0.3,1v5.3L671.1,441.1L671.1,441.1z M666,441.1v-9.7
	c0-0.5,0.1-1,0.4-1.4s0.5-0.6,1-0.8c0.4-0.2,0.8-0.3,1.3-0.3c0.3,0,0.6,0,0.9,0.1c0.2,0,0.4,0.1,0.5,0.1l-0.4,1.4
	c-0.1,0-0.2,0-0.3-0.1c-0.1,0-0.3,0-0.5,0c-0.4,0-0.7,0.1-0.9,0.3c-0.2,0.2-0.3,0.5-0.3,0.9v9.5L666,441.1L666,441.1z M669.5,432.4
	v1.4h-4.9v-1.4H669.5z M659.5,434.5l-1.5,0.3c-0.1-0.2-0.2-0.4-0.3-0.6s-0.3-0.3-0.6-0.4c-0.2-0.1-0.5-0.2-0.9-0.2
	c-0.5,0-0.9,0.1-1.2,0.3c-0.3,0.2-0.5,0.5-0.5,0.8c0,0.3,0.1,0.5,0.3,0.7c0.2,0.2,0.6,0.3,1,0.4l1.4,0.3c0.8,0.2,1.4,0.5,1.8,0.9
	c0.4,0.4,0.6,0.9,0.6,1.5c0,0.5-0.2,1-0.5,1.4s-0.7,0.7-1.3,1c-0.5,0.2-1.2,0.4-1.9,0.4c-1,0-1.8-0.2-2.4-0.6c-0.6-0.4-1-1-1.1-1.8
	l1.6-0.2c0.1,0.4,0.3,0.8,0.6,1s0.7,0.3,1.2,0.3c0.6,0,1-0.1,1.3-0.4c0.3-0.2,0.5-0.5,0.5-0.9c0-0.3-0.1-0.5-0.3-0.7
	c-0.2-0.2-0.5-0.3-0.9-0.4l-1.5-0.3c-0.8-0.2-1.4-0.5-1.8-0.9s-0.6-0.9-0.6-1.5c0-0.5,0.1-1,0.4-1.4c0.3-0.4,0.7-0.7,1.2-0.9
	c0.5-0.2,1.1-0.3,1.7-0.3c0.9,0,1.7,0.2,2.2,0.6C658.9,433.3,659.3,433.8,659.5,434.5z M647.9,430.3h1.7v8.3c0,0.3,0,0.6,0.2,0.7
	c0.1,0.2,0.2,0.3,0.4,0.3c0.2,0.1,0.3,0.1,0.5,0.1c0.1,0,0.3,0,0.4,0s0.2,0,0.2,0l0.3,1.4c-0.1,0-0.2,0.1-0.4,0.1
	c-0.2,0-0.4,0.1-0.7,0.1c-0.5,0-0.9-0.1-1.2-0.2c-0.4-0.2-0.7-0.4-0.9-0.8c-0.2-0.4-0.4-0.8-0.4-1.3L647.9,430.3L647.9,430.3z
	 M651.4,432.4v1.4h-4.8v-1.4H651.4z M639.6,435.9v5.2h-1.7v-8.7h1.6v1.4h0.1c0.2-0.5,0.5-0.8,0.9-1.1c0.4-0.3,1-0.4,1.6-0.4
	c0.6,0,1.1,0.1,1.6,0.4c0.5,0.2,0.8,0.6,1,1.1c0.2,0.5,0.4,1.1,0.4,1.8v5.5h-1.7v-5.4c0-0.6-0.2-1.1-0.5-1.5
	c-0.3-0.4-0.8-0.5-1.4-0.5c-0.4,0-0.7,0.1-1,0.3c-0.3,0.2-0.5,0.4-0.7,0.8C639.7,435.1,639.6,435.5,639.6,435.9z M632.5,441.3
	c-0.9,0-1.6-0.2-2.2-0.5s-1.1-0.9-1.4-1.6c-0.3-0.7-0.5-1.5-0.5-2.4c0-0.9,0.2-1.7,0.5-2.4c0.3-0.7,0.8-1.2,1.4-1.6
	c0.6-0.4,1.3-0.6,2.1-0.6c0.5,0,1,0.1,1.4,0.2s0.9,0.4,1.2,0.8c0.4,0.4,0.7,0.8,0.9,1.4c0.2,0.5,0.3,1.2,0.3,2v0.6h-6.9V436h5.3
	c0-0.5-0.1-0.8-0.3-1.2s-0.4-0.6-0.8-0.8s-0.7-0.3-1.2-0.3c-0.5,0-0.9,0.1-1.2,0.4c-0.3,0.2-0.6,0.5-0.8,0.9
	c-0.2,0.4-0.3,0.8-0.3,1.2v1c0,0.6,0.1,1.1,0.3,1.5s0.5,0.7,0.9,0.9c0.4,0.2,0.8,0.3,1.3,0.3c0.3,0,0.6,0,0.9-0.1
	c0.3-0.1,0.5-0.2,0.7-0.4s0.3-0.4,0.4-0.7l1.6,0.3c-0.1,0.5-0.4,0.9-0.7,1.2c-0.3,0.4-0.7,0.6-1.2,0.8
	C633.7,441.2,633.1,441.3,632.5,441.3z M627.6,432.4l-3.2,8.7h-1.8l-3.2-8.7h1.8l2.2,6.7h0.1l2.2-6.7H627.6z M610.8,441.1v-11.6h7.3
	v1.5h-5.5v3.5h5.2v1.5h-5.2v3.6h5.6v1.5H610.8z"/>
<circle class="st8" cx="494.5" cy="711.9" r="48"/>
<path class="st2" d="M507,717.9v-8.7h2.4v1.5h0.1c0.2-0.5,0.4-1,0.8-1.2c0.4-0.3,0.8-0.4,1.3-0.4c0.1,0,0.2,0,0.4,0
	c0.1,0,0.3,0,0.4,0.1v2.2c-0.1,0-0.3-0.1-0.5-0.1c-0.2,0-0.4,0-0.5,0c-0.4,0-0.7,0.1-1,0.2c-0.3,0.2-0.5,0.4-0.7,0.6
	c-0.2,0.3-0.2,0.6-0.2,0.9v4.9L507,717.9L507,717.9z M501.6,718.1c-0.9,0-1.7-0.2-2.3-0.5c-0.6-0.4-1.1-0.9-1.5-1.6
	c-0.4-0.7-0.5-1.5-0.5-2.4c0-0.9,0.2-1.7,0.5-2.4c0.4-0.7,0.8-1.2,1.5-1.6c0.6-0.4,1.4-0.6,2.2-0.6c0.6,0,1.1,0.1,1.6,0.3
	c0.5,0.2,0.9,0.5,1.3,0.8c0.4,0.4,0.7,0.8,0.9,1.4c0.2,0.5,0.3,1.2,0.3,1.9v0.7h-7.4v-1.5h5.1c0-0.3-0.1-0.7-0.2-0.9
	c-0.1-0.3-0.4-0.5-0.6-0.6c-0.3-0.2-0.6-0.2-0.9-0.2c-0.4,0-0.7,0.1-1,0.3c-0.3,0.2-0.5,0.4-0.7,0.7c-0.2,0.3-0.2,0.6-0.2,0.9v1.4
	c0,0.4,0.1,0.8,0.2,1.1c0.2,0.3,0.4,0.6,0.7,0.7s0.6,0.3,1,0.3c0.3,0,0.5,0,0.7-0.1s0.4-0.2,0.6-0.3s0.3-0.3,0.4-0.6l2.2,0.2
	c-0.1,0.5-0.4,1-0.7,1.4c-0.4,0.4-0.8,0.7-1.4,0.9C503,718,502.4,718.1,501.6,718.1z M496.1,711.7l-2.2,0.1c0-0.2-0.1-0.4-0.2-0.5
	c-0.1-0.2-0.3-0.3-0.5-0.4c-0.2-0.1-0.4-0.1-0.7-0.1c-0.4,0-0.7,0.1-1,0.2s-0.4,0.4-0.4,0.6c0,0.2,0.1,0.4,0.2,0.5
	c0.2,0.1,0.5,0.3,0.9,0.3l1.6,0.3c0.9,0.2,1.5,0.5,1.9,0.8c0.4,0.4,0.6,0.9,0.6,1.5c0,0.6-0.2,1.1-0.5,1.5c-0.3,0.4-0.8,0.8-1.4,1
	c-0.6,0.2-1.2,0.4-2,0.4c-1.2,0-2.1-0.2-2.8-0.7c-0.7-0.5-1.1-1.1-1.2-2l2.4-0.1c0.1,0.3,0.2,0.6,0.5,0.8c0.3,0.2,0.6,0.3,1.1,0.3
	c0.4,0,0.8-0.1,1-0.2c0.3-0.2,0.4-0.4,0.4-0.6c0-0.2-0.1-0.4-0.3-0.5c-0.2-0.1-0.5-0.2-0.8-0.3l-1.5-0.3c-0.9-0.2-1.5-0.5-1.9-0.9
	c-0.4-0.4-0.6-1-0.6-1.6c0-0.6,0.1-1,0.5-1.5c0.3-0.4,0.7-0.7,1.3-0.9c0.6-0.2,1.2-0.3,2-0.3c1.1,0,2,0.2,2.6,0.7
	C495.6,710.2,496,710.9,496.1,711.7z M484.6,706.3h2.5v7.6c0,0.8-0.2,1.6-0.6,2.2c-0.4,0.6-1,1.1-1.7,1.5c-0.7,0.3-1.6,0.5-2.5,0.5
	c-1,0-1.8-0.2-2.5-0.5c-0.7-0.4-1.3-0.8-1.7-1.5s-0.6-1.4-0.6-2.2v-7.6h2.5v7.3c0,0.4,0.1,0.8,0.3,1.2c0.2,0.3,0.5,0.6,0.8,0.8
	c0.4,0.2,0.8,0.3,1.2,0.3c0.5,0,0.9-0.1,1.2-0.3c0.4-0.2,0.6-0.5,0.8-0.8c0.2-0.3,0.3-0.7,0.3-1.2L484.6,706.3L484.6,706.3z"/>
<path class="st2" d="M414.5,710.4c-12.4,0-22.5-10.1-22.5-22.5h-3c0,14.1,11.4,25.5,25.5,25.5V710.4z M392,622.9
	c0-12.4,10.1-22.5,22.5-22.5v-3c-14.1,0-25.5,11.4-25.5,25.5H392z M414.5,600.4h4v-3h-4V600.4z M392,629.4v-6.5h-3v6.5H392z
	 M392,687.9v-14.5h-3v14.5H392z M442.5,710.4h-28v3h28V710.4z M419.6,600c0.6-0.6,0.6-1.5,0-2.1l-9.5-9.5c-0.6-0.6-1.5-0.6-2.1,0
	c-0.6,0.6-0.6,1.5,0,2.1l8.5,8.5l-8.5,8.5c-0.6,0.6-0.6,1.5,0,2.1s1.5,0.6,2.1,0L419.6,600z M442.5,713.4c0.8,0,1.5-0.7,1.5-1.5
	s-0.7-1.5-1.5-1.5V713.4z"/>
<g>
	<g>
		<g>
			<defs>
				<rect id="SVGID_7_" width="950.5" height="887.9"/>
			</defs>
			<clipPath id="SVGID_8_">
				<use xlink:href="#SVGID_7_"  style="overflow:visible;"/>
			</clipPath>
		</g>
	</g>
</g>
<path class="st2" d="M574.5,600.4c12.4,0,22.5,10.1,22.5,22.5h3c0-14.1-11.4-25.5-25.5-25.5V600.4z M597,687.9
	c0,12.4-10.1,22.5-22.5,22.5v3c14.1,0,25.5-11.4,25.5-25.5H597z M574.5,710.4h-28v3h28V710.4z M597,674.5v13.4h3v-13.4H597z
	 M597,622.9v7.6h3v-7.6H597z M570.5,600.4h4v-3h-4V600.4z M545.4,710.9c-0.6,0.6-0.6,1.5,0,2.1l9.5,9.5c0.6,0.6,1.5,0.6,2.1,0
	c0.6-0.6,0.6-1.5,0-2.1l-8.5-8.5l8.5-8.5c0.6-0.6,0.6-1.5,0-2.1c-0.6-0.6-1.5-0.6-2.1,0L545.4,710.9z M570.5,597.4
	c-0.8,0-1.5,0.7-1.5,1.5s0.7,1.5,1.5,1.5V597.4z"/>
<g>
	<g>
		<g>
			<defs>
				<rect id="SVGID_9_" width="950.5" height="887.9"/>
			</defs>
			<clipPath id="SVGID_10_">
				<use xlink:href="#SVGID_9_"  style="overflow:visible;"/>
			</clipPath>
		</g>
	</g>
</g>
<path class="st2" d="M410.5,504.4h8v-3h-8V504.4z M388.4,504.4h16.1v-3h-16.1V504.4z M366.3,504.4h16.1v-3h-16.1V504.4z
	 M344.2,504.4h16.1v-3h-16.1V504.4z M322.1,504.4h16.1v-3h-16.1V504.4z M300,504.4h16.1v-3H300V504.4z M278,504.4H294v-3H278V504.4z
	 M255.9,504.4H272v-3h-16.1L255.9,504.4L255.9,504.4z M233.8,504.4h16.1v-3h-16.1V504.4z M211.7,504.4h16.1v-3h-16.1V504.4z
	 M189.6,504.4h16.1v-3h-16.1V504.4z M167.6,504.4h16.1v-3h-16.1V504.4z M153.5,504.4h8v-3h-8V504.4z M146.3,503.4
	c2.3,0.7,4.7,1,7.2,1v-3c-2.2,0-4.3-0.3-6.3-0.9L146.3,503.4z M131.1,491.1c2.3,4.3,5.9,7.8,10.2,10.2l1.4-2.6c-3.8-2.1-6.9-5.2-9-9
	L131.1,491.1z M128,478.9c0,2.5,0.4,4.9,1,7.2l2.9-0.8c-0.6-2-0.9-4.1-0.9-6.3L128,478.9L128,478.9z M128,470.2v8.8h3v-8.8H128z
	 M128,446.1v17.5h3v-17.5H128z M128,422v17.5h3V422H128z M128,397.9v17.5h3v-17.5H128z M128,373.8v17.5h3v-17.5H128z M128,358.4v8.8
	h3v-8.8H128z M129,351.2c-0.7,2.3-1,4.7-1,7.2h3c0-2.2,0.3-4.3,0.9-6.3L129,351.2z M141.3,336c-4.3,2.3-7.8,5.9-10.2,10.2l2.6,1.4
	c2.1-3.8,5.2-6.9,9-9L141.3,336z M153.5,332.9c-2.5,0-4.9,0.4-7.2,1l0.8,2.9c2-0.6,4.1-0.9,6.3-0.9L153.5,332.9L153.5,332.9z
	 M161.2,332.9h-7.7v3h7.7V332.9z M182.3,332.9h-15.4v3h15.4V332.9z M203.4,332.9h-15.4v3h15.4V332.9z M224.6,332.9h-15.4v3h15.4
	V332.9z M245.7,332.9h-15.4v3h15.4V332.9z M266.8,332.9h-15.4v3h15.4V332.9z M287.9,332.9h-15.4v3h15.4V332.9z M309.1,332.9h-15.4v3
	h15.4V332.9z M322.5,332.9h-7.7v3h7.7V332.9z M323.6,335.5c0.6-0.6,0.6-1.5,0-2.1l-9.5-9.5c-0.6-0.6-1.5-0.6-2.1,0
	c-0.6,0.6-0.6,1.5,0,2.1l8.5,8.5l-8.5,8.5c-0.6,0.6-0.6,1.5,0,2.1c0.6,0.6,1.5,0.6,2.1,0L323.6,335.5z M418.5,504.4
	c0.8,0,1.5-0.7,1.5-1.5s-0.7-1.5-1.5-1.5V504.4z"/>
<path class="st2" d="M410.5,504.4h8v-3h-8V504.4z M388.4,504.4h16.1v-3h-16.1V504.4z M366.3,504.4h16.1v-3h-16.1V504.4z
	 M344.2,504.4h16.1v-3h-16.1V504.4z M322.1,504.4h16.1v-3h-16.1V504.4z M300,504.4h16.1v-3H300V504.4z M278,504.4H294v-3H278V504.4z
	 M255.9,504.4H272v-3h-16.1L255.9,504.4L255.9,504.4z M233.8,504.4h16.1v-3h-16.1V504.4z M211.7,504.4h16.1v-3h-16.1V504.4z
	 M189.6,504.4h16.1v-3h-16.1V504.4z M167.6,504.4h16.1v-3h-16.1V504.4z M153.5,504.4h8v-3h-8V504.4z M146.3,503.4
	c2.3,0.7,4.7,1,7.2,1v-3c-2.2,0-4.3-0.3-6.3-0.9L146.3,503.4z M131.1,491.1c2.3,4.3,5.9,7.8,10.2,10.2l1.4-2.6c-3.8-2.1-6.9-5.2-9-9
	L131.1,491.1z M128,478.9c0,2.5,0.4,4.9,1,7.2l2.9-0.8c-0.6-2-0.9-4.1-0.9-6.3L128,478.9L128,478.9z M128,470.5v8.4h3v-8.4H128z
	 M128,447.5v16.8h3v-16.8H128z M128,424.4v16.8h3v-16.8H128z M128,401.4v16.8h3v-16.8H128z M128,378.3V395h3v-16.8H128z M128,355.2
	V372h3v-16.8H128z M128,332.2v16.8h3v-16.8H128z M128,309.1v16.8h3v-16.8H128z M128,294.4v8.4h3v-8.4H128z M129,287.2
	c-0.7,2.3-1,4.7-1,7.2h3c0-2.2,0.3-4.3,0.9-6.3L129,287.2z M141.3,272c-4.3,2.3-7.8,5.9-10.2,10.2l2.6,1.4c2.1-3.8,5.2-6.9,9-9
	L141.3,272z M153.5,268.9c-2.5,0-4.9,0.4-7.2,1l0.8,2.9c2-0.6,4.1-0.9,6.3-0.9L153.5,268.9L153.5,268.9z M160.4,268.9h-6.9v3h6.9
	V268.9z M179.4,268.9h-13.8v3h13.8V268.9z M198.4,268.9h-13.8v3h13.8V268.9z M210.5,268.9h-6.9v3h6.9V268.9z M211.6,271.5
	c0.6-0.6,0.6-1.5,0-2.1l-9.6-9.5c-0.6-0.6-1.5-0.6-2.1,0c-0.6,0.6-0.6,1.5,0,2.1l8.5,8.5l-8.5,8.5c-0.6,0.6-0.6,1.5,0,2.1
	c0.6,0.6,1.5,0.6,2.1,0L211.6,271.5z M418.5,504.4c0.8,0,1.5-0.7,1.5-1.5s-0.7-1.5-1.5-1.5V504.4z"/>
<circle class="st9" cx="774.5" cy="182.9" r="48"/>
<path class="st2" d="M793.7,188.9l-2.6-3.8l1.6-1.7l3.8,5.5L793.7,188.9L793.7,188.9z M788.2,188.9v-11.6h2.4v11.6H788.2z
	 M790.5,186.4l0-2.9h0.3l2.8-3.3h2.8l-3.8,4.4h-0.6L790.5,186.4z M783,189.1c-0.9,0-1.7-0.2-2.3-0.6c-0.6-0.4-1.1-0.9-1.5-1.6
	c-0.3-0.7-0.5-1.5-0.5-2.3c0-0.9,0.2-1.7,0.5-2.4c0.3-0.7,0.8-1.2,1.5-1.6c0.6-0.4,1.4-0.6,2.3-0.6c0.8,0,1.4,0.1,2,0.4
	c0.6,0.3,1,0.7,1.4,1.2s0.5,1.1,0.5,1.8h-2.3c-0.1-0.4-0.2-0.8-0.5-1.1c-0.3-0.3-0.6-0.4-1.1-0.4c-0.4,0-0.7,0.1-1,0.3
	c-0.3,0.2-0.5,0.5-0.7,0.9c-0.2,0.4-0.2,0.9-0.2,1.4c0,0.6,0.1,1,0.2,1.4c0.2,0.4,0.4,0.7,0.7,0.9s0.6,0.3,1,0.3
	c0.3,0,0.5-0.1,0.7-0.2s0.4-0.3,0.5-0.5c0.2-0.2,0.2-0.5,0.3-0.8h2.3c0,0.7-0.2,1.2-0.5,1.8c-0.3,0.5-0.8,0.9-1.3,1.2
	C784.4,188.9,783.8,189.1,783,189.1z M773.4,187.2c0.4,0,0.7-0.1,1-0.3s0.5-0.6,0.6-0.9c0.1-0.4,0.2-0.9,0.2-1.4s-0.1-1-0.2-1.4
	s-0.3-0.7-0.6-0.9c-0.3-0.2-0.6-0.4-1-0.4c-0.4,0-0.8,0.1-1,0.4c-0.3,0.2-0.5,0.6-0.6,0.9c-0.1,0.4-0.2,0.9-0.2,1.4s0.1,1,0.2,1.4
	c0.1,0.4,0.3,0.7,0.6,0.9C772.6,187.1,773,187.2,773.4,187.2z M773.3,189.1c-0.9,0-1.7-0.2-2.3-0.6c-0.6-0.4-1.1-0.9-1.5-1.6
	c-0.3-0.7-0.5-1.5-0.5-2.4s0.2-1.7,0.5-2.4c0.3-0.7,0.8-1.2,1.5-1.6c0.6-0.4,1.4-0.6,2.3-0.6s1.6,0.2,2.3,0.6s1.1,0.9,1.5,1.6
	c0.3,0.7,0.5,1.5,0.5,2.4c0,0.9-0.2,1.7-0.5,2.4c-0.3,0.7-0.8,1.2-1.5,1.6C775,188.9,774.2,189.1,773.3,189.1z M767.6,177.3v11.6
	h-2.4v-11.6H767.6z M763.7,181.4h-2.5c0-0.3-0.1-0.6-0.3-0.9s-0.3-0.5-0.5-0.6s-0.5-0.3-0.8-0.4c-0.3-0.1-0.6-0.1-0.9-0.1
	c-0.6,0-1.1,0.1-1.6,0.4c-0.5,0.3-0.8,0.7-1,1.3c-0.2,0.6-0.4,1.2-0.4,2.1c0,0.8,0.1,1.5,0.4,2.1s0.6,1,1,1.3s1,0.4,1.5,0.4
	c0.3,0,0.6,0,0.9-0.1c0.3-0.1,0.5-0.2,0.8-0.4c0.2-0.2,0.4-0.4,0.5-0.6c0.2-0.2,0.2-0.5,0.3-0.8l2.5,0c-0.1,0.5-0.2,1.1-0.5,1.6
	c-0.2,0.5-0.6,0.9-1,1.3c-0.4,0.4-0.9,0.7-1.5,0.9c-0.6,0.2-1.3,0.3-2,0.3c-1,0-2-0.2-2.8-0.7c-0.8-0.5-1.5-1.1-1.9-2
	s-0.7-2-0.7-3.2c0-1.3,0.2-2.4,0.7-3.2s1.1-1.6,1.9-2c0.8-0.5,1.7-0.7,2.8-0.7c0.7,0,1.3,0.1,1.9,0.3s1.1,0.5,1.5,0.8
	c0.5,0.4,0.8,0.8,1.1,1.3C763.4,180.1,763.6,180.7,763.7,181.4z"/>
<path class="st2" d="M518.5,181.4c-14.1,0-25.5,11.4-25.5,25.5h3c0-12.4,10.1-22.5,22.5-22.5V181.4z M493,206.9v148h3v-148
	L493,206.9L493,206.9z M722.5,181.4h-204v3h204V181.4z M493.4,356c0.6,0.6,1.5,0.6,2.1,0l9.5-9.5c0.6-0.6,0.6-1.5,0-2.1
	c-0.6-0.6-1.5-0.6-2.1,0l-8.5,8.5l-8.5-8.5c-0.6-0.6-1.5-0.6-2.1,0c-0.6,0.6-0.6,1.5,0,2.1L493.4,356z M722.5,184.4
	c0.8,0,1.5-0.7,1.5-1.5s-0.7-1.5-1.5-1.5V184.4z"/>
<path class="st2" d="M714.7,184.4h7.8v-3h-7.8V184.4z M693.3,184.4h15.6v-3h-15.6V184.4z M671.8,184.4h15.6v-3h-15.6V184.4z
	 M650.4,184.4H666v-3h-15.6V184.4z M629,184.4h15.6v-3H629V184.4z M607.6,184.4h15.6v-3h-15.6V184.4z M586.1,184.4h15.6v-3h-15.6
	V184.4z M564.7,184.4h15.6v-3h-15.6V184.4z M543.3,184.4h15.6v-3h-15.6V184.4z M521.8,184.4h15.6v-3h-15.6V184.4z M500.4,184.4H516
	v-3h-15.6V184.4z M479,184.4h15.6v-3H479V184.4z M457.6,184.4h15.6v-3h-15.6V184.4z M436.1,184.4h15.6v-3h-15.6V184.4z M422.5,184.4
	h7.8v-3h-7.8V184.4z M416.2,185.3c2-0.6,4.1-0.9,6.3-0.9v-3c-2.5,0-4.9,0.4-7.2,1L416.2,185.3z M402.8,196.1c2.1-3.8,5.2-6.9,9-9
	l-1.4-2.6c-4.3,2.3-7.8,5.9-10.2,10.2L402.8,196.1z M400,206.9c0-2.2,0.3-4.3,0.9-6.3l-2.9-0.8c-0.7,2.3-1,4.7-1,7.2L400,206.9
	L400,206.9z M400,214.6v-7.6h-3v7.6H400z M400,235.6v-15.3h-3v15.3H400z M400,256.6v-15.3h-3v15.3H400z M400,277.6v-15.3h-3v15.3
	H400z M400,290.9v-7.6h-3v7.6H400z M722.5,184.4c0.8,0,1.5-0.7,1.5-1.5s-0.7-1.5-1.5-1.5V184.4z M397.4,292c0.6,0.6,1.5,0.6,2.1,0
	l9.5-9.5c0.6-0.6,0.6-1.5,0-2.1c-0.6-0.6-1.5-0.6-2.1,0l-8.5,8.5l-8.5-8.5c-0.6-0.6-1.5-0.6-2.1,0c-0.6,0.6-0.6,1.5,0,2.1L397.4,292
	z"/>
<path class="st2" d="M409.7,185.4h7.8v-3h-7.8V185.4z M388.3,185.4h15.6v-3h-15.6V185.4z M366.9,185.4h15.6v-3h-15.6V185.4z
	 M345.5,185.4h15.6v-3h-15.6V185.4z M324.1,185.4h15.6v-3h-15.6V185.4z M310.5,185.4h7.8v-3h-7.8V185.4z M304.2,186.3
	c2-0.6,4.1-0.9,6.3-0.9v-3c-2.5,0-4.9,0.4-7.2,1L304.2,186.3z M290.8,197.1c2.1-3.8,5.2-6.9,9-9l-1.4-2.6
	c-4.3,2.3-7.8,5.9-10.2,10.2L290.8,197.1z M288,207.9c0-2.2,0.3-4.3,0.9-6.3l-2.9-0.8c-0.7,2.3-1,4.7-1,7.2L288,207.9L288,207.9z
	 M288,214.8v-6.9h-3v6.9H288z M288,226.9V220h-3v6.9H288z M285.4,228c0.6,0.6,1.5,0.6,2.1,0l9.5-9.6c0.6-0.6,0.6-1.5,0-2.1
	c-0.6-0.6-1.5-0.6-2.1,0l-8.5,8.5l-8.5-8.5c-0.6-0.6-1.5-0.6-2.1,0c-0.6,0.6-0.6,1.5,0,2.1L285.4,228z M417.5,185.4
	c0.8,0,1.5-0.7,1.5-1.5s-0.7-1.5-1.5-1.5V185.4z"/>
<path class="st2" d="M518.5,181.4c-14.1,0-25.5,11.4-25.5,25.5h3c0-12.4,10.1-22.5,22.5-22.5V181.4z M493,206.9v148h3v-148
	L493,206.9L493,206.9z M722.5,181.4h-204v3h204V181.4z M493.4,356c0.6,0.6,1.5,0.6,2.1,0l9.5-9.5c0.6-0.6,0.6-1.5,0-2.1
	c-0.6-0.6-1.5-0.6-2.1,0l-8.5,8.5l-8.5-8.5c-0.6-0.6-1.5-0.6-2.1,0c-0.6,0.6-0.6,1.5,0,2.1L493.4,356z M722.5,184.4
	c0.8,0,1.5-0.7,1.5-1.5s-0.7-1.5-1.5-1.5V184.4z"/>
<path class="st2" d="M457.2,536.7v27.9h3v-27.9H457.2z M457.2,564.7c0,0.8,0.7,1.5,1.5,1.5s1.5-0.7,1.5-1.5H457.2z M459.8,535.7
	c-0.6-0.6-1.5-0.6-2.1,0l-9.5,9.5c-0.6,0.6-0.6,1.5,0,2.1s1.5,0.6,2.1,0l8.5-8.5l8.5,8.5c0.6,0.6,1.5,0.6,2.1,0s0.6-1.5,0-2.1
	L459.8,535.7z"/>
<path class="st2" d="M527.6,565v-27.9h-3V565H527.6z M527.6,537.1c0-0.8-0.7-1.5-1.5-1.5s-1.5,0.7-1.5,1.5H527.6z M525.1,566.1
	c0.6,0.6,1.5,0.6,2.1,0l9.5-9.5c0.6-0.6,0.6-1.5,0-2.1c-0.6-0.6-1.5-0.6-2.1,0l-8.5,8.5l-8.5-8.5c-0.6-0.6-1.5-0.6-2.1,0
	c-0.6,0.6-0.6,1.5,0,2.1L525.1,566.1z"/>
<path class="st2" d="M619.5,645.5h1.7v8.3c0,0.3,0,0.6,0.2,0.7c0.1,0.2,0.2,0.3,0.4,0.3c0.2,0.1,0.3,0.1,0.5,0.1c0.1,0,0.3,0,0.4,0
	s0.2,0,0.2,0l0.3,1.4c-0.1,0-0.2,0.1-0.4,0.1c-0.2,0-0.4,0.1-0.7,0.1c-0.5,0-0.9-0.1-1.2-0.2s-0.7-0.4-0.9-0.8
	c-0.2-0.3-0.4-0.8-0.4-1.3L619.5,645.5L619.5,645.5z M623,647.6v1.4h-4.8v-1.4H623z M615.1,652.7v-5.1h1.7v8.7h-1.7v-1.5h-0.1
	c-0.2,0.5-0.5,0.8-1,1.2c-0.4,0.3-1,0.5-1.6,0.5c-0.6,0-1.1-0.1-1.5-0.4s-0.8-0.6-1-1.1s-0.4-1.1-0.4-1.8v-5.5h1.7v5.3
	c0,0.6,0.2,1.1,0.5,1.4s0.8,0.5,1.3,0.5c0.3,0,0.6-0.1,1-0.2s0.6-0.4,0.8-0.7C615,653.6,615.1,653.2,615.1,652.7z M601.5,652
	c0,0.6,0.1,1.2,0.3,1.6c0.2,0.5,0.4,0.8,0.8,1.1c0.3,0.3,0.8,0.4,1.2,0.4c0.5,0,0.9-0.1,1.3-0.4s0.6-0.6,0.8-1.1
	c0.2-0.5,0.3-1,0.3-1.6s-0.1-1.1-0.3-1.5c-0.2-0.5-0.4-0.8-0.8-1.1s-0.8-0.4-1.3-0.4c-0.5,0-0.9,0.1-1.2,0.4s-0.6,0.6-0.8,1.1
	S601.5,651.4,601.5,652z M599.9,659.6v-12h1.7v1.4h0.1c0.1-0.2,0.2-0.4,0.4-0.6s0.4-0.5,0.8-0.6c0.3-0.2,0.8-0.3,1.3-0.3
	c0.7,0,1.3,0.2,1.9,0.5s1,0.9,1.3,1.5c0.3,0.7,0.5,1.5,0.5,2.4s-0.2,1.8-0.5,2.4c-0.3,0.7-0.8,1.2-1.3,1.5s-1.2,0.5-1.9,0.5
	c-0.5,0-1-0.1-1.3-0.3c-0.3-0.2-0.6-0.4-0.8-0.6s-0.3-0.5-0.4-0.6h-0.1v4.6L599.9,659.6L599.9,659.6z M594.7,645.5h1.7v8.3
	c0,0.3,0,0.6,0.2,0.7c0.1,0.2,0.2,0.3,0.4,0.3c0.2,0.1,0.3,0.1,0.5,0.1c0.1,0,0.3,0,0.4,0s0.2,0,0.2,0l0.3,1.4
	c-0.1,0-0.2,0.1-0.4,0.1c-0.2,0-0.4,0.1-0.7,0.1c-0.5,0-0.9-0.1-1.2-0.2s-0.7-0.4-0.9-0.8c-0.2-0.3-0.4-0.8-0.4-1.3L594.7,645.5
	L594.7,645.5z M598.2,647.6v1.4h-4.8v-1.4H598.2z M590.3,652.7v-5.1h1.7v8.7h-1.7v-1.5h-0.1c-0.2,0.5-0.5,0.8-1,1.2
	c-0.4,0.3-1,0.5-1.6,0.5c-0.6,0-1.1-0.1-1.5-0.4s-0.8-0.6-1-1.1s-0.4-1.1-0.4-1.8v-5.5h1.7v5.3c0,0.6,0.2,1.1,0.5,1.4
	s0.8,0.5,1.3,0.5c0.3,0,0.6-0.1,1-0.2s0.6-0.4,0.8-0.7C590.2,653.6,590.3,653.2,590.3,652.7z M581.2,650.5c0-1-0.2-1.7-0.5-2.4
	c-0.3-0.7-0.7-1.1-1.2-1.5c-0.5-0.3-1.1-0.5-1.8-0.5s-1.3,0.2-1.8,0.5c-0.5,0.3-0.9,0.8-1.2,1.5c-0.3,0.7-0.5,1.5-0.5,2.4
	c0,1,0.2,1.8,0.5,2.4c0.3,0.7,0.7,1.1,1.2,1.5c0.5,0.3,1.1,0.5,1.8,0.5c0.7,0,1.3-0.2,1.8-0.5c0.5-0.3,1-0.8,1.2-1.5
	C581,652.3,581.2,651.5,581.2,650.5z M582.9,650.5c0,1.2-0.2,2.3-0.7,3.2s-1.1,1.6-1.9,2.1s-1.7,0.7-2.7,0.7s-1.9-0.2-2.7-0.7
	c-0.8-0.5-1.4-1.2-1.9-2.1s-0.7-2-0.7-3.2s0.2-2.3,0.7-3.2s1.1-1.6,1.9-2.1c0.8-0.5,1.7-0.7,2.7-0.7c1,0,1.9,0.2,2.7,0.7
	s1.4,1.2,1.9,2.1C582.7,648.2,582.9,649.3,582.9,650.5z"/>
<path class="st2" d="M406.6,646.1h1.7v8.3c0,0.3,0,0.6,0.1,0.7s0.2,0.3,0.4,0.3c0.2,0.1,0.3,0.1,0.5,0.1c0.1,0,0.3,0,0.4,0
	c0.1,0,0.2,0,0.2,0l0.3,1.4c-0.1,0-0.2,0.1-0.4,0.1c-0.2,0-0.4,0.1-0.7,0.1c-0.5,0-0.9-0.1-1.2-0.2s-0.7-0.4-0.9-0.8
	c-0.2-0.3-0.4-0.8-0.4-1.3L406.6,646.1L406.6,646.1z M410,648.1v1.4h-4.8v-1.4H410z M402.2,653.3v-5.1h1.7v8.7h-1.7v-1.5h-0.1
	c-0.2,0.5-0.5,0.8-1,1.2c-0.4,0.3-1,0.5-1.6,0.5c-0.6,0-1.1-0.1-1.5-0.4s-0.8-0.6-1-1.1c-0.2-0.5-0.4-1.1-0.4-1.8v-5.5h1.7v5.3
	c0,0.6,0.2,1.1,0.5,1.4s0.8,0.5,1.3,0.5c0.3,0,0.6-0.1,1-0.2s0.6-0.4,0.8-0.7C402.1,654.2,402.2,653.7,402.2,653.3z M388.6,652.5
	c0,0.6,0.1,1.2,0.3,1.6c0.2,0.5,0.4,0.8,0.8,1.1c0.3,0.3,0.8,0.4,1.2,0.4c0.5,0,0.9-0.1,1.3-0.4s0.6-0.6,0.8-1.1
	c0.2-0.5,0.3-1,0.3-1.6s-0.1-1.1-0.3-1.5c-0.2-0.5-0.4-0.8-0.8-1.1s-0.8-0.4-1.3-0.4c-0.5,0-0.9,0.1-1.2,0.4s-0.6,0.6-0.8,1.1
	C388.7,651.4,388.6,651.9,388.6,652.5z M386.9,660.1v-12h1.7v1.4h0.1c0.1-0.2,0.2-0.4,0.4-0.6s0.4-0.5,0.8-0.6
	c0.3-0.2,0.8-0.3,1.3-0.3c0.7,0,1.3,0.2,1.9,0.5s1,0.9,1.3,1.5c0.3,0.7,0.5,1.5,0.5,2.4s-0.2,1.8-0.5,2.4c-0.3,0.7-0.8,1.2-1.3,1.5
	s-1.2,0.5-1.9,0.5c-0.5,0-1-0.1-1.3-0.3c-0.3-0.2-0.6-0.4-0.8-0.6c-0.2-0.2-0.3-0.5-0.4-0.6h-0.1v4.6L386.9,660.1L386.9,660.1z
	 M379.2,651.7v5.2h-1.7v-8.7h1.6v1.4h0.1c0.2-0.5,0.5-0.8,0.9-1.1c0.4-0.3,1-0.4,1.6-0.4c0.6,0,1.1,0.1,1.6,0.4
	c0.5,0.2,0.8,0.6,1,1.1s0.4,1.1,0.4,1.8v5.5h-1.7v-5.3c0-0.6-0.2-1.1-0.5-1.5c-0.3-0.4-0.8-0.5-1.4-0.5c-0.4,0-0.7,0.1-1,0.3
	c-0.3,0.2-0.5,0.4-0.7,0.8C379.3,650.8,379.2,651.2,379.2,651.7z M375.3,645.2v11.6h-1.8v-11.6H375.3z"/>
</svg>
